<mxfile host="app.diagrams.net" modified="2023-06-06T19:28:22.259Z" agent="Mozilla/5.0 (Windows NT 10.0; Win64; x64) AppleWebKit/537.36 (KHTML, like Gecko) Chrome/114.0.0.0 Safari/537.36 Edg/114.0.1823.37" etag="Zu5LN3nG6RqAygecmc17" version="21.3.5" type="device">
  <diagram id="AVlrbdHFfIFae9fIVT3l" name="Page-1">
    <mxGraphModel dx="5627" dy="3660" grid="1" gridSize="10" guides="0" tooltips="1" connect="1" arrows="1" fold="1" page="1" pageScale="1" pageWidth="827" pageHeight="1169" math="0" shadow="0">
      <root>
        <mxCell id="0" />
        <mxCell id="1" parent="0" />
        <mxCell id="bsfdR2ASljnAakVN_pzH-18" value="" style="rounded=0;whiteSpace=wrap;html=1;fillColor=#f5f5f5;fontColor=#333333;strokeColor=#666666;" vertex="1" parent="1">
          <mxGeometry x="-2060" y="-340" width="220" height="600" as="geometry" />
        </mxCell>
        <mxCell id="bsfdR2ASljnAakVN_pzH-17" value="" style="rounded=0;whiteSpace=wrap;html=1;fillColor=#ffe6cc;strokeColor=#d79b00;" vertex="1" parent="1">
          <mxGeometry x="-1790" y="-180" width="300" height="520" as="geometry" />
        </mxCell>
        <mxCell id="bsfdR2ASljnAakVN_pzH-15" value="" style="rounded=0;whiteSpace=wrap;html=1;fillColor=#e1d5e7;strokeColor=#9673a6;" vertex="1" parent="1">
          <mxGeometry x="-1480" y="-390" width="800" height="580" as="geometry" />
        </mxCell>
        <mxCell id="bsfdR2ASljnAakVN_pzH-14" value="" style="rounded=0;whiteSpace=wrap;html=1;fillColor=#e1d5e7;strokeColor=#9673a6;" vertex="1" parent="1">
          <mxGeometry x="-1830" y="-390" width="350" height="180" as="geometry" />
        </mxCell>
        <mxCell id="bsfdR2ASljnAakVN_pzH-12" value="" style="rounded=0;whiteSpace=wrap;html=1;fillColor=#d5e8d4;strokeColor=#82b366;" vertex="1" parent="1">
          <mxGeometry x="-2120" y="-1270" width="380" height="280" as="geometry" />
        </mxCell>
        <mxCell id="bsfdR2ASljnAakVN_pzH-11" value="" style="rounded=0;whiteSpace=wrap;html=1;fillColor=#d5e8d4;strokeColor=#82b366;" vertex="1" parent="1">
          <mxGeometry x="830" y="-1040" width="440" height="1060" as="geometry" />
        </mxCell>
        <mxCell id="bsfdR2ASljnAakVN_pzH-10" value="" style="rounded=0;whiteSpace=wrap;html=1;fillColor=#d5e8d4;strokeColor=#82b366;" vertex="1" parent="1">
          <mxGeometry x="-970" y="-840" width="320" height="190" as="geometry" />
        </mxCell>
        <mxCell id="bsfdR2ASljnAakVN_pzH-9" value="" style="rounded=0;whiteSpace=wrap;html=1;fillColor=#dae8fc;strokeColor=#6c8ebf;" vertex="1" parent="1">
          <mxGeometry x="-1340" y="-1270" width="330" height="170" as="geometry" />
        </mxCell>
        <mxCell id="bsfdR2ASljnAakVN_pzH-8" value="" style="rounded=0;whiteSpace=wrap;html=1;fillColor=#dae8fc;strokeColor=#6c8ebf;" vertex="1" parent="1">
          <mxGeometry x="-560" y="-1050" width="980" height="520" as="geometry" />
        </mxCell>
        <mxCell id="bsfdR2ASljnAakVN_pzH-7" value="" style="rounded=0;whiteSpace=wrap;html=1;fillColor=#dae8fc;strokeColor=#6c8ebf;" vertex="1" parent="1">
          <mxGeometry x="-1740" y="-1280" width="320" height="270" as="geometry" />
        </mxCell>
        <mxCell id="bsfdR2ASljnAakVN_pzH-5" value="" style="rounded=0;whiteSpace=wrap;html=1;fillColor=#fff2cc;strokeColor=#d6b656;" vertex="1" parent="1">
          <mxGeometry x="-1350" y="-1090" width="380" height="210" as="geometry" />
        </mxCell>
        <mxCell id="bsfdR2ASljnAakVN_pzH-4" value="" style="rounded=0;whiteSpace=wrap;html=1;fillColor=#fff2cc;strokeColor=#d6b656;" vertex="1" parent="1">
          <mxGeometry x="-2370" y="-890" width="1400" height="340" as="geometry" />
        </mxCell>
        <mxCell id="bsfdR2ASljnAakVN_pzH-3" value="" style="rounded=0;whiteSpace=wrap;html=1;fillColor=#f8cecc;strokeColor=#b85450;" vertex="1" parent="1">
          <mxGeometry x="420" y="-970" width="410" height="270" as="geometry" />
        </mxCell>
        <mxCell id="bsfdR2ASljnAakVN_pzH-1" value="" style="rounded=0;whiteSpace=wrap;html=1;fillColor=#f8cecc;strokeColor=#b85450;" vertex="1" parent="1">
          <mxGeometry x="1270" y="-1270" width="1770" height="1210" as="geometry" />
        </mxCell>
        <mxCell id="G9EN5JWeJz_nwPtttZKu-1" value="&lt;&lt;interface&gt;&gt; &#xa;IOffer&#xa;" style="swimlane;fontStyle=1;align=center;verticalAlign=top;childLayout=stackLayout;horizontal=1;startSize=40;horizontalStack=0;resizeParent=1;resizeParentMax=0;resizeLast=0;collapsible=1;marginBottom=0;labelBackgroundColor=none;" parent="1" vertex="1">
          <mxGeometry x="1750" y="-940" width="249" height="148" as="geometry" />
        </mxCell>
        <mxCell id="8i7Lr49_zQPxc0uf3AC--71" value="&lt;&lt;get&gt;&gt; Description: string" style="text;strokeColor=none;fillColor=none;align=left;verticalAlign=top;spacingLeft=4;spacingRight=4;overflow=hidden;rotatable=0;points=[[0,0.5],[1,0.5]];portConstraint=eastwest;labelBackgroundColor=none;" parent="G9EN5JWeJz_nwPtttZKu-1" vertex="1">
          <mxGeometry y="40" width="249" height="26" as="geometry" />
        </mxCell>
        <mxCell id="8i7Lr49_zQPxc0uf3AC--70" value="&lt;&lt;get&gt;&gt; Category: PizzeriaData.Category" style="text;align=left;verticalAlign=top;spacingLeft=4;spacingRight=4;overflow=hidden;rotatable=0;points=[[0,0.5],[1,0.5]];portConstraint=eastwest;labelBackgroundColor=none;" parent="G9EN5JWeJz_nwPtttZKu-1" vertex="1">
          <mxGeometry y="66" width="249" height="26" as="geometry" />
        </mxCell>
        <mxCell id="ViWVULLcjfLXoIwgi1Q9-7" value="&lt;&lt;get&gt;&gt; Recipe: Recipe" style="text;strokeColor=none;fillColor=none;align=left;verticalAlign=top;spacingLeft=4;spacingRight=4;overflow=hidden;rotatable=0;points=[[0,0.5],[1,0.5]];portConstraint=eastwest;labelBackgroundColor=none;" parent="G9EN5JWeJz_nwPtttZKu-1" vertex="1">
          <mxGeometry y="92" width="249" height="30" as="geometry" />
        </mxCell>
        <mxCell id="8i7Lr49_zQPxc0uf3AC--69" value="&lt;&lt;get&gt;&gt; TotalTime: TimeOnly" style="text;strokeColor=none;fillColor=none;align=left;verticalAlign=top;spacingLeft=4;spacingRight=4;overflow=hidden;rotatable=0;points=[[0,0.5],[1,0.5]];portConstraint=eastwest;labelBackgroundColor=none;" parent="G9EN5JWeJz_nwPtttZKu-1" vertex="1">
          <mxGeometry y="122" width="249" height="26" as="geometry" />
        </mxCell>
        <mxCell id="G9EN5JWeJz_nwPtttZKu-5" value="&lt;&lt;interface&gt;&gt;&#xa;ICashRegister" style="swimlane;fontStyle=1;align=center;verticalAlign=top;childLayout=stackLayout;horizontal=1;startSize=40;horizontalStack=0;resizeParent=1;resizeParentMax=0;resizeLast=0;collapsible=1;marginBottom=0;labelBackgroundColor=none;" parent="1" vertex="1">
          <mxGeometry x="86" y="-934" width="310" height="252" as="geometry" />
        </mxCell>
        <mxCell id="yTDWApdTZO0DoRyl30tC-57" value="+ &lt;&lt;get&gt;&gt; GetMenu: IMenu" style="text;align=left;verticalAlign=top;spacingLeft=4;spacingRight=4;overflow=hidden;rotatable=0;points=[[0,0.5],[1,0.5]];portConstraint=eastwest;rounded=0;shadow=0;html=0;labelBackgroundColor=none;" parent="G9EN5JWeJz_nwPtttZKu-5" vertex="1">
          <mxGeometry y="40" width="310" height="26" as="geometry" />
        </mxCell>
        <mxCell id="G9EN5JWeJz_nwPtttZKu-8" value="+ &lt;&lt;get&gt;&gt; PaymentMethod : Hashset&lt;MoneyCategory&gt;&#xa;+ CustomersInQueue : List&lt;Customer&gt;" style="text;align=left;verticalAlign=top;spacingLeft=4;spacingRight=4;overflow=hidden;rotatable=0;points=[[0,0.5],[1,0.5]];portConstraint=eastwest;labelBackgroundColor=none;" parent="G9EN5JWeJz_nwPtttZKu-5" vertex="1">
          <mxGeometry y="66" width="310" height="44" as="geometry" />
        </mxCell>
        <mxCell id="Vp7KOwkqIpcdfMKKaiIl-102" value="+ Pay(customerWallet: Wallet): bool" style="text;align=left;verticalAlign=top;spacingLeft=4;spacingRight=4;overflow=hidden;rotatable=0;points=[[0,0.5],[1,0.5]];portConstraint=eastwest;rounded=0;shadow=0;html=0;fontStyle=0;labelBackgroundColor=none;" parent="G9EN5JWeJz_nwPtttZKu-5" vertex="1">
          <mxGeometry y="110" width="310" height="26" as="geometry" />
        </mxCell>
        <mxCell id="Vp7KOwkqIpcdfMKKaiIl-103" value="+ CheckCustomerStatus(customer: Customer): &#xa;HashSet&lt;VipLvl&gt;" style="text;align=left;verticalAlign=top;spacingLeft=4;spacingRight=4;overflow=hidden;rotatable=0;points=[[0,0.5],[1,0.5]];portConstraint=eastwest;rounded=0;shadow=0;html=0;fontStyle=0;labelBackgroundColor=none;" parent="G9EN5JWeJz_nwPtttZKu-5" vertex="1">
          <mxGeometry y="136" width="310" height="38" as="geometry" />
        </mxCell>
        <mxCell id="XK9j-7oEgiNXDrXOnYMV-1" value="+ AddToQueue() : void" style="text;align=left;verticalAlign=top;spacingLeft=4;spacingRight=4;overflow=hidden;rotatable=0;points=[[0,0.5],[1,0.5]];portConstraint=eastwest;rounded=0;shadow=0;html=0;fontStyle=0;labelBackgroundColor=none;" parent="G9EN5JWeJz_nwPtttZKu-5" vertex="1">
          <mxGeometry y="174" width="310" height="26" as="geometry" />
        </mxCell>
        <mxCell id="XK9j-7oEgiNXDrXOnYMV-4" value="+ DeleteFromQueue() : void" style="text;align=left;verticalAlign=top;spacingLeft=4;spacingRight=4;overflow=hidden;rotatable=0;points=[[0,0.5],[1,0.5]];portConstraint=eastwest;rounded=0;shadow=0;html=0;fontStyle=0;labelBackgroundColor=none;" parent="G9EN5JWeJz_nwPtttZKu-5" vertex="1">
          <mxGeometry y="200" width="310" height="26" as="geometry" />
        </mxCell>
        <mxCell id="XK9j-7oEgiNXDrXOnYMV-2" value="+ &lt;&lt;event&gt;&gt;NewOrderApperence(order: Order) : void" style="text;align=left;verticalAlign=top;spacingLeft=4;spacingRight=4;overflow=hidden;rotatable=0;points=[[0,0.5],[1,0.5]];portConstraint=eastwest;rounded=0;shadow=0;html=0;fontStyle=0;labelBackgroundColor=none;" parent="G9EN5JWeJz_nwPtttZKu-5" vertex="1">
          <mxGeometry y="226" width="310" height="26" as="geometry" />
        </mxCell>
        <mxCell id="G9EN5JWeJz_nwPtttZKu-13" value="&lt;&lt;interface&gt;&gt; &#xa;IVisualization&#xa;" style="swimlane;fontStyle=1;align=center;verticalAlign=top;childLayout=stackLayout;horizontal=1;startSize=50;horizontalStack=0;resizeParent=1;resizeParentMax=0;resizeLast=0;collapsible=1;marginBottom=0;labelBackgroundColor=none;" parent="1" vertex="1">
          <mxGeometry x="-2010" y="-310.00000000000006" width="160" height="84" as="geometry" />
        </mxCell>
        <mxCell id="G9EN5JWeJz_nwPtttZKu-15" value="" style="line;strokeWidth=1;fillColor=none;align=left;verticalAlign=middle;spacingTop=-1;spacingLeft=3;spacingRight=3;rotatable=0;labelPosition=right;points=[];portConstraint=eastwest;labelBackgroundColor=none;" parent="G9EN5JWeJz_nwPtttZKu-13" vertex="1">
          <mxGeometry y="50" width="160" height="8" as="geometry" />
        </mxCell>
        <mxCell id="G9EN5JWeJz_nwPtttZKu-16" value="+ Visualize : void" style="text;strokeColor=none;fillColor=none;align=left;verticalAlign=top;spacingLeft=4;spacingRight=4;overflow=hidden;rotatable=0;points=[[0,0.5],[1,0.5]];portConstraint=eastwest;labelBackgroundColor=none;" parent="G9EN5JWeJz_nwPtttZKu-13" vertex="1">
          <mxGeometry y="58" width="160" height="26" as="geometry" />
        </mxCell>
        <mxCell id="G9EN5JWeJz_nwPtttZKu-103" value="Ingredient&#xa;" style="swimlane;fontStyle=3;align=center;verticalAlign=top;childLayout=stackLayout;horizontal=1;startSize=30;horizontalStack=0;resizeParent=1;resizeParentMax=0;resizeLast=0;collapsible=1;marginBottom=0;labelBackgroundColor=none;" parent="1" vertex="1">
          <mxGeometry x="1790.5" y="-1063" width="160" height="62" as="geometry" />
        </mxCell>
        <mxCell id="G9EN5JWeJz_nwPtttZKu-105" value="&lt;&lt;get&gt;&gt; Name : string" style="text;strokeColor=none;fillColor=none;align=left;verticalAlign=top;spacingLeft=4;spacingRight=4;overflow=hidden;rotatable=0;points=[[0,0.5],[1,0.5]];portConstraint=eastwest;labelBackgroundColor=none;" parent="G9EN5JWeJz_nwPtttZKu-103" vertex="1">
          <mxGeometry y="30" width="160" height="32" as="geometry" />
        </mxCell>
        <mxCell id="G9EN5JWeJz_nwPtttZKu-106" value="Storage" style="swimlane;fontStyle=1;align=center;verticalAlign=top;childLayout=stackLayout;horizontal=1;startSize=26;horizontalStack=0;resizeParent=1;resizeParentMax=0;resizeLast=0;collapsible=1;marginBottom=0;labelBackgroundColor=none;movable=1;resizable=1;rotatable=1;deletable=1;editable=1;connectable=1;" parent="1" vertex="1">
          <mxGeometry x="-1620" y="-810" width="292.5" height="120" as="geometry" />
        </mxCell>
        <mxCell id="G9EN5JWeJz_nwPtttZKu-107" value="- _ingredientsStorage : Dictionary&lt;Ingredient, uint&gt;" style="text;strokeColor=none;fillColor=none;align=left;verticalAlign=top;spacingLeft=4;spacingRight=4;overflow=hidden;rotatable=0;points=[[0,0.5],[1,0.5]];portConstraint=eastwest;labelBackgroundColor=none;" parent="G9EN5JWeJz_nwPtttZKu-106" vertex="1">
          <mxGeometry y="26" width="292.5" height="34" as="geometry" />
        </mxCell>
        <mxCell id="G9EN5JWeJz_nwPtttZKu-108" value="" style="line;strokeWidth=1;fillColor=none;align=left;verticalAlign=middle;spacingTop=-1;spacingLeft=3;spacingRight=3;rotatable=0;labelPosition=right;points=[];portConstraint=eastwest;labelBackgroundColor=none;" parent="G9EN5JWeJz_nwPtttZKu-106" vertex="1">
          <mxGeometry y="60" width="292.5" height="8" as="geometry" />
        </mxCell>
        <mxCell id="G9EN5JWeJz_nwPtttZKu-109" value="+ PutIngredient() : void&#xa;+ TakeIngredient() : void" style="text;strokeColor=none;fillColor=none;align=left;verticalAlign=top;spacingLeft=4;spacingRight=4;overflow=hidden;rotatable=0;points=[[0,0.5],[1,0.5]];portConstraint=eastwest;labelBackgroundColor=none;" parent="G9EN5JWeJz_nwPtttZKu-106" vertex="1">
          <mxGeometry y="68" width="292.5" height="52" as="geometry" />
        </mxCell>
        <mxCell id="G9EN5JWeJz_nwPtttZKu-126" value="Order" style="swimlane;fontStyle=0;align=center;verticalAlign=top;childLayout=stackLayout;horizontal=1;startSize=30;horizontalStack=0;resizeParent=1;resizeLast=0;collapsible=1;marginBottom=0;rounded=0;shadow=0;strokeWidth=1;labelBackgroundColor=none;" parent="1" vertex="1">
          <mxGeometry x="445" y="-931.78" width="350" height="178" as="geometry">
            <mxRectangle x="130" y="380" width="160" height="26" as="alternateBounds" />
          </mxGeometry>
        </mxCell>
        <mxCell id="G9EN5JWeJz_nwPtttZKu-127" value="- _id : Guid" style="text;align=left;verticalAlign=top;spacingLeft=4;spacingRight=4;overflow=hidden;rotatable=0;points=[[0,0.5],[1,0.5]];portConstraint=eastwest;rounded=0;shadow=0;html=0;labelBackgroundColor=none;" parent="G9EN5JWeJz_nwPtttZKu-126" vertex="1">
          <mxGeometry y="30" width="350" height="30" as="geometry" />
        </mxCell>
        <mxCell id="Vp7KOwkqIpcdfMKKaiIl-58" value="- _foodSet: List&lt;KeyValuePair&lt;IOffer, uint&gt;&gt;" style="text;align=left;verticalAlign=top;spacingLeft=4;spacingRight=4;overflow=hidden;rotatable=0;points=[[0,0.5],[1,0.5]];portConstraint=eastwest;rounded=0;shadow=0;html=0;labelBackgroundColor=none;" parent="G9EN5JWeJz_nwPtttZKu-126" vertex="1">
          <mxGeometry y="60" width="350" height="34" as="geometry" />
        </mxCell>
        <mxCell id="G9EN5JWeJz_nwPtttZKu-128" value="+&lt;&lt;get&gt;&gt;FoodSet: IEnumerable&lt;KeyValuePair&lt;IOffer, uint&gt;&gt;" style="text;align=left;verticalAlign=top;spacingLeft=4;spacingRight=4;overflow=hidden;rotatable=0;points=[[0,0.5],[1,0.5]];portConstraint=eastwest;rounded=0;shadow=0;html=0;labelBackgroundColor=none;" parent="G9EN5JWeJz_nwPtttZKu-126" vertex="1">
          <mxGeometry y="94" width="350" height="34" as="geometry" />
        </mxCell>
        <mxCell id="G9EN5JWeJz_nwPtttZKu-129" value="" style="line;html=1;strokeWidth=1;align=left;verticalAlign=middle;spacingTop=-1;spacingLeft=3;spacingRight=3;rotatable=0;labelPosition=right;points=[];portConstraint=eastwest;labelBackgroundColor=none;" parent="G9EN5JWeJz_nwPtttZKu-126" vertex="1">
          <mxGeometry y="128" width="350" height="8" as="geometry" />
        </mxCell>
        <mxCell id="G9EN5JWeJz_nwPtttZKu-130" value="+ Add(dish: IOffer, amount: int): void&#xa;+ GetTotalPrice() : void" style="text;align=left;verticalAlign=top;spacingLeft=4;spacingRight=4;overflow=hidden;rotatable=0;points=[[0,0.5],[1,0.5]];portConstraint=eastwest;fontStyle=0;whiteSpace=wrap;labelBackgroundColor=none;" parent="G9EN5JWeJz_nwPtttZKu-126" vertex="1">
          <mxGeometry y="136" width="350" height="42" as="geometry" />
        </mxCell>
        <mxCell id="G9EN5JWeJz_nwPtttZKu-131" value="Menu" style="swimlane;fontStyle=0;align=center;verticalAlign=top;childLayout=stackLayout;horizontal=1;startSize=30;horizontalStack=0;resizeParent=1;resizeLast=0;collapsible=1;marginBottom=0;rounded=0;shadow=0;strokeWidth=1;labelBackgroundColor=none;" parent="1" vertex="1">
          <mxGeometry x="845" y="-698" width="400" height="558" as="geometry">
            <mxRectangle x="965" y="-810" width="160" height="26" as="alternateBounds" />
          </mxGeometry>
        </mxCell>
        <mxCell id="G9EN5JWeJz_nwPtttZKu-132" value="- _dishes: Dictionary&lt;IOffer, decimal&gt;" style="text;align=left;verticalAlign=top;spacingLeft=4;spacingRight=4;overflow=hidden;rotatable=0;points=[[0,0.5],[1,0.5]];portConstraint=eastwest;rounded=0;shadow=0;html=0;labelBackgroundColor=none;" parent="G9EN5JWeJz_nwPtttZKu-131" vertex="1">
          <mxGeometry y="30" width="400" height="30" as="geometry" />
        </mxCell>
        <mxCell id="yTDWApdTZO0DoRyl30tC-3" value="- _additionalIngredients: Dictionary&lt;Category, &#xa;Dictionary&lt;IOffer, HashSet&lt;Ingredient&gt;&gt;&gt;" style="text;strokeColor=none;fillColor=none;align=left;verticalAlign=top;spacingLeft=4;spacingRight=4;overflow=hidden;rotatable=0;points=[[0,0.5],[1,0.5]];portConstraint=eastwest;labelBackgroundColor=none;" parent="G9EN5JWeJz_nwPtttZKu-131" vertex="1">
          <mxGeometry y="60" width="400" height="44" as="geometry" />
        </mxCell>
        <mxCell id="Vp7KOwkqIpcdfMKKaiIl-60" value="- _specialOffer: Dictionary&lt;VipLvl, Dictionary&lt;IOffer, ushort&gt;&gt;" style="text;align=left;verticalAlign=top;spacingLeft=4;spacingRight=4;overflow=hidden;rotatable=0;points=[[0,0.5],[1,0.5]];portConstraint=eastwest;rounded=0;shadow=0;html=0;labelBackgroundColor=none;" parent="G9EN5JWeJz_nwPtttZKu-131" vertex="1">
          <mxGeometry y="104" width="400" height="26" as="geometry" />
        </mxCell>
        <mxCell id="G9EN5JWeJz_nwPtttZKu-133" value="" style="line;html=1;strokeWidth=1;align=left;verticalAlign=middle;spacingTop=-1;spacingLeft=3;spacingRight=3;rotatable=0;labelPosition=right;points=[];portConstraint=eastwest;labelBackgroundColor=none;" parent="G9EN5JWeJz_nwPtttZKu-131" vertex="1">
          <mxGeometry y="130" width="400" height="4" as="geometry" />
        </mxCell>
        <mxCell id="Vp7KOwkqIpcdfMKKaiIl-33" value="- &lt;&lt;create&gt;&gt;Menu(): Menu" style="text;align=left;verticalAlign=top;spacingLeft=4;spacingRight=4;overflow=hidden;rotatable=0;points=[[0,0.5],[1,0.5]];portConstraint=eastwest;rounded=0;shadow=0;html=0;fontStyle=0;labelBackgroundColor=none;" parent="G9EN5JWeJz_nwPtttZKu-131" vertex="1">
          <mxGeometry y="134" width="400" height="26" as="geometry" />
        </mxCell>
        <mxCell id="Vp7KOwkqIpcdfMKKaiIl-36" value="+ GetInstance(): (Dictionary&lt;IOffer, decimal&gt;, &#xa;Dictionary&lt;Category, Dictionary&lt;IOffer, uint&gt;&gt;)" style="text;align=left;verticalAlign=top;spacingLeft=4;spacingRight=4;overflow=hidden;rotatable=0;points=[[0,0.5],[1,0.5]];portConstraint=eastwest;rounded=0;shadow=0;html=0;fontStyle=0;labelBackgroundColor=none;" parent="G9EN5JWeJz_nwPtttZKu-131" vertex="1">
          <mxGeometry y="160" width="400" height="39" as="geometry" />
        </mxCell>
        <mxCell id="Vp7KOwkqIpcdfMKKaiIl-74" value="+ AddSpecialOffer(offer: &#xa;Dictionary&lt;VipLvl, Dictionary&lt;IOffer, ushort&gt;&gt;): void" style="text;align=left;verticalAlign=top;spacingLeft=4;spacingRight=4;overflow=hidden;rotatable=0;points=[[0,0.5],[1,0.5]];portConstraint=eastwest;rounded=0;shadow=0;html=0;fontStyle=0;labelBackgroundColor=none;" parent="G9EN5JWeJz_nwPtttZKu-131" vertex="1">
          <mxGeometry y="199" width="400" height="49" as="geometry" />
        </mxCell>
        <mxCell id="Vp7KOwkqIpcdfMKKaiIl-73" value="+ AddAdditionalIngr(offer: &#xa;Dictionary&lt;Category, Dictionary&lt;IOffer, uint&gt;&gt;): void" style="text;align=left;verticalAlign=top;spacingLeft=4;spacingRight=4;overflow=hidden;rotatable=0;points=[[0,0.5],[1,0.5]];portConstraint=eastwest;rounded=0;shadow=0;html=0;fontStyle=0;labelBackgroundColor=none;" parent="G9EN5JWeJz_nwPtttZKu-131" vertex="1">
          <mxGeometry y="248" width="400" height="54" as="geometry" />
        </mxCell>
        <mxCell id="Vp7KOwkqIpcdfMKKaiIl-72" value="+ AddDish(offer: Dictionary&lt;IOffer, decimal&gt;): void" style="text;align=left;verticalAlign=top;spacingLeft=4;spacingRight=4;overflow=hidden;rotatable=0;points=[[0,0.5],[1,0.5]];portConstraint=eastwest;rounded=0;shadow=0;html=0;fontStyle=0;labelBackgroundColor=none;" parent="G9EN5JWeJz_nwPtttZKu-131" vertex="1">
          <mxGeometry y="302" width="400" height="26" as="geometry" />
        </mxCell>
        <mxCell id="Vp7KOwkqIpcdfMKKaiIl-71" value="+ RemoveSpecialOffer(offer: &#xa;Dictionary&lt;VipLvl, Dictionary&lt;IOffer, ushort&gt;&gt;): void" style="text;align=left;verticalAlign=top;spacingLeft=4;spacingRight=4;overflow=hidden;rotatable=0;points=[[0,0.5],[1,0.5]];portConstraint=eastwest;rounded=0;shadow=0;html=0;fontStyle=0;labelBackgroundColor=none;" parent="G9EN5JWeJz_nwPtttZKu-131" vertex="1">
          <mxGeometry y="328" width="400" height="49" as="geometry" />
        </mxCell>
        <mxCell id="Vp7KOwkqIpcdfMKKaiIl-70" value="+ RemoveAdditionalIngr(&#xa;offer: Dictionary&lt;Category, Dictionary&lt;IOffer, uint&gt;&gt;): void" style="text;align=left;verticalAlign=top;spacingLeft=4;spacingRight=4;overflow=hidden;rotatable=0;points=[[0,0.5],[1,0.5]];portConstraint=eastwest;rounded=0;shadow=0;html=0;fontStyle=0;labelBackgroundColor=none;" parent="G9EN5JWeJz_nwPtttZKu-131" vertex="1">
          <mxGeometry y="377" width="400" height="44" as="geometry" />
        </mxCell>
        <mxCell id="Vp7KOwkqIpcdfMKKaiIl-69" value="+ SetSpecialOffer(offer: &#xa;Dictionary&lt;VipLvl, Dictionary&lt;IOffer, ushort&gt;&gt;): void" style="text;align=left;verticalAlign=top;spacingLeft=4;spacingRight=4;overflow=hidden;rotatable=0;points=[[0,0.5],[1,0.5]];portConstraint=eastwest;rounded=0;shadow=0;html=0;fontStyle=0;labelBackgroundColor=none;" parent="G9EN5JWeJz_nwPtttZKu-131" vertex="1">
          <mxGeometry y="421" width="400" height="49" as="geometry" />
        </mxCell>
        <mxCell id="Vp7KOwkqIpcdfMKKaiIl-68" value="+ SetAdditionalIngr(offer: &#xa;Dictionary&lt;Category, Dictionary&lt;IOffer, uint&gt;&gt;): void" style="text;align=left;verticalAlign=top;spacingLeft=4;spacingRight=4;overflow=hidden;rotatable=0;points=[[0,0.5],[1,0.5]];portConstraint=eastwest;rounded=0;shadow=0;html=0;fontStyle=0;labelBackgroundColor=none;" parent="G9EN5JWeJz_nwPtttZKu-131" vertex="1">
          <mxGeometry y="470" width="400" height="44" as="geometry" />
        </mxCell>
        <mxCell id="Vp7KOwkqIpcdfMKKaiIl-67" value="+ SetDish(offer: Dictionary&lt;IOffer, decimal&gt;): void" style="text;align=left;verticalAlign=top;spacingLeft=4;spacingRight=4;overflow=hidden;rotatable=0;points=[[0,0.5],[1,0.5]];portConstraint=eastwest;rounded=0;shadow=0;html=0;fontStyle=0;labelBackgroundColor=none;" parent="G9EN5JWeJz_nwPtttZKu-131" vertex="1">
          <mxGeometry y="514" width="400" height="26" as="geometry" />
        </mxCell>
        <mxCell id="yTDWApdTZO0DoRyl30tC-42" value="" style="endArrow=block;dashed=1;endFill=0;endSize=12;html=1;rounded=0;exitX=0.5;exitY=0;exitDx=0;exitDy=0;labelBackgroundColor=none;fontColor=default;" parent="1" source="G9EN5JWeJz_nwPtttZKu-89" target="G9EN5JWeJz_nwPtttZKu-1" edge="1">
          <mxGeometry width="160" relative="1" as="geometry">
            <mxPoint x="1690" y="-250" as="sourcePoint" />
            <mxPoint x="1870" y="-790" as="targetPoint" />
            <Array as="points" />
          </mxGeometry>
        </mxCell>
        <mxCell id="yTDWApdTZO0DoRyl30tC-49" value="" style="endArrow=block;dashed=1;endFill=0;endSize=12;html=1;rounded=0;exitX=0.5;exitY=0;exitDx=0;exitDy=0;entryX=0.78;entryY=1.085;entryDx=0;entryDy=0;labelBackgroundColor=none;fontColor=default;entryPerimeter=0;" parent="1" source="yTDWApdTZO0DoRyl30tC-43" target="8i7Lr49_zQPxc0uf3AC--69" edge="1">
          <mxGeometry width="160" relative="1" as="geometry">
            <mxPoint x="1884.5" y="-650" as="sourcePoint" />
            <mxPoint x="1998.999999999999" y="-854" as="targetPoint" />
            <Array as="points" />
          </mxGeometry>
        </mxCell>
        <mxCell id="yTDWApdTZO0DoRyl30tC-50" value="Customer" style="swimlane;fontStyle=0;align=center;verticalAlign=top;childLayout=stackLayout;horizontal=1;startSize=30;horizontalStack=0;resizeParent=1;resizeLast=0;collapsible=1;marginBottom=0;rounded=0;shadow=0;strokeWidth=1;labelBackgroundColor=none;" parent="1" vertex="1">
          <mxGeometry x="-1722" y="-1241" width="270" height="220" as="geometry">
            <mxRectangle x="130" y="380" width="160" height="26" as="alternateBounds" />
          </mxGeometry>
        </mxCell>
        <mxCell id="yTDWApdTZO0DoRyl30tC-51" value="- _money: Wallet" style="text;align=left;verticalAlign=top;spacingLeft=4;spacingRight=4;overflow=hidden;rotatable=0;points=[[0,0.5],[1,0.5]];portConstraint=eastwest;rounded=0;shadow=0;html=0;labelBackgroundColor=none;" parent="yTDWApdTZO0DoRyl30tC-50" vertex="1">
          <mxGeometry y="30" width="270" height="26" as="geometry" />
        </mxCell>
        <mxCell id="yTDWApdTZO0DoRyl30tC-56" value="- _order: Order?" style="text;align=left;verticalAlign=top;spacingLeft=4;spacingRight=4;overflow=hidden;rotatable=0;points=[[0,0.5],[1,0.5]];portConstraint=eastwest;rounded=0;shadow=0;html=0;labelBackgroundColor=none;" parent="yTDWApdTZO0DoRyl30tC-50" vertex="1">
          <mxGeometry y="56" width="270" height="26" as="geometry" />
        </mxCell>
        <mxCell id="Vp7KOwkqIpcdfMKKaiIl-2" value="- _id: Guid" style="text;align=left;verticalAlign=top;spacingLeft=4;spacingRight=4;overflow=hidden;rotatable=0;points=[[0,0.5],[1,0.5]];portConstraint=eastwest;rounded=0;shadow=0;html=0;labelBackgroundColor=none;" parent="yTDWApdTZO0DoRyl30tC-50" vertex="1">
          <mxGeometry y="82" width="270" height="26" as="geometry" />
        </mxCell>
        <mxCell id="Vp7KOwkqIpcdfMKKaiIl-1" value="+ &lt;&lt;get&gt;&gt; Id: Guid" style="text;align=left;verticalAlign=top;spacingLeft=4;spacingRight=4;overflow=hidden;rotatable=0;points=[[0,0.5],[1,0.5]];portConstraint=eastwest;rounded=0;shadow=0;html=0;labelBackgroundColor=none;" parent="yTDWApdTZO0DoRyl30tC-50" vertex="1">
          <mxGeometry y="108" width="270" height="26" as="geometry" />
        </mxCell>
        <mxCell id="Vp7KOwkqIpcdfMKKaiIl-92" value="- _vipStatus: HashSet&lt;VipLvl&gt;" style="text;align=left;verticalAlign=top;spacingLeft=4;spacingRight=4;overflow=hidden;rotatable=0;points=[[0,0.5],[1,0.5]];portConstraint=eastwest;rounded=0;shadow=0;html=0;labelBackgroundColor=none;" parent="yTDWApdTZO0DoRyl30tC-50" vertex="1">
          <mxGeometry y="134" width="270" height="26" as="geometry" />
        </mxCell>
        <mxCell id="yTDWApdTZO0DoRyl30tC-54" value="" style="line;html=1;strokeWidth=1;align=left;verticalAlign=middle;spacingTop=-1;spacingLeft=3;spacingRight=3;rotatable=0;labelPosition=right;points=[];portConstraint=eastwest;labelBackgroundColor=none;" parent="yTDWApdTZO0DoRyl30tC-50" vertex="1">
          <mxGeometry y="160" width="270" height="8" as="geometry" />
        </mxCell>
        <mxCell id="yTDWApdTZO0DoRyl30tC-55" value="+ MakeOrder(cr: ICashRegister): void " style="text;align=left;verticalAlign=top;spacingLeft=4;spacingRight=4;overflow=hidden;rotatable=0;points=[[0,0.5],[1,0.5]];portConstraint=eastwest;rounded=0;shadow=0;html=0;labelBackgroundColor=none;" parent="yTDWApdTZO0DoRyl30tC-50" vertex="1">
          <mxGeometry y="168" width="270" height="26" as="geometry" />
        </mxCell>
        <mxCell id="Vp7KOwkqIpcdfMKKaiIl-5" value="- GenerateOrder(menu: IMenu): Order" style="text;align=left;verticalAlign=top;spacingLeft=4;spacingRight=4;overflow=hidden;rotatable=0;points=[[0,0.5],[1,0.5]];portConstraint=eastwest;rounded=0;shadow=0;html=0;labelBackgroundColor=none;" parent="yTDWApdTZO0DoRyl30tC-50" vertex="1">
          <mxGeometry y="194" width="270" height="26" as="geometry" />
        </mxCell>
        <mxCell id="Vp7KOwkqIpcdfMKKaiIl-52" value="&lt;&lt;interface&gt;&gt; &#xa;IMenu&#xa;" style="swimlane;fontStyle=1;align=center;verticalAlign=top;childLayout=stackLayout;horizontal=1;startSize=40;horizontalStack=0;resizeParent=1;resizeParentMax=0;resizeLast=0;collapsible=1;marginBottom=0;labelBackgroundColor=none;" parent="1" vertex="1">
          <mxGeometry x="850" y="-939" width="390" height="149" as="geometry" />
        </mxCell>
        <mxCell id="Vp7KOwkqIpcdfMKKaiIl-54" value="+ &lt;&lt;get&gt;&gt; Dishes: Dictionary&lt;IOffer, decimal&gt;&#xa;" style="text;strokeColor=none;fillColor=none;align=left;verticalAlign=top;spacingLeft=4;spacingRight=4;overflow=hidden;rotatable=0;points=[[0,0.5],[1,0.5]];portConstraint=eastwest;labelBackgroundColor=none;" parent="Vp7KOwkqIpcdfMKKaiIl-52" vertex="1">
          <mxGeometry y="40" width="390" height="32" as="geometry" />
        </mxCell>
        <mxCell id="Vp7KOwkqIpcdfMKKaiIl-55" value="+ &lt;&lt;get&gt;&gt; AdditionalIngredients: &#xa;Dictionary&lt;Category, Dictionary&lt;IOffer, HashSet&lt;Ingredient&gt;&gt;&gt;" style="text;strokeColor=none;fillColor=none;align=left;verticalAlign=top;spacingLeft=4;spacingRight=4;overflow=hidden;rotatable=0;points=[[0,0.5],[1,0.5]];portConstraint=eastwest;labelBackgroundColor=none;" parent="Vp7KOwkqIpcdfMKKaiIl-52" vertex="1">
          <mxGeometry y="72" width="390" height="45" as="geometry" />
        </mxCell>
        <mxCell id="Vp7KOwkqIpcdfMKKaiIl-59" value="+ &lt;&lt;get&gt;&gt; SpecialOffer: Dictionary&lt;VipLvl, Dictionary&lt;IOffer, ushort&gt;&gt;" style="text;strokeColor=none;fillColor=none;align=left;verticalAlign=top;spacingLeft=4;spacingRight=4;overflow=hidden;rotatable=0;points=[[0,0.5],[1,0.5]];portConstraint=eastwest;labelBackgroundColor=none;" parent="Vp7KOwkqIpcdfMKKaiIl-52" vertex="1">
          <mxGeometry y="117" width="390" height="32" as="geometry" />
        </mxCell>
        <mxCell id="Vp7KOwkqIpcdfMKKaiIl-57" value="" style="endArrow=block;dashed=1;endFill=0;endSize=12;html=1;rounded=0;exitX=0.5;exitY=0;exitDx=0;exitDy=0;labelBackgroundColor=none;fontColor=default;" parent="1" source="G9EN5JWeJz_nwPtttZKu-131" target="Vp7KOwkqIpcdfMKKaiIl-52" edge="1">
          <mxGeometry width="160" relative="1" as="geometry">
            <mxPoint x="1885" y="-650" as="sourcePoint" />
            <mxPoint x="1821" y="-676" as="targetPoint" />
            <Array as="points" />
          </mxGeometry>
        </mxCell>
        <mxCell id="Vp7KOwkqIpcdfMKKaiIl-76" value="Admin" style="swimlane;fontStyle=0;align=center;verticalAlign=top;childLayout=stackLayout;horizontal=1;startSize=30;horizontalStack=0;resizeParent=1;resizeLast=0;collapsible=1;marginBottom=0;rounded=0;shadow=0;strokeWidth=1;labelBackgroundColor=none;" parent="1" vertex="1">
          <mxGeometry x="-1450" y="-380.00000000000006" width="340" height="294" as="geometry">
            <mxRectangle x="130" y="380" width="160" height="26" as="alternateBounds" />
          </mxGeometry>
        </mxCell>
        <mxCell id="Vp7KOwkqIpcdfMKKaiIl-77" value="- _pizzeriaData: PizzeriaData" style="text;align=left;verticalAlign=top;spacingLeft=4;spacingRight=4;overflow=hidden;rotatable=0;points=[[0,0.5],[1,0.5]];portConstraint=eastwest;rounded=0;shadow=0;html=0;labelBackgroundColor=none;" parent="Vp7KOwkqIpcdfMKKaiIl-76" vertex="1">
          <mxGeometry y="30" width="340" height="26" as="geometry" />
        </mxCell>
        <mxCell id="Vp7KOwkqIpcdfMKKaiIl-78" value="" style="line;html=1;strokeWidth=1;align=left;verticalAlign=middle;spacingTop=-1;spacingLeft=3;spacingRight=3;rotatable=0;labelPosition=right;points=[];portConstraint=eastwest;labelBackgroundColor=none;" parent="Vp7KOwkqIpcdfMKKaiIl-76" vertex="1">
          <mxGeometry y="56" width="340" height="8" as="geometry" />
        </mxCell>
        <mxCell id="Vp7KOwkqIpcdfMKKaiIl-79" value="+ GetStaffInfo(staff: IStaff): void" style="text;align=left;verticalAlign=top;spacingLeft=4;spacingRight=4;overflow=hidden;rotatable=0;points=[[0,0.5],[1,0.5]];portConstraint=eastwest;rounded=0;shadow=0;html=0;fontStyle=0;labelBackgroundColor=none;" parent="Vp7KOwkqIpcdfMKKaiIl-76" vertex="1">
          <mxGeometry y="64" width="340" height="26" as="geometry" />
        </mxCell>
        <mxCell id="Vp7KOwkqIpcdfMKKaiIl-105" value="+ SetVipStatus(customer: Customer, &#xa;status: HashSet&lt;VipLvl&gt;): void" style="text;align=left;verticalAlign=top;spacingLeft=4;spacingRight=4;overflow=hidden;rotatable=0;points=[[0,0.5],[1,0.5]];portConstraint=eastwest;rounded=0;shadow=0;html=0;fontStyle=0;labelBackgroundColor=none;" parent="Vp7KOwkqIpcdfMKKaiIl-76" vertex="1">
          <mxGeometry y="90" width="340" height="48" as="geometry" />
        </mxCell>
        <mxCell id="Vp7KOwkqIpcdfMKKaiIl-106" value="+ AddStaff(staff: IStaff): void" style="text;align=left;verticalAlign=top;spacingLeft=4;spacingRight=4;overflow=hidden;rotatable=0;points=[[0,0.5],[1,0.5]];portConstraint=eastwest;rounded=0;shadow=0;html=0;fontStyle=0;labelBackgroundColor=none;" parent="Vp7KOwkqIpcdfMKKaiIl-76" vertex="1">
          <mxGeometry y="138" width="340" height="26" as="geometry" />
        </mxCell>
        <mxCell id="Vp7KOwkqIpcdfMKKaiIl-107" value="+ RemoveStaff(staff: IStaff): void" style="text;align=left;verticalAlign=top;spacingLeft=4;spacingRight=4;overflow=hidden;rotatable=0;points=[[0,0.5],[1,0.5]];portConstraint=eastwest;rounded=0;shadow=0;html=0;fontStyle=0;labelBackgroundColor=none;" parent="Vp7KOwkqIpcdfMKKaiIl-76" vertex="1">
          <mxGeometry y="164" width="340" height="26" as="geometry" />
        </mxCell>
        <mxCell id="Vp7KOwkqIpcdfMKKaiIl-108" value="+ SetManager(name: string): void" style="text;align=left;verticalAlign=top;spacingLeft=4;spacingRight=4;overflow=hidden;rotatable=0;points=[[0,0.5],[1,0.5]];portConstraint=eastwest;rounded=0;shadow=0;html=0;fontStyle=0;labelBackgroundColor=none;" parent="Vp7KOwkqIpcdfMKKaiIl-76" vertex="1">
          <mxGeometry y="190" width="340" height="26" as="geometry" />
        </mxCell>
        <mxCell id="ViWVULLcjfLXoIwgi1Q9-1" value="+ AddICashRegister(cashRegister: ICashRegister): void" style="text;align=left;verticalAlign=top;spacingLeft=4;spacingRight=4;overflow=hidden;rotatable=0;points=[[0,0.5],[1,0.5]];portConstraint=eastwest;rounded=0;shadow=0;html=0;fontStyle=0;labelBackgroundColor=none;" parent="Vp7KOwkqIpcdfMKKaiIl-76" vertex="1">
          <mxGeometry y="216" width="340" height="26" as="geometry" />
        </mxCell>
        <mxCell id="ViWVULLcjfLXoIwgi1Q9-2" value="+ RemoveICashRegister(cashRegister: ICashRegister): void" style="text;align=left;verticalAlign=top;spacingLeft=4;spacingRight=4;overflow=hidden;rotatable=0;points=[[0,0.5],[1,0.5]];portConstraint=eastwest;rounded=0;shadow=0;html=0;fontStyle=0;labelBackgroundColor=none;" parent="Vp7KOwkqIpcdfMKKaiIl-76" vertex="1">
          <mxGeometry y="242" width="340" height="26" as="geometry" />
        </mxCell>
        <mxCell id="Vp7KOwkqIpcdfMKKaiIl-85" value="" style="endArrow=block;dashed=1;endFill=0;endSize=12;html=1;rounded=0;labelBackgroundColor=none;fontColor=default;exitX=0.75;exitY=0;exitDx=0;exitDy=0;" parent="1" source="G9EN5JWeJz_nwPtttZKu-99" target="Vp7KOwkqIpcdfMKKaiIl-80" edge="1">
          <mxGeometry width="160" relative="1" as="geometry">
            <mxPoint x="-590" y="-745" as="sourcePoint" />
            <mxPoint x="-581" y="-774" as="targetPoint" />
            <Array as="points" />
          </mxGeometry>
        </mxCell>
        <mxCell id="Vp7KOwkqIpcdfMKKaiIl-86" value="" style="endArrow=block;dashed=1;endFill=0;endSize=12;html=1;rounded=0;labelBackgroundColor=none;fontColor=default;" parent="1" source="G9EN5JWeJz_nwPtttZKu-110" target="Vp7KOwkqIpcdfMKKaiIl-80" edge="1">
          <mxGeometry width="160" relative="1" as="geometry">
            <mxPoint x="1680" y="261" as="sourcePoint" />
            <mxPoint x="1736" y="172" as="targetPoint" />
            <Array as="points" />
          </mxGeometry>
        </mxCell>
        <mxCell id="Vp7KOwkqIpcdfMKKaiIl-87" value="" style="endArrow=block;dashed=1;endFill=0;endSize=12;html=1;rounded=0;labelBackgroundColor=none;fontColor=default;" parent="1" source="G9EN5JWeJz_nwPtttZKu-118" target="Vp7KOwkqIpcdfMKKaiIl-80" edge="1">
          <mxGeometry width="160" relative="1" as="geometry">
            <mxPoint x="74" y="-580" as="sourcePoint" />
            <mxPoint x="11" y="-669" as="targetPoint" />
            <Array as="points" />
          </mxGeometry>
        </mxCell>
        <mxCell id="Vp7KOwkqIpcdfMKKaiIl-89" value="" style="endArrow=block;dashed=1;endFill=0;endSize=12;html=1;rounded=0;labelBackgroundColor=none;fontColor=default;" parent="1" source="Vp7KOwkqIpcdfMKKaiIl-21" target="Vp7KOwkqIpcdfMKKaiIl-80" edge="1">
          <mxGeometry width="160" relative="1" as="geometry">
            <mxPoint x="-61" y="-401" as="sourcePoint" />
            <mxPoint x="94" y="-669" as="targetPoint" />
            <Array as="points" />
          </mxGeometry>
        </mxCell>
        <mxCell id="Vp7KOwkqIpcdfMKKaiIl-93" value="LoyaltyProgram" style="swimlane;fontStyle=0;align=center;verticalAlign=top;childLayout=stackLayout;horizontal=1;startSize=30;horizontalStack=0;resizeParent=1;resizeLast=0;collapsible=1;marginBottom=0;rounded=0;shadow=0;strokeWidth=1;labelBackgroundColor=none;" parent="1" vertex="1">
          <mxGeometry x="-2071" y="-1241" width="320" height="220" as="geometry">
            <mxRectangle x="130" y="380" width="160" height="26" as="alternateBounds" />
          </mxGeometry>
        </mxCell>
        <mxCell id="Vp7KOwkqIpcdfMKKaiIl-94" value="- _customers: Dictionary&lt;Customer, HashSet&lt;VipLvlv&gt;&gt;" style="text;align=left;verticalAlign=top;spacingLeft=4;spacingRight=4;overflow=hidden;rotatable=0;points=[[0,0.5],[1,0.5]];portConstraint=eastwest;rounded=0;shadow=0;html=0;labelBackgroundColor=none;" parent="Vp7KOwkqIpcdfMKKaiIl-93" vertex="1">
          <mxGeometry y="30" width="320" height="26" as="geometry" />
        </mxCell>
        <mxCell id="Vp7KOwkqIpcdfMKKaiIl-97" value="+ &lt;&lt;get&gt;&gt; Customers: &#xa;Dictionary&lt;Customer, HashSet&lt;VipLvlv&gt;&gt;" style="text;align=left;verticalAlign=top;spacingLeft=4;spacingRight=4;overflow=hidden;rotatable=0;points=[[0,0.5],[1,0.5]];portConstraint=eastwest;rounded=0;shadow=0;html=0;labelBackgroundColor=none;" parent="Vp7KOwkqIpcdfMKKaiIl-93" vertex="1">
          <mxGeometry y="56" width="320" height="44" as="geometry" />
        </mxCell>
        <mxCell id="Vp7KOwkqIpcdfMKKaiIl-98" value="- _vipStatus: HashSet&lt;VipLvl&gt;" style="text;align=left;verticalAlign=top;spacingLeft=4;spacingRight=4;overflow=hidden;rotatable=0;points=[[0,0.5],[1,0.5]];portConstraint=eastwest;rounded=0;shadow=0;html=0;labelBackgroundColor=none;" parent="Vp7KOwkqIpcdfMKKaiIl-93" vertex="1">
          <mxGeometry y="100" width="320" height="26" as="geometry" />
        </mxCell>
        <mxCell id="Vp7KOwkqIpcdfMKKaiIl-99" value="" style="line;html=1;strokeWidth=1;align=left;verticalAlign=middle;spacingTop=-1;spacingLeft=3;spacingRight=3;rotatable=0;labelPosition=right;points=[];portConstraint=eastwest;labelBackgroundColor=none;" parent="Vp7KOwkqIpcdfMKKaiIl-93" vertex="1">
          <mxGeometry y="126" width="320" height="8" as="geometry" />
        </mxCell>
        <mxCell id="Vp7KOwkqIpcdfMKKaiIl-100" value="+ AddCostumer(customer: Customer)" style="text;align=left;verticalAlign=top;spacingLeft=4;spacingRight=4;overflow=hidden;rotatable=0;points=[[0,0.5],[1,0.5]];portConstraint=eastwest;rounded=0;shadow=0;html=0;labelBackgroundColor=none;" parent="Vp7KOwkqIpcdfMKKaiIl-93" vertex="1">
          <mxGeometry y="134" width="320" height="26" as="geometry" />
        </mxCell>
        <mxCell id="Vp7KOwkqIpcdfMKKaiIl-101" value="+ SetCusttomerStatus(cust: Customer, &#xa;status: HashSet&lt;VipLvl&gt;): void" style="text;align=left;verticalAlign=top;spacingLeft=4;spacingRight=4;overflow=hidden;rotatable=0;points=[[0,0.5],[1,0.5]];portConstraint=eastwest;rounded=0;shadow=0;html=0;labelBackgroundColor=none;" parent="Vp7KOwkqIpcdfMKKaiIl-93" vertex="1">
          <mxGeometry y="160" width="320" height="40" as="geometry" />
        </mxCell>
        <mxCell id="Vp7KOwkqIpcdfMKKaiIl-127" value="CustomerGenerator" style="swimlane;fontStyle=0;align=center;verticalAlign=top;childLayout=stackLayout;horizontal=1;startSize=30;horizontalStack=0;resizeParent=1;resizeLast=0;collapsible=1;marginBottom=0;rounded=0;shadow=0;strokeWidth=1;labelBackgroundColor=none;" parent="1" vertex="1">
          <mxGeometry x="-1770" y="171.99999999999994" width="270" height="120" as="geometry">
            <mxRectangle x="130" y="380" width="160" height="26" as="alternateBounds" />
          </mxGeometry>
        </mxCell>
        <mxCell id="Vp7KOwkqIpcdfMKKaiIl-128" value="- _customerCount: uint" style="text;align=left;verticalAlign=top;spacingLeft=4;spacingRight=4;overflow=hidden;rotatable=0;points=[[0,0.5],[1,0.5]];portConstraint=eastwest;rounded=0;shadow=0;html=0;labelBackgroundColor=none;" parent="Vp7KOwkqIpcdfMKKaiIl-127" vertex="1">
          <mxGeometry y="30" width="270" height="26" as="geometry" />
        </mxCell>
        <mxCell id="Vp7KOwkqIpcdfMKKaiIl-129" value="- _intervals: List&lt;uint&gt;" style="text;align=left;verticalAlign=top;spacingLeft=4;spacingRight=4;overflow=hidden;rotatable=0;points=[[0,0.5],[1,0.5]];portConstraint=eastwest;rounded=0;shadow=0;html=0;labelBackgroundColor=none;" parent="Vp7KOwkqIpcdfMKKaiIl-127" vertex="1">
          <mxGeometry y="56" width="270" height="26" as="geometry" />
        </mxCell>
        <mxCell id="Vp7KOwkqIpcdfMKKaiIl-130" value="" style="line;html=1;strokeWidth=1;align=left;verticalAlign=middle;spacingTop=-1;spacingLeft=3;spacingRight=3;rotatable=0;labelPosition=right;points=[];portConstraint=eastwest;labelBackgroundColor=none;" parent="Vp7KOwkqIpcdfMKKaiIl-127" vertex="1">
          <mxGeometry y="82" width="270" height="8" as="geometry" />
        </mxCell>
        <mxCell id="Vp7KOwkqIpcdfMKKaiIl-131" value="+ GenerateVisitors(): List&lt;Customer&gt;" style="text;align=left;verticalAlign=top;spacingLeft=4;spacingRight=4;overflow=hidden;rotatable=0;points=[[0,0.5],[1,0.5]];portConstraint=eastwest;rounded=0;shadow=0;html=0;fontStyle=0;labelBackgroundColor=none;" parent="Vp7KOwkqIpcdfMKKaiIl-127" vertex="1">
          <mxGeometry y="90" width="270" height="26" as="geometry" />
        </mxCell>
        <mxCell id="Vp7KOwkqIpcdfMKKaiIl-132" value="Simulator" style="swimlane;fontStyle=0;align=center;verticalAlign=top;childLayout=stackLayout;horizontal=1;startSize=30;horizontalStack=0;resizeParent=1;resizeLast=0;collapsible=1;marginBottom=0;rounded=0;shadow=0;strokeWidth=1;labelBackgroundColor=none;" parent="1" vertex="1">
          <mxGeometry x="-1770" y="-162.00000000000006" width="270" height="298" as="geometry">
            <mxRectangle x="130" y="380" width="160" height="26" as="alternateBounds" />
          </mxGeometry>
        </mxCell>
        <mxCell id="Vp7KOwkqIpcdfMKKaiIl-133" value="- _customerGenerator: CustomerGenerator" style="text;align=left;verticalAlign=top;spacingLeft=4;spacingRight=4;overflow=hidden;rotatable=0;points=[[0,0.5],[1,0.5]];portConstraint=eastwest;rounded=0;shadow=0;html=0;labelBackgroundColor=none;" parent="Vp7KOwkqIpcdfMKKaiIl-132" vertex="1">
          <mxGeometry y="30" width="270" height="26" as="geometry" />
        </mxCell>
        <mxCell id="Vp7KOwkqIpcdfMKKaiIl-134" value="- _customers: List&lt;Customer&gt;" style="text;align=left;verticalAlign=top;spacingLeft=4;spacingRight=4;overflow=hidden;rotatable=0;points=[[0,0.5],[1,0.5]];portConstraint=eastwest;rounded=0;shadow=0;html=0;labelBackgroundColor=none;" parent="Vp7KOwkqIpcdfMKKaiIl-132" vertex="1">
          <mxGeometry y="56" width="270" height="26" as="geometry" />
        </mxCell>
        <mxCell id="Vp7KOwkqIpcdfMKKaiIl-135" value="- _pizzeria: Pizzeria" style="text;align=left;verticalAlign=top;spacingLeft=4;spacingRight=4;overflow=hidden;rotatable=0;points=[[0,0.5],[1,0.5]];portConstraint=eastwest;rounded=0;shadow=0;html=0;labelBackgroundColor=none;" parent="Vp7KOwkqIpcdfMKKaiIl-132" vertex="1">
          <mxGeometry y="82" width="270" height="26" as="geometry" />
        </mxCell>
        <mxCell id="8i7Lr49_zQPxc0uf3AC--161" value="- _visualization: IVisualization" style="text;align=left;verticalAlign=top;spacingLeft=4;spacingRight=4;overflow=hidden;rotatable=0;points=[[0,0.5],[1,0.5]];portConstraint=eastwest;rounded=0;shadow=0;html=0;" parent="Vp7KOwkqIpcdfMKKaiIl-132" vertex="1">
          <mxGeometry y="108" width="270" height="26" as="geometry" />
        </mxCell>
        <mxCell id="8i7Lr49_zQPxc0uf3AC--65" value="+ &lt;&lt;event&gt;&gt;OnChanged: Action" style="text;align=left;verticalAlign=top;spacingLeft=4;spacingRight=4;overflow=hidden;rotatable=0;points=[[0,0.5],[1,0.5]];portConstraint=eastwest;rounded=0;shadow=0;html=0;" parent="Vp7KOwkqIpcdfMKKaiIl-132" vertex="1">
          <mxGeometry y="134" width="270" height="26" as="geometry" />
        </mxCell>
        <mxCell id="Vp7KOwkqIpcdfMKKaiIl-136" value="" style="line;html=1;strokeWidth=1;align=left;verticalAlign=middle;spacingTop=-1;spacingLeft=3;spacingRight=3;rotatable=0;labelPosition=right;points=[];portConstraint=eastwest;labelBackgroundColor=none;" parent="Vp7KOwkqIpcdfMKKaiIl-132" vertex="1">
          <mxGeometry y="160" width="270" height="8" as="geometry" />
        </mxCell>
        <mxCell id="Vp7KOwkqIpcdfMKKaiIl-137" value="+ StartSimulation(): void" style="text;align=left;verticalAlign=top;spacingLeft=4;spacingRight=4;overflow=hidden;rotatable=0;points=[[0,0.5],[1,0.5]];portConstraint=eastwest;rounded=0;shadow=0;html=0;fontStyle=0;labelBackgroundColor=none;" parent="Vp7KOwkqIpcdfMKKaiIl-132" vertex="1">
          <mxGeometry y="168" width="270" height="26" as="geometry" />
        </mxCell>
        <mxCell id="Vp7KOwkqIpcdfMKKaiIl-138" value="+ StopSimulation(): void" style="text;align=left;verticalAlign=top;spacingLeft=4;spacingRight=4;overflow=hidden;rotatable=0;points=[[0,0.5],[1,0.5]];portConstraint=eastwest;rounded=0;shadow=0;html=0;fontStyle=0;labelBackgroundColor=none;" parent="Vp7KOwkqIpcdfMKKaiIl-132" vertex="1">
          <mxGeometry y="194" width="270" height="26" as="geometry" />
        </mxCell>
        <mxCell id="ViWVULLcjfLXoIwgi1Q9-14" value="+ SetCustomerGenerator(&#xa;custCount: uint, intervals: List&lt;uint&gt;): void" style="text;align=left;verticalAlign=top;spacingLeft=4;spacingRight=4;overflow=hidden;rotatable=0;points=[[0,0.5],[1,0.5]];portConstraint=eastwest;rounded=0;shadow=0;html=0;fontStyle=0;labelBackgroundColor=none;" parent="Vp7KOwkqIpcdfMKKaiIl-132" vertex="1">
          <mxGeometry y="220" width="270" height="40" as="geometry" />
        </mxCell>
        <mxCell id="8i7Lr49_zQPxc0uf3AC--62" value="+ OnSystemChanged(): void" style="text;align=left;verticalAlign=top;spacingLeft=4;spacingRight=4;overflow=hidden;rotatable=0;points=[[0,0.5],[1,0.5]];portConstraint=eastwest;rounded=0;shadow=0;html=0;fontStyle=0;labelBackgroundColor=none;" parent="Vp7KOwkqIpcdfMKKaiIl-132" vertex="1">
          <mxGeometry y="260" width="270" height="26" as="geometry" />
        </mxCell>
        <mxCell id="Vp7KOwkqIpcdfMKKaiIl-140" value="Pizzeria" style="swimlane;fontStyle=0;align=center;verticalAlign=top;childLayout=stackLayout;horizontal=1;startSize=30;horizontalStack=0;resizeParent=1;resizeLast=0;collapsible=1;marginBottom=0;rounded=0;shadow=0;strokeWidth=1;labelBackgroundColor=none;" parent="1" vertex="1">
          <mxGeometry x="-1790" y="-365.00000000000006" width="290" height="120" as="geometry">
            <mxRectangle x="130" y="380" width="160" height="26" as="alternateBounds" />
          </mxGeometry>
        </mxCell>
        <mxCell id="Vp7KOwkqIpcdfMKKaiIl-141" value="- _pizzeriaData: PizzeriaData" style="text;align=left;verticalAlign=top;spacingLeft=4;spacingRight=4;overflow=hidden;rotatable=0;points=[[0,0.5],[1,0.5]];portConstraint=eastwest;rounded=0;shadow=0;html=0;labelBackgroundColor=none;" parent="Vp7KOwkqIpcdfMKKaiIl-140" vertex="1">
          <mxGeometry y="30" width="290" height="26" as="geometry" />
        </mxCell>
        <mxCell id="Vp7KOwkqIpcdfMKKaiIl-142" value="- _admin: Admin" style="text;align=left;verticalAlign=top;spacingLeft=4;spacingRight=4;overflow=hidden;rotatable=0;points=[[0,0.5],[1,0.5]];portConstraint=eastwest;rounded=0;shadow=0;html=0;labelBackgroundColor=none;" parent="Vp7KOwkqIpcdfMKKaiIl-140" vertex="1">
          <mxGeometry y="56" width="290" height="26" as="geometry" />
        </mxCell>
        <mxCell id="Vp7KOwkqIpcdfMKKaiIl-146" value="+ &lt;&lt;get&gt;&gt; CashRegs: IEnumerable&lt;ICashRegister&gt;" style="text;align=left;verticalAlign=top;spacingLeft=4;spacingRight=4;overflow=hidden;rotatable=0;points=[[0,0.5],[1,0.5]];portConstraint=eastwest;rounded=0;shadow=0;html=0;labelBackgroundColor=none;" parent="Vp7KOwkqIpcdfMKKaiIl-140" vertex="1">
          <mxGeometry y="82" width="290" height="26" as="geometry" />
        </mxCell>
        <mxCell id="Vp7KOwkqIpcdfMKKaiIl-143" value="" style="line;html=1;strokeWidth=1;align=left;verticalAlign=middle;spacingTop=-1;spacingLeft=3;spacingRight=3;rotatable=0;labelPosition=right;points=[];portConstraint=eastwest;labelBackgroundColor=none;" parent="Vp7KOwkqIpcdfMKKaiIl-140" vertex="1">
          <mxGeometry y="108" width="290" height="8" as="geometry" />
        </mxCell>
        <mxCell id="ViWVULLcjfLXoIwgi1Q9-9" value="" style="endArrow=diamondThin;endFill=1;endSize=24;html=1;rounded=0;labelBackgroundColor=none;fontColor=default;edgeStyle=orthogonalEdgeStyle;" parent="1" source="G9EN5JWeJz_nwPtttZKu-131" target="Vp7KOwkqIpcdfMKKaiIl-110" edge="1">
          <mxGeometry width="160" relative="1" as="geometry">
            <mxPoint x="430" y="480" as="sourcePoint" />
            <mxPoint x="590" y="480" as="targetPoint" />
            <Array as="points">
              <mxPoint x="-260" y="-419" />
              <mxPoint x="-260" y="-130" />
            </Array>
          </mxGeometry>
        </mxCell>
        <mxCell id="ViWVULLcjfLXoIwgi1Q9-10" value="" style="endArrow=diamondThin;endFill=1;endSize=24;html=1;rounded=0;labelBackgroundColor=none;fontColor=default;entryX=0.5;entryY=0;entryDx=0;entryDy=0;edgeStyle=orthogonalEdgeStyle;exitX=0.5;exitY=0;exitDx=0;exitDy=0;startSize=12;" parent="1" source="Vp7KOwkqIpcdfMKKaiIl-110" target="Vp7KOwkqIpcdfMKKaiIl-140" edge="1">
          <mxGeometry width="160" relative="1" as="geometry">
            <mxPoint x="-1600" y="-452.00000000000006" as="sourcePoint" />
            <mxPoint x="-1440" y="-452.00000000000006" as="targetPoint" />
            <Array as="points">
              <mxPoint x="-860" y="-368" />
              <mxPoint x="-860" y="-430" />
              <mxPoint x="-1645" y="-430" />
            </Array>
          </mxGeometry>
        </mxCell>
        <mxCell id="ViWVULLcjfLXoIwgi1Q9-13" value="" style="endArrow=diamondThin;endFill=1;endSize=24;html=1;rounded=0;labelBackgroundColor=none;fontColor=default;" parent="1" source="Vp7KOwkqIpcdfMKKaiIl-127" target="Vp7KOwkqIpcdfMKKaiIl-132" edge="1">
          <mxGeometry width="160" relative="1" as="geometry">
            <mxPoint x="-1840" y="-42.00000000000006" as="sourcePoint" />
            <mxPoint x="-1680" y="-42.00000000000006" as="targetPoint" />
          </mxGeometry>
        </mxCell>
        <mxCell id="ViWVULLcjfLXoIwgi1Q9-15" value="" style="endArrow=diamondThin;endFill=1;endSize=24;html=1;rounded=0;labelBackgroundColor=none;fontColor=default;entryX=0.5;entryY=0;entryDx=0;entryDy=0;edgeStyle=orthogonalEdgeStyle;startArrow=open;startFill=0;startSize=12;exitX=0.25;exitY=0;exitDx=0;exitDy=0;" parent="1" source="Vp7KOwkqIpcdfMKKaiIl-76" target="Vp7KOwkqIpcdfMKKaiIl-140" edge="1">
          <mxGeometry width="160" relative="1" as="geometry">
            <mxPoint x="-1380" y="-380.00000000000006" as="sourcePoint" />
            <mxPoint x="-1760" y="-222.00000000000006" as="targetPoint" />
            <Array as="points">
              <mxPoint x="-1365" y="-430" />
              <mxPoint x="-1645" y="-430" />
            </Array>
          </mxGeometry>
        </mxCell>
        <mxCell id="ViWVULLcjfLXoIwgi1Q9-16" value="" style="endArrow=diamondThin;endFill=1;endSize=24;html=1;rounded=0;labelBackgroundColor=none;fontColor=default;" parent="1" source="Vp7KOwkqIpcdfMKKaiIl-140" target="Vp7KOwkqIpcdfMKKaiIl-132" edge="1">
          <mxGeometry width="160" relative="1" as="geometry">
            <mxPoint x="-1940" y="-232.00000000000006" as="sourcePoint" />
            <mxPoint x="-1780" y="-232.00000000000006" as="targetPoint" />
          </mxGeometry>
        </mxCell>
        <mxCell id="ViWVULLcjfLXoIwgi1Q9-21" value="" style="endArrow=open;endFill=1;endSize=12;html=1;rounded=0;labelBackgroundColor=none;fontColor=default;edgeStyle=orthogonalEdgeStyle;exitX=0.75;exitY=0;exitDx=0;exitDy=0;" parent="1" source="Vp7KOwkqIpcdfMKKaiIl-76" target="Vp7KOwkqIpcdfMKKaiIl-110" edge="1">
          <mxGeometry width="160" relative="1" as="geometry">
            <mxPoint x="-1420" y="-2.000000000000057" as="sourcePoint" />
            <mxPoint x="-1260" y="-2.000000000000057" as="targetPoint" />
            <Array as="points">
              <mxPoint x="-1200" y="-380" />
              <mxPoint x="-1200" y="-410" />
              <mxPoint x="-900" y="-410" />
            </Array>
          </mxGeometry>
        </mxCell>
        <mxCell id="ViWVULLcjfLXoIwgi1Q9-25" value="" style="endArrow=diamondThin;endFill=1;endSize=24;html=1;rounded=0;labelBackgroundColor=none;fontColor=default;edgeStyle=orthogonalEdgeStyle;" parent="1" source="Vp7KOwkqIpcdfMKKaiIl-93" target="Vp7KOwkqIpcdfMKKaiIl-110" edge="1">
          <mxGeometry width="160" relative="1" as="geometry">
            <mxPoint x="370" y="-220" as="sourcePoint" />
            <mxPoint x="-955" y="-370" as="targetPoint" />
            <Array as="points">
              <mxPoint x="-1970" y="-1280" />
              <mxPoint x="-2340" y="-1280" />
              <mxPoint x="-2340" y="-530" />
              <mxPoint x="-960" y="-530" />
            </Array>
          </mxGeometry>
        </mxCell>
        <mxCell id="ViWVULLcjfLXoIwgi1Q9-27" value="" style="endArrow=diamondThin;endFill=1;endSize=24;html=1;rounded=0;labelBackgroundColor=none;fontColor=default;edgeStyle=orthogonalEdgeStyle;" parent="1" source="Vp7KOwkqIpcdfMKKaiIl-21" target="Vp7KOwkqIpcdfMKKaiIl-110" edge="1">
          <mxGeometry width="160" relative="1" as="geometry">
            <mxPoint x="1510" y="600" as="sourcePoint" />
            <mxPoint x="-870" y="-340" as="targetPoint" />
            <Array as="points">
              <mxPoint x="-790" y="-530" />
              <mxPoint x="-960" y="-530" />
            </Array>
          </mxGeometry>
        </mxCell>
        <mxCell id="ViWVULLcjfLXoIwgi1Q9-29" value="&lt;&lt;interface&gt;&gt; &#xa;IPerson&#xa;" style="swimlane;fontStyle=1;align=center;verticalAlign=top;childLayout=stackLayout;horizontal=1;startSize=40;horizontalStack=0;resizeParent=1;resizeParentMax=0;resizeLast=0;collapsible=1;marginBottom=0;labelBackgroundColor=none;" parent="1" vertex="1">
          <mxGeometry x="-1300" y="-1241" width="240" height="112" as="geometry" />
        </mxCell>
        <mxCell id="ViWVULLcjfLXoIwgi1Q9-30" value="" style="line;strokeWidth=1;fillColor=none;align=left;verticalAlign=middle;spacingTop=-1;spacingLeft=3;spacingRight=3;rotatable=0;labelPosition=right;points=[];portConstraint=eastwest;labelBackgroundColor=none;" parent="ViWVULLcjfLXoIwgi1Q9-29" vertex="1">
          <mxGeometry y="40" width="240" height="8" as="geometry" />
        </mxCell>
        <mxCell id="ViWVULLcjfLXoIwgi1Q9-31" value="+ &lt;&lt;get&gt;&gt; Id: Guid" style="text;strokeColor=none;fillColor=none;align=left;verticalAlign=top;spacingLeft=4;spacingRight=4;overflow=hidden;rotatable=0;points=[[0,0.5],[1,0.5]];portConstraint=eastwest;labelBackgroundColor=none;" parent="ViWVULLcjfLXoIwgi1Q9-29" vertex="1">
          <mxGeometry y="48" width="240" height="32" as="geometry" />
        </mxCell>
        <mxCell id="ViWVULLcjfLXoIwgi1Q9-32" value="+ &lt;&lt;get&gt;&gt; Name: string" style="text;strokeColor=none;fillColor=none;align=left;verticalAlign=top;spacingLeft=4;spacingRight=4;overflow=hidden;rotatable=0;points=[[0,0.5],[1,0.5]];portConstraint=eastwest;labelBackgroundColor=none;" parent="ViWVULLcjfLXoIwgi1Q9-29" vertex="1">
          <mxGeometry y="80" width="240" height="32" as="geometry" />
        </mxCell>
        <mxCell id="ViWVULLcjfLXoIwgi1Q9-33" value="" style="endArrow=block;dashed=1;endFill=0;endSize=12;html=1;rounded=0;labelBackgroundColor=none;fontColor=default;exitX=0.75;exitY=0;exitDx=0;exitDy=0;entryX=0.5;entryY=0;entryDx=0;entryDy=0;edgeStyle=orthogonalEdgeStyle;" parent="1" source="yTDWApdTZO0DoRyl30tC-50" target="ViWVULLcjfLXoIwgi1Q9-29" edge="1">
          <mxGeometry width="160" relative="1" as="geometry">
            <mxPoint x="650" y="569" as="sourcePoint" />
            <mxPoint x="810" y="569" as="targetPoint" />
            <Array as="points">
              <mxPoint x="-1520" y="-1271" />
              <mxPoint x="-1180" y="-1271" />
            </Array>
          </mxGeometry>
        </mxCell>
        <mxCell id="ViWVULLcjfLXoIwgi1Q9-34" value="" style="endArrow=block;dashed=1;endFill=0;endSize=12;html=1;rounded=0;labelBackgroundColor=none;fontColor=default;" parent="1" source="Vp7KOwkqIpcdfMKKaiIl-80" target="ViWVULLcjfLXoIwgi1Q9-29" edge="1">
          <mxGeometry width="160" relative="1" as="geometry">
            <mxPoint x="483" y="619" as="sourcePoint" />
            <mxPoint x="700" y="479" as="targetPoint" />
          </mxGeometry>
        </mxCell>
        <mxCell id="ViWVULLcjfLXoIwgi1Q9-40" value="" style="endArrow=diamondThin;endFill=0;endSize=24;html=1;rounded=0;labelBackgroundColor=none;fontColor=default;startArrow=none;entryX=0.75;entryY=0;entryDx=0;entryDy=0;edgeStyle=orthogonalEdgeStyle;" parent="1" source="Vp7KOwkqIpcdfMKKaiIl-80" target="Vp7KOwkqIpcdfMKKaiIl-110" edge="1">
          <mxGeometry width="160" relative="1" as="geometry">
            <mxPoint x="530" y="190" as="sourcePoint" />
            <mxPoint x="690" y="190" as="targetPoint" />
            <Array as="points">
              <mxPoint x="-590" y="-1045" />
              <mxPoint x="-590" y="-440" />
              <mxPoint x="-785" y="-440" />
            </Array>
          </mxGeometry>
        </mxCell>
        <mxCell id="ViWVULLcjfLXoIwgi1Q9-41" value="CashRegister" style="html=1;whiteSpace=wrap;labelBackgroundColor=none;" parent="1" vertex="1">
          <mxGeometry x="186" y="-640" width="110" height="50" as="geometry" />
        </mxCell>
        <mxCell id="ViWVULLcjfLXoIwgi1Q9-42" value="" style="endArrow=block;dashed=1;endFill=0;endSize=12;html=1;rounded=0;labelBackgroundColor=none;fontColor=default;" parent="1" source="ViWVULLcjfLXoIwgi1Q9-41" target="G9EN5JWeJz_nwPtttZKu-5" edge="1">
          <mxGeometry width="160" relative="1" as="geometry">
            <mxPoint x="-404" y="-125" as="sourcePoint" />
            <mxPoint x="-244" y="-125" as="targetPoint" />
          </mxGeometry>
        </mxCell>
        <mxCell id="ViWVULLcjfLXoIwgi1Q9-47" value="Client" style="html=1;whiteSpace=wrap;labelBackgroundColor=none;" parent="1" vertex="1">
          <mxGeometry x="-2040" y="109.99999999999994" width="110" height="50" as="geometry" />
        </mxCell>
        <mxCell id="ViWVULLcjfLXoIwgi1Q9-48" value="" style="endArrow=diamondThin;endFill=1;endSize=24;html=1;rounded=0;labelBackgroundColor=none;fontColor=default;edgeStyle=orthogonalEdgeStyle;" parent="1" source="Vp7KOwkqIpcdfMKKaiIl-132" target="ViWVULLcjfLXoIwgi1Q9-47" edge="1">
          <mxGeometry width="160" relative="1" as="geometry">
            <mxPoint x="-1980" y="-320.00000000000006" as="sourcePoint" />
            <mxPoint x="-1820" y="-320.00000000000006" as="targetPoint" />
            <Array as="points">
              <mxPoint x="-1930" y="20" />
              <mxPoint x="-1930" y="155" />
            </Array>
          </mxGeometry>
        </mxCell>
        <mxCell id="ViWVULLcjfLXoIwgi1Q9-51" value="" style="endArrow=diamondThin;endFill=0;endSize=24;html=1;rounded=0;labelBackgroundColor=none;fontColor=default;edgeStyle=orthogonalEdgeStyle;" parent="1" source="G9EN5JWeJz_nwPtttZKu-131" target="Vp7KOwkqIpcdfMKKaiIl-21" edge="1">
          <mxGeometry width="160" relative="1" as="geometry">
            <mxPoint x="1620" y="570" as="sourcePoint" />
            <mxPoint x="780" y="-480" as="targetPoint" />
            <Array as="points">
              <mxPoint x="-760" y="-580" />
            </Array>
          </mxGeometry>
        </mxCell>
        <mxCell id="ViWVULLcjfLXoIwgi1Q9-52" value="Use" style="endArrow=open;endSize=12;dashed=1;html=1;rounded=0;labelBackgroundColor=none;fontColor=default;edgeStyle=orthogonalEdgeStyle;" parent="1" source="Vp7KOwkqIpcdfMKKaiIl-21" target="yTDWApdTZO0DoRyl30tC-16" edge="1">
          <mxGeometry width="160" relative="1" as="geometry">
            <mxPoint x="2140" y="40" as="sourcePoint" />
            <mxPoint x="2300" y="20" as="targetPoint" />
            <Array as="points">
              <mxPoint x="-770" y="-1190" />
              <mxPoint x="2420" y="-1190" />
            </Array>
          </mxGeometry>
        </mxCell>
        <mxCell id="ViWVULLcjfLXoIwgi1Q9-53" value="Use" style="endArrow=open;endSize=12;dashed=1;html=1;rounded=0;labelBackgroundColor=none;fontColor=default;edgeStyle=orthogonalEdgeStyle;entryX=0.25;entryY=0;entryDx=0;entryDy=0;" parent="1" source="Vp7KOwkqIpcdfMKKaiIl-21" target="G9EN5JWeJz_nwPtttZKu-103" edge="1">
          <mxGeometry width="160" relative="1" as="geometry">
            <mxPoint x="2180" y="-110" as="sourcePoint" />
            <mxPoint x="2340" y="-110" as="targetPoint" />
            <Array as="points">
              <mxPoint x="-870" y="-1120" />
              <mxPoint x="1831" y="-1120" />
            </Array>
          </mxGeometry>
        </mxCell>
        <mxCell id="ViWVULLcjfLXoIwgi1Q9-70" value="" style="endArrow=diamondThin;endFill=0;endSize=24;html=1;rounded=0;labelBackgroundColor=none;fontColor=default;edgeStyle=orthogonalEdgeStyle;exitX=0.5;exitY=0;exitDx=0;exitDy=0;elbow=vertical;" parent="1" source="G9EN5JWeJz_nwPtttZKu-103" target="G9EN5JWeJz_nwPtttZKu-106" edge="1">
          <mxGeometry width="160" relative="1" as="geometry">
            <mxPoint x="426" y="-800.8695652173913" as="sourcePoint" />
            <mxPoint x="390" y="80" as="targetPoint" />
            <Array as="points">
              <mxPoint x="1871" y="-1300" />
              <mxPoint x="-1440" y="-1300" />
            </Array>
          </mxGeometry>
        </mxCell>
        <mxCell id="ViWVULLcjfLXoIwgi1Q9-71" value="" style="endArrow=diamondThin;endFill=0;endSize=24;html=1;rounded=0;labelBackgroundColor=none;fontColor=default;edgeStyle=orthogonalEdgeStyle;exitX=0.5;exitY=0;exitDx=0;exitDy=0;entryX=0.5;entryY=0;entryDx=0;entryDy=0;" parent="1" source="yTDWApdTZO0DoRyl30tC-50" target="Vp7KOwkqIpcdfMKKaiIl-93" edge="1">
          <mxGeometry width="160" relative="1" as="geometry">
            <mxPoint x="-520" y="-551" as="sourcePoint" />
            <mxPoint x="-360" y="-551" as="targetPoint" />
            <Array as="points">
              <mxPoint x="-1587" y="-1281" />
              <mxPoint x="-1911" y="-1281" />
            </Array>
          </mxGeometry>
        </mxCell>
        <mxCell id="ViWVULLcjfLXoIwgi1Q9-72" value="" style="endArrow=diamondThin;endFill=0;endSize=24;html=1;rounded=0;labelBackgroundColor=none;fontColor=default;entryX=0.5;entryY=0;entryDx=0;entryDy=0;edgeStyle=orthogonalEdgeStyle;exitX=0.25;exitY=0;exitDx=0;exitDy=0;" parent="1" source="Vp7KOwkqIpcdfMKKaiIl-52" target="G9EN5JWeJz_nwPtttZKu-5" edge="1">
          <mxGeometry width="160" relative="1" as="geometry">
            <mxPoint x="640" y="-260" as="sourcePoint" />
            <mxPoint x="800" y="-260" as="targetPoint" />
            <Array as="points">
              <mxPoint x="948" y="-970" />
              <mxPoint x="241" y="-970" />
            </Array>
          </mxGeometry>
        </mxCell>
        <mxCell id="ViWVULLcjfLXoIwgi1Q9-83" value="" style="endArrow=diamondThin;endFill=0;endSize=24;html=1;rounded=0;entryX=0.5;entryY=0;entryDx=0;entryDy=0;labelBackgroundColor=none;fontColor=default;edgeStyle=elbowEdgeStyle;elbow=vertical;" parent="1" source="Vp7KOwkqIpcdfMKKaiIl-10" target="G9EN5JWeJz_nwPtttZKu-5" edge="1">
          <mxGeometry width="160" relative="1" as="geometry">
            <mxPoint x="396" y="-205" as="sourcePoint" />
            <mxPoint x="556" y="-205" as="targetPoint" />
            <Array as="points">
              <mxPoint y="-970" />
              <mxPoint x="-24" y="-965" />
            </Array>
          </mxGeometry>
        </mxCell>
        <mxCell id="ViWVULLcjfLXoIwgi1Q9-84" value="" style="endArrow=diamondThin;endFill=0;endSize=24;html=1;rounded=0;labelBackgroundColor=none;fontColor=default;edgeStyle=orthogonalEdgeStyle;entryX=0.5;entryY=0;entryDx=0;entryDy=0;exitX=0.25;exitY=0;exitDx=0;exitDy=0;" parent="1" source="G9EN5JWeJz_nwPtttZKu-106" target="G9EN5JWeJz_nwPtttZKu-99" edge="1">
          <mxGeometry width="160" relative="1" as="geometry">
            <mxPoint x="-1750" y="-830" as="sourcePoint" />
            <mxPoint x="1450" y="130" as="targetPoint" />
            <Array as="points">
              <mxPoint x="-1500" y="-810" />
              <mxPoint x="-1500" y="-890" />
              <mxPoint x="-2160" y="-890" />
            </Array>
          </mxGeometry>
        </mxCell>
        <mxCell id="ViWVULLcjfLXoIwgi1Q9-85" value="" style="endArrow=diamondThin;endFill=0;endSize=24;html=1;rounded=0;labelBackgroundColor=none;fontColor=default;edgeStyle=orthogonalEdgeStyle;exitX=0.75;exitY=0;exitDx=0;exitDy=0;entryX=0.25;entryY=0;entryDx=0;entryDy=0;" parent="1" source="G9EN5JWeJz_nwPtttZKu-106" target="G9EN5JWeJz_nwPtttZKu-118" edge="1">
          <mxGeometry width="160" relative="1" as="geometry">
            <mxPoint x="1640" y="310" as="sourcePoint" />
            <mxPoint x="1800" y="310" as="targetPoint" />
            <Array as="points">
              <mxPoint x="-1401" y="-840" />
              <mxPoint x="-1207" y="-840" />
            </Array>
          </mxGeometry>
        </mxCell>
        <mxCell id="ViWVULLcjfLXoIwgi1Q9-86" value="Use" style="endArrow=open;endSize=12;dashed=1;html=1;rounded=0;labelBackgroundColor=none;fontColor=default;edgeStyle=orthogonalEdgeStyle;entryX=0.36;entryY=0.002;entryDx=0;entryDy=0;entryPerimeter=0;exitX=0.75;exitY=0;exitDx=0;exitDy=0;" parent="1" source="G9EN5JWeJz_nwPtttZKu-110" target="G9EN5JWeJz_nwPtttZKu-106" edge="1">
          <mxGeometry width="160" relative="1" as="geometry">
            <mxPoint x="-1745" y="-830" as="sourcePoint" />
            <mxPoint x="60" y="-600" as="targetPoint" />
            <Array as="points">
              <mxPoint x="-1745" y="-850" />
              <mxPoint x="-1515" y="-850" />
            </Array>
          </mxGeometry>
        </mxCell>
        <mxCell id="ViWVULLcjfLXoIwgi1Q9-90" value="" style="endArrow=diamondThin;endFill=1;endSize=24;html=1;rounded=0;labelBackgroundColor=none;fontColor=default;edgeStyle=orthogonalEdgeStyle;" parent="1" source="G9EN5JWeJz_nwPtttZKu-126" target="G9EN5JWeJz_nwPtttZKu-118" edge="1">
          <mxGeometry width="160" relative="1" as="geometry">
            <mxPoint x="1580" y="-50" as="sourcePoint" />
            <mxPoint x="1740" y="-50" as="targetPoint" />
            <Array as="points">
              <mxPoint x="530" y="-490" />
              <mxPoint x="-1134" y="-490" />
            </Array>
          </mxGeometry>
        </mxCell>
        <mxCell id="ViWVULLcjfLXoIwgi1Q9-92" value="" style="endArrow=diamondThin;endFill=0;endSize=24;html=1;rounded=0;labelBackgroundColor=none;fontColor=default;startArrow=none;exitX=0.75;exitY=0;exitDx=0;exitDy=0;edgeStyle=orthogonalEdgeStyle;entryX=0.5;entryY=0;entryDx=0;entryDy=0;" parent="1" source="G9EN5JWeJz_nwPtttZKu-99" target="G9EN5JWeJz_nwPtttZKu-110" edge="1">
          <mxGeometry width="160" relative="1" as="geometry">
            <mxPoint x="2270" y="-100" as="sourcePoint" />
            <mxPoint x="2430" y="-100" as="targetPoint" />
            <Array as="points">
              <mxPoint x="-2100" y="-870" />
              <mxPoint x="-1830" y="-870" />
            </Array>
          </mxGeometry>
        </mxCell>
        <mxCell id="ViWVULLcjfLXoIwgi1Q9-94" value="" style="endArrow=diamondThin;endFill=0;endSize=24;html=1;rounded=0;labelBackgroundColor=none;fontColor=default;edgeStyle=orthogonalEdgeStyle;exitX=0.5;exitY=0;exitDx=0;exitDy=0;" parent="1" source="G9EN5JWeJz_nwPtttZKu-103" target="Vp7KOwkqIpcdfMKKaiIl-52" edge="1">
          <mxGeometry width="160" relative="1" as="geometry">
            <mxPoint x="1160" y="-400" as="sourcePoint" />
            <mxPoint x="1320" y="-400" as="targetPoint" />
            <Array as="points">
              <mxPoint x="1871" y="-1090" />
              <mxPoint x="1045" y="-1090" />
            </Array>
          </mxGeometry>
        </mxCell>
        <mxCell id="ViWVULLcjfLXoIwgi1Q9-95" value="" style="endArrow=diamondThin;endFill=0;endSize=24;html=1;rounded=0;labelBackgroundColor=none;fontColor=default;entryX=0.5;entryY=0;entryDx=0;entryDy=0;exitX=0.25;exitY=0;exitDx=0;exitDy=0;edgeStyle=orthogonalEdgeStyle;" parent="1" source="G9EN5JWeJz_nwPtttZKu-1" target="G9EN5JWeJz_nwPtttZKu-126" edge="1">
          <mxGeometry width="160" relative="1" as="geometry">
            <mxPoint x="1460" y="-430" as="sourcePoint" />
            <mxPoint x="1620" y="-430" as="targetPoint" />
            <Array as="points">
              <mxPoint x="1812" y="-990" />
              <mxPoint x="620" y="-990" />
            </Array>
          </mxGeometry>
        </mxCell>
        <mxCell id="8i7Lr49_zQPxc0uf3AC--67" value="" style="group" parent="1" vertex="1" connectable="0">
          <mxGeometry x="2010" y="-940" width="175" height="194.44000000000005" as="geometry" />
        </mxCell>
        <mxCell id="ViWVULLcjfLXoIwgi1Q9-96" value="IOffer" style="shape=umlFrame;whiteSpace=wrap;html=1;labelBackgroundColor=none;" parent="8i7Lr49_zQPxc0uf3AC--67" vertex="1">
          <mxGeometry width="175" height="194.44" as="geometry" />
        </mxCell>
        <mxCell id="ViWVULLcjfLXoIwgi1Q9-97" value="&lt;&lt;enumeration&gt;&gt;&#xa;Size " style="swimlane;fontStyle=0;align=center;verticalAlign=top;childLayout=stackLayout;horizontal=1;startSize=40;horizontalStack=0;resizeParent=1;resizeLast=0;collapsible=1;marginBottom=0;rounded=0;shadow=0;strokeWidth=1;labelBackgroundColor=none;" parent="8i7Lr49_zQPxc0uf3AC--67" vertex="1">
          <mxGeometry x="23" y="38" width="130" height="144" as="geometry">
            <mxRectangle x="130" y="380" width="160" height="26" as="alternateBounds" />
          </mxGeometry>
        </mxCell>
        <mxCell id="ViWVULLcjfLXoIwgi1Q9-98" value="ExtraLarge" style="text;align=left;verticalAlign=top;spacingLeft=4;spacingRight=4;overflow=hidden;rotatable=0;points=[[0,0.5],[1,0.5]];portConstraint=eastwest;rounded=0;shadow=0;html=0;labelBackgroundColor=none;" parent="ViWVULLcjfLXoIwgi1Q9-97" vertex="1">
          <mxGeometry y="40" width="130" height="26" as="geometry" />
        </mxCell>
        <mxCell id="ViWVULLcjfLXoIwgi1Q9-99" value="Large" style="text;align=left;verticalAlign=top;spacingLeft=4;spacingRight=4;overflow=hidden;rotatable=0;points=[[0,0.5],[1,0.5]];portConstraint=eastwest;rounded=0;shadow=0;html=0;labelBackgroundColor=none;" parent="ViWVULLcjfLXoIwgi1Q9-97" vertex="1">
          <mxGeometry y="66" width="130" height="26" as="geometry" />
        </mxCell>
        <mxCell id="ViWVULLcjfLXoIwgi1Q9-100" value="Medium" style="text;align=left;verticalAlign=top;spacingLeft=4;spacingRight=4;overflow=hidden;rotatable=0;points=[[0,0.5],[1,0.5]];portConstraint=eastwest;rounded=0;shadow=0;html=0;labelBackgroundColor=none;" parent="ViWVULLcjfLXoIwgi1Q9-97" vertex="1">
          <mxGeometry y="92" width="130" height="26" as="geometry" />
        </mxCell>
        <mxCell id="ViWVULLcjfLXoIwgi1Q9-101" value="Small" style="text;align=left;verticalAlign=top;spacingLeft=4;spacingRight=4;overflow=hidden;rotatable=0;points=[[0,0.5],[1,0.5]];portConstraint=eastwest;rounded=0;shadow=0;html=0;labelBackgroundColor=none;" parent="ViWVULLcjfLXoIwgi1Q9-97" vertex="1">
          <mxGeometry y="118" width="130" height="26" as="geometry" />
        </mxCell>
        <mxCell id="8i7Lr49_zQPxc0uf3AC--73" value="" style="endArrow=block;dashed=1;endFill=0;endSize=12;html=1;rounded=0;exitX=0.5;exitY=0;exitDx=0;exitDy=0;labelBackgroundColor=none;fontColor=default;entryX=0.507;entryY=1.062;entryDx=0;entryDy=0;entryPerimeter=0;" parent="1" source="G9EN5JWeJz_nwPtttZKu-1" target="G9EN5JWeJz_nwPtttZKu-105" edge="1">
          <mxGeometry width="160" relative="1" as="geometry">
            <mxPoint x="1884.5" y="-650" as="sourcePoint" />
            <mxPoint x="1884.5" y="-782" as="targetPoint" />
            <Array as="points" />
          </mxGeometry>
        </mxCell>
        <mxCell id="8i7Lr49_zQPxc0uf3AC--76" value="" style="group" parent="1" vertex="1" connectable="0">
          <mxGeometry x="1310" y="-693" width="577.5" height="460" as="geometry" />
        </mxCell>
        <mxCell id="G9EN5JWeJz_nwPtttZKu-89" value="Pizza" style="swimlane;fontStyle=0;align=center;verticalAlign=top;childLayout=stackLayout;horizontal=1;startSize=30;horizontalStack=0;resizeParent=1;resizeLast=0;collapsible=1;marginBottom=0;rounded=0;shadow=0;strokeWidth=1;labelBackgroundColor=none;" parent="8i7Lr49_zQPxc0uf3AC--76" vertex="1">
          <mxGeometry width="319.80830670926514" height="512" as="geometry">
            <mxRectangle x="130" y="380" width="160" height="26" as="alternateBounds" />
          </mxGeometry>
        </mxCell>
        <mxCell id="8i7Lr49_zQPxc0uf3AC--75" value="&lt;span style=&quot;color: rgb(0, 0, 0); font-family: Helvetica; font-size: 12px; font-style: normal; font-variant-ligatures: normal; font-variant-caps: normal; font-weight: 400; letter-spacing: normal; orphans: 2; text-align: left; text-indent: 0px; text-transform: none; widows: 2; word-spacing: 0px; -webkit-text-stroke-width: 0px; background-color: rgb(251, 251, 251); text-decoration-thickness: initial; text-decoration-style: initial; text-decoration-color: initial; float: none; display: inline !important;&quot;&gt;&amp;nbsp;- _name : string&lt;/span&gt;" style="text;whiteSpace=wrap;html=1;" parent="G9EN5JWeJz_nwPtttZKu-89" vertex="1">
          <mxGeometry y="30" width="319.80830670926514" height="30" as="geometry" />
        </mxCell>
        <mxCell id="8i7Lr49_zQPxc0uf3AC--74" value="&lt;span style=&quot;color: rgb(0, 0, 0); font-family: Helvetica; font-size: 12px; font-style: normal; font-variant-ligatures: normal; font-variant-caps: normal; font-weight: 400; letter-spacing: normal; orphans: 2; text-align: left; text-indent: 0px; text-transform: none; widows: 2; word-spacing: 0px; -webkit-text-stroke-width: 0px; background-color: rgb(251, 251, 251); text-decoration-thickness: initial; text-decoration-style: initial; text-decoration-color: initial; float: none; display: inline !important;&quot;&gt;&amp;nbsp;+ &amp;lt;&amp;lt;get&amp;gt;&amp;gt; Name: string&lt;/span&gt;" style="text;whiteSpace=wrap;html=1;" parent="G9EN5JWeJz_nwPtttZKu-89" vertex="1">
          <mxGeometry y="60" width="319.80830670926514" height="30" as="geometry" />
        </mxCell>
        <mxCell id="8i7Lr49_zQPxc0uf3AC--83" value="&lt;span style=&quot;color: rgb(0, 0, 0); font-family: Helvetica; font-size: 12px; font-style: normal; font-variant-ligatures: normal; font-variant-caps: normal; font-weight: 400; letter-spacing: normal; orphans: 2; text-align: left; text-indent: 0px; text-transform: none; widows: 2; word-spacing: 0px; -webkit-text-stroke-width: 0px; background-color: rgb(251, 251, 251); text-decoration-thickness: initial; text-decoration-style: initial; text-decoration-color: initial; float: none; display: inline !important;&quot;&gt;&amp;nbsp;- _description: string&lt;/span&gt;" style="text;whiteSpace=wrap;html=1;" parent="G9EN5JWeJz_nwPtttZKu-89" vertex="1">
          <mxGeometry y="90" width="319.80830670926514" height="30" as="geometry" />
        </mxCell>
        <mxCell id="8i7Lr49_zQPxc0uf3AC--78" value="+ &lt;&lt;get&gt;&gt; Description: string" style="text;strokeColor=none;fillColor=none;align=left;verticalAlign=top;spacingLeft=4;spacingRight=4;overflow=hidden;rotatable=0;points=[[0,0.5],[1,0.5]];portConstraint=eastwest;labelBackgroundColor=none;" parent="G9EN5JWeJz_nwPtttZKu-89" vertex="1">
          <mxGeometry y="120" width="319.80830670926514" height="26" as="geometry" />
        </mxCell>
        <mxCell id="8i7Lr49_zQPxc0uf3AC--82" value="+ &lt;&lt;get&gt;&gt; Category: PizzeriaData.Category=&#xa;PizzeriaData.Category.Pizzas" style="text;strokeColor=none;fillColor=none;align=left;verticalAlign=top;spacingLeft=4;spacingRight=4;overflow=hidden;rotatable=0;points=[[0,0.5],[1,0.5]];portConstraint=eastwest;labelBackgroundColor=none;" parent="G9EN5JWeJz_nwPtttZKu-89" vertex="1">
          <mxGeometry y="146" width="319.80830670926514" height="44" as="geometry" />
        </mxCell>
        <mxCell id="G9EN5JWeJz_nwPtttZKu-92" value="- recipe: Recipe" style="text;align=left;verticalAlign=top;spacingLeft=4;spacingRight=4;overflow=hidden;rotatable=0;points=[[0,0.5],[1,0.5]];portConstraint=eastwest;rounded=0;shadow=0;html=0;labelBackgroundColor=none;" parent="G9EN5JWeJz_nwPtttZKu-89" vertex="1">
          <mxGeometry y="190" width="319.80830670926514" height="26" as="geometry" />
        </mxCell>
        <mxCell id="8i7Lr49_zQPxc0uf3AC--81" value="+ &lt;&lt;get&gt;&gt; Recipe: Recipe" style="text;strokeColor=none;fillColor=none;align=left;verticalAlign=top;spacingLeft=4;spacingRight=4;overflow=hidden;rotatable=0;points=[[0,0.5],[1,0.5]];portConstraint=eastwest;labelBackgroundColor=none;" parent="G9EN5JWeJz_nwPtttZKu-89" vertex="1">
          <mxGeometry y="216" width="319.80830670926514" height="30" as="geometry" />
        </mxCell>
        <mxCell id="8i7Lr49_zQPxc0uf3AC--80" value="+ &lt;&lt;get&gt;&gt; TotalTime: TimeOnly" style="text;strokeColor=none;fillColor=none;align=left;verticalAlign=top;spacingLeft=4;spacingRight=4;overflow=hidden;rotatable=0;points=[[0,0.5],[1,0.5]];portConstraint=eastwest;labelBackgroundColor=none;" parent="G9EN5JWeJz_nwPtttZKu-89" vertex="1">
          <mxGeometry y="246" width="319.80830670926514" height="26" as="geometry" />
        </mxCell>
        <mxCell id="G9EN5JWeJz_nwPtttZKu-90" value="- dough:Pizza.Dough" style="text;align=left;verticalAlign=top;spacingLeft=4;spacingRight=4;overflow=hidden;rotatable=0;points=[[0,0.5],[1,0.5]];portConstraint=eastwest;rounded=0;shadow=0;html=0;labelBackgroundColor=none;" parent="G9EN5JWeJz_nwPtttZKu-89" vertex="1">
          <mxGeometry y="272" width="319.80830670926514" height="26" as="geometry" />
        </mxCell>
        <mxCell id="8i7Lr49_zQPxc0uf3AC--86" value="&lt;span style=&quot;color: rgb(0, 0, 0); font-family: Helvetica; font-size: 12px; font-style: normal; font-variant-ligatures: normal; font-variant-caps: normal; font-weight: 400; letter-spacing: normal; orphans: 2; text-align: left; text-indent: 0px; text-transform: none; widows: 2; word-spacing: 0px; -webkit-text-stroke-width: 0px; background-color: rgb(251, 251, 251); text-decoration-thickness: initial; text-decoration-style: initial; text-decoration-color: initial; float: none; display: inline !important;&quot;&gt;&amp;nbsp;+ &amp;lt;&amp;lt;get&amp;gt;&amp;gt;&amp;nbsp;Dough:&amp;nbsp;Pizza.&lt;/span&gt;Dough" style="text;whiteSpace=wrap;html=1;" parent="G9EN5JWeJz_nwPtttZKu-89" vertex="1">
          <mxGeometry y="298" width="319.80830670926514" height="30" as="geometry" />
        </mxCell>
        <mxCell id="yTDWApdTZO0DoRyl30tC-5" value="- size:IOffer.Size" style="text;align=left;verticalAlign=top;spacingLeft=4;spacingRight=4;overflow=hidden;rotatable=0;points=[[0,0.5],[1,0.5]];portConstraint=eastwest;rounded=0;shadow=0;html=0;labelBackgroundColor=none;" parent="G9EN5JWeJz_nwPtttZKu-89" vertex="1">
          <mxGeometry y="328" width="319.80830670926514" height="26" as="geometry" />
        </mxCell>
        <mxCell id="8i7Lr49_zQPxc0uf3AC--79" value="+ &lt;&lt;get&gt;&gt; Size: IOffer.Size" style="text;strokeColor=none;fillColor=none;align=left;verticalAlign=top;spacingLeft=4;spacingRight=4;overflow=hidden;rotatable=0;points=[[0,0.5],[1,0.5]];portConstraint=eastwest;labelBackgroundColor=none;" parent="G9EN5JWeJz_nwPtttZKu-89" vertex="1">
          <mxGeometry y="354" width="319.80830670926514" height="26" as="geometry" />
        </mxCell>
        <mxCell id="8i7Lr49_zQPxc0uf3AC--123" value="-  additionalIngredients: List&lt;Ingredient&gt;" style="text;strokeColor=none;fillColor=none;align=left;verticalAlign=top;spacingLeft=4;spacingRight=4;overflow=hidden;rotatable=0;points=[[0,0.5],[1,0.5]];portConstraint=eastwest;labelBackgroundColor=none;" parent="G9EN5JWeJz_nwPtttZKu-89" vertex="1">
          <mxGeometry y="380" width="319.80830670926514" height="26" as="geometry" />
        </mxCell>
        <mxCell id="8i7Lr49_zQPxc0uf3AC--122" value="+ &lt;&lt;get&gt;&gt; AdditionalIngredients: IEnumerable&lt;Ingredient&gt;" style="text;strokeColor=none;fillColor=none;align=left;verticalAlign=top;spacingLeft=4;spacingRight=4;overflow=hidden;rotatable=0;points=[[0,0.5],[1,0.5]];portConstraint=eastwest;labelBackgroundColor=none;" parent="G9EN5JWeJz_nwPtttZKu-89" vertex="1">
          <mxGeometry y="406" width="319.80830670926514" height="26" as="geometry" />
        </mxCell>
        <mxCell id="G9EN5JWeJz_nwPtttZKu-93" value="" style="line;html=1;strokeWidth=1;align=left;verticalAlign=middle;spacingTop=-1;spacingLeft=3;spacingRight=3;rotatable=0;labelPosition=right;points=[];portConstraint=eastwest;labelBackgroundColor=none;" parent="G9EN5JWeJz_nwPtttZKu-89" vertex="1">
          <mxGeometry y="432" width="319.80830670926514" height="8" as="geometry" />
        </mxCell>
        <mxCell id="ViWVULLcjfLXoIwgi1Q9-6" value="+ AddAdditionalIngredients(ingredients: List&lt;Ingredient&gt;): void" style="text;align=left;verticalAlign=top;spacingLeft=4;spacingRight=4;overflow=hidden;rotatable=0;points=[[0,0.5],[1,0.5]];portConstraint=eastwest;fontStyle=0;whiteSpace=wrap;labelBackgroundColor=none;" parent="G9EN5JWeJz_nwPtttZKu-89" vertex="1">
          <mxGeometry y="440" width="319.80830670926514" height="44" as="geometry" />
        </mxCell>
        <mxCell id="8i7Lr49_zQPxc0uf3AC--84" value="+ ToString(): string" style="text;align=left;verticalAlign=top;spacingLeft=4;spacingRight=4;overflow=hidden;rotatable=0;points=[[0,0.5],[1,0.5]];portConstraint=eastwest;fontStyle=0;whiteSpace=wrap;labelBackgroundColor=none;" parent="G9EN5JWeJz_nwPtttZKu-89" vertex="1">
          <mxGeometry y="484" width="319.80830670926514" height="28" as="geometry" />
        </mxCell>
        <mxCell id="8i7Lr49_zQPxc0uf3AC--68" value="" style="group" parent="8i7Lr49_zQPxc0uf3AC--76" vertex="1" connectable="0">
          <mxGeometry x="332.108626198083" width="209.10543130990413" height="190" as="geometry" />
        </mxCell>
        <mxCell id="yTDWApdTZO0DoRyl30tC-14" value="Pizza" style="shape=umlFrame;whiteSpace=wrap;html=1;labelBackgroundColor=none;" parent="8i7Lr49_zQPxc0uf3AC--68" vertex="1">
          <mxGeometry width="209.10543130990413" height="190" as="geometry" />
        </mxCell>
        <mxCell id="yTDWApdTZO0DoRyl30tC-10" value="&lt;&lt;enumeration&gt;&gt;&#xa;Dough" style="swimlane;fontStyle=0;align=center;verticalAlign=top;childLayout=stackLayout;horizontal=1;startSize=40;horizontalStack=0;resizeParent=1;resizeLast=0;collapsible=1;marginBottom=0;rounded=0;shadow=0;strokeWidth=1;labelBackgroundColor=none;" parent="8i7Lr49_zQPxc0uf3AC--68" vertex="1">
          <mxGeometry x="24.60063897763578" y="46" width="159.90415335463257" height="120" as="geometry">
            <mxRectangle x="130" y="380" width="160" height="26" as="alternateBounds" />
          </mxGeometry>
        </mxCell>
        <mxCell id="yTDWApdTZO0DoRyl30tC-11" value="Thin" style="text;align=left;verticalAlign=top;spacingLeft=4;spacingRight=4;overflow=hidden;rotatable=0;points=[[0,0.5],[1,0.5]];portConstraint=eastwest;rounded=0;shadow=0;html=0;labelBackgroundColor=none;" parent="yTDWApdTZO0DoRyl30tC-10" vertex="1">
          <mxGeometry y="40" width="159.90415335463257" height="26" as="geometry" />
        </mxCell>
        <mxCell id="yTDWApdTZO0DoRyl30tC-12" value="Thick" style="text;align=left;verticalAlign=top;spacingLeft=4;spacingRight=4;overflow=hidden;rotatable=0;points=[[0,0.5],[1,0.5]];portConstraint=eastwest;rounded=0;shadow=0;html=0;labelBackgroundColor=none;" parent="yTDWApdTZO0DoRyl30tC-10" vertex="1">
          <mxGeometry y="66" width="159.90415335463257" height="26" as="geometry" />
        </mxCell>
        <mxCell id="yTDWApdTZO0DoRyl30tC-13" value="WithFilling" style="text;align=left;verticalAlign=top;spacingLeft=4;spacingRight=4;overflow=hidden;rotatable=0;points=[[0,0.5],[1,0.5]];portConstraint=eastwest;rounded=0;shadow=0;html=0;labelBackgroundColor=none;" parent="yTDWApdTZO0DoRyl30tC-10" vertex="1">
          <mxGeometry y="92" width="159.90415335463257" height="26" as="geometry" />
        </mxCell>
        <mxCell id="8i7Lr49_zQPxc0uf3AC--77" value="" style="group" parent="1" vertex="1" connectable="0">
          <mxGeometry x="2220" y="-940" width="540" height="270" as="geometry" />
        </mxCell>
        <mxCell id="yTDWApdTZO0DoRyl30tC-16" value="Recipe" style="swimlane;fontStyle=0;align=center;verticalAlign=top;childLayout=stackLayout;horizontal=1;startSize=30;horizontalStack=0;resizeParent=1;resizeLast=0;collapsible=1;marginBottom=0;rounded=0;shadow=0;strokeWidth=1;labelBackgroundColor=none;" parent="8i7Lr49_zQPxc0uf3AC--77" vertex="1">
          <mxGeometry y="1" width="350" height="229" as="geometry">
            <mxRectangle x="130" y="380" width="160" height="26" as="alternateBounds" />
          </mxGeometry>
        </mxCell>
        <mxCell id="yTDWApdTZO0DoRyl30tC-19" value="- _cookingStages: Dictionaty&lt;CookingStage, &#xa;(List&lt;Ingredient&gt;, TimeOnly)&gt; " style="text;align=left;verticalAlign=top;spacingLeft=4;spacingRight=4;overflow=hidden;rotatable=0;points=[[0,0.5],[1,0.5]];portConstraint=eastwest;rounded=0;shadow=0;html=0;labelBackgroundColor=none;" parent="yTDWApdTZO0DoRyl30tC-16" vertex="1">
          <mxGeometry y="30" width="350" height="40" as="geometry" />
        </mxCell>
        <mxCell id="yTDWApdTZO0DoRyl30tC-20" value="" style="line;html=1;strokeWidth=1;align=left;verticalAlign=middle;spacingTop=-1;spacingLeft=3;spacingRight=3;rotatable=0;labelPosition=right;points=[];portConstraint=eastwest;labelBackgroundColor=none;" parent="yTDWApdTZO0DoRyl30tC-16" vertex="1">
          <mxGeometry y="70" width="350" height="8" as="geometry" />
        </mxCell>
        <mxCell id="8i7Lr49_zQPxc0uf3AC--125" value="+ AddCookingStage(stage: KeyValuePair&lt;CookingStage, &#xa;(List&lt;Ingredient&gt;, TimeOnly)&gt;):" style="text;align=left;verticalAlign=top;spacingLeft=4;spacingRight=4;overflow=hidden;rotatable=0;points=[[0,0.5],[1,0.5]];portConstraint=eastwest;rounded=0;shadow=0;html=0;labelBackgroundColor=none;" parent="yTDWApdTZO0DoRyl30tC-16" vertex="1">
          <mxGeometry y="78" width="350" height="40" as="geometry" />
        </mxCell>
        <mxCell id="8i7Lr49_zQPxc0uf3AC--126" value="+ RemoveCookingStage(stage: KeyValuePair&lt;CookingStage, &#xa;(List&lt;Ingredient&gt;, TimeOnly)&gt;):" style="text;align=left;verticalAlign=top;spacingLeft=4;spacingRight=4;overflow=hidden;rotatable=0;points=[[0,0.5],[1,0.5]];portConstraint=eastwest;rounded=0;shadow=0;html=0;labelBackgroundColor=none;" parent="yTDWApdTZO0DoRyl30tC-16" vertex="1">
          <mxGeometry y="118" width="350" height="40" as="geometry" />
        </mxCell>
        <mxCell id="8i7Lr49_zQPxc0uf3AC--124" value="+ GetWholeRecipe(): Dictionaty&lt;CookingStages, &#xa;(List&lt;Ingredient&gt;, TimeOnly)&gt; " style="text;align=left;verticalAlign=top;spacingLeft=4;spacingRight=4;overflow=hidden;rotatable=0;points=[[0,0.5],[1,0.5]];portConstraint=eastwest;rounded=0;shadow=0;html=0;labelBackgroundColor=none;" parent="yTDWApdTZO0DoRyl30tC-16" vertex="1">
          <mxGeometry y="158" width="350" height="40" as="geometry" />
        </mxCell>
        <mxCell id="yTDWApdTZO0DoRyl30tC-21" value="+ ToString(): string" style="text;align=left;verticalAlign=top;spacingLeft=4;spacingRight=4;overflow=hidden;rotatable=0;points=[[0,0.5],[1,0.5]];portConstraint=eastwest;fontStyle=0;whiteSpace=wrap;labelBackgroundColor=none;" parent="yTDWApdTZO0DoRyl30tC-16" vertex="1">
          <mxGeometry y="198" width="350" height="28" as="geometry" />
        </mxCell>
        <mxCell id="yTDWApdTZO0DoRyl30tC-41" value="" style="group;labelBackgroundColor=none;" parent="8i7Lr49_zQPxc0uf3AC--77" vertex="1" connectable="0">
          <mxGeometry x="360" width="180" height="200" as="geometry" />
        </mxCell>
        <mxCell id="yTDWApdTZO0DoRyl30tC-26" value="Recipe" style="shape=umlFrame;whiteSpace=wrap;html=1;labelBackgroundColor=none;" parent="yTDWApdTZO0DoRyl30tC-41" vertex="1">
          <mxGeometry width="180" height="200" as="geometry" />
        </mxCell>
        <mxCell id="yTDWApdTZO0DoRyl30tC-27" value="&lt;&lt;enumeration&gt;&gt;&#xa;CookingStage" style="swimlane;fontStyle=0;align=center;verticalAlign=top;childLayout=stackLayout;horizontal=1;startSize=40;horizontalStack=0;resizeParent=1;resizeLast=0;collapsible=1;marginBottom=0;rounded=0;shadow=0;strokeWidth=1;labelBackgroundColor=none;" parent="yTDWApdTZO0DoRyl30tC-41" vertex="1">
          <mxGeometry x="25" y="41" width="130" height="144" as="geometry">
            <mxRectangle x="130" y="380" width="160" height="26" as="alternateBounds" />
          </mxGeometry>
        </mxCell>
        <mxCell id="yTDWApdTZO0DoRyl30tC-31" value="PrepareBase" style="text;align=left;verticalAlign=top;spacingLeft=4;spacingRight=4;overflow=hidden;rotatable=0;points=[[0,0.5],[1,0.5]];portConstraint=eastwest;rounded=0;shadow=0;html=0;labelBackgroundColor=none;" parent="yTDWApdTZO0DoRyl30tC-27" vertex="1">
          <mxGeometry y="40" width="130" height="26" as="geometry" />
        </mxCell>
        <mxCell id="yTDWApdTZO0DoRyl30tC-28" value="Cut" style="text;align=left;verticalAlign=top;spacingLeft=4;spacingRight=4;overflow=hidden;rotatable=0;points=[[0,0.5],[1,0.5]];portConstraint=eastwest;rounded=0;shadow=0;html=0;labelBackgroundColor=none;" parent="yTDWApdTZO0DoRyl30tC-27" vertex="1">
          <mxGeometry y="66" width="130" height="26" as="geometry" />
        </mxCell>
        <mxCell id="yTDWApdTZO0DoRyl30tC-30" value="Filling" style="text;align=left;verticalAlign=top;spacingLeft=4;spacingRight=4;overflow=hidden;rotatable=0;points=[[0,0.5],[1,0.5]];portConstraint=eastwest;rounded=0;shadow=0;html=0;labelBackgroundColor=none;" parent="yTDWApdTZO0DoRyl30tC-27" vertex="1">
          <mxGeometry y="92" width="130" height="26" as="geometry" />
        </mxCell>
        <mxCell id="yTDWApdTZO0DoRyl30tC-29" value="Bake" style="text;align=left;verticalAlign=top;spacingLeft=4;spacingRight=4;overflow=hidden;rotatable=0;points=[[0,0.5],[1,0.5]];portConstraint=eastwest;rounded=0;shadow=0;html=0;labelBackgroundColor=none;" parent="yTDWApdTZO0DoRyl30tC-27" vertex="1">
          <mxGeometry y="118" width="130" height="26" as="geometry" />
        </mxCell>
        <mxCell id="8i7Lr49_zQPxc0uf3AC--102" value="" style="group" parent="1" vertex="1" connectable="0">
          <mxGeometry x="1890" y="-672" width="415" height="370" as="geometry" />
        </mxCell>
        <mxCell id="yTDWApdTZO0DoRyl30tC-43" value="Juice" style="swimlane;fontStyle=0;align=center;verticalAlign=top;childLayout=stackLayout;horizontal=1;startSize=30;horizontalStack=0;resizeParent=1;resizeLast=0;collapsible=1;marginBottom=0;rounded=0;shadow=0;strokeWidth=1;labelBackgroundColor=none;" parent="8i7Lr49_zQPxc0uf3AC--102" vertex="1">
          <mxGeometry width="250" height="370" as="geometry">
            <mxRectangle x="130" y="380" width="160" height="26" as="alternateBounds" />
          </mxGeometry>
        </mxCell>
        <mxCell id="8i7Lr49_zQPxc0uf3AC--87" value="&lt;span style=&quot;color: rgb(0, 0, 0); font-family: Helvetica; font-size: 12px; font-style: normal; font-variant-ligatures: normal; font-variant-caps: normal; font-weight: 400; letter-spacing: normal; orphans: 2; text-align: left; text-indent: 0px; text-transform: none; widows: 2; word-spacing: 0px; -webkit-text-stroke-width: 0px; background-color: rgb(251, 251, 251); text-decoration-thickness: initial; text-decoration-style: initial; text-decoration-color: initial; float: none; display: inline !important;&quot;&gt;&amp;nbsp;- _name : string&lt;/span&gt;" style="text;whiteSpace=wrap;html=1;" parent="yTDWApdTZO0DoRyl30tC-43" vertex="1">
          <mxGeometry y="30" width="250" height="30" as="geometry" />
        </mxCell>
        <mxCell id="8i7Lr49_zQPxc0uf3AC--88" value="&lt;span style=&quot;color: rgb(0, 0, 0); font-family: Helvetica; font-size: 12px; font-style: normal; font-variant-ligatures: normal; font-variant-caps: normal; font-weight: 400; letter-spacing: normal; orphans: 2; text-align: left; text-indent: 0px; text-transform: none; widows: 2; word-spacing: 0px; -webkit-text-stroke-width: 0px; background-color: rgb(251, 251, 251); text-decoration-thickness: initial; text-decoration-style: initial; text-decoration-color: initial; float: none; display: inline !important;&quot;&gt;&amp;nbsp;+ &amp;lt;&amp;lt;get&amp;gt;&amp;gt; Name: string&lt;/span&gt;" style="text;whiteSpace=wrap;html=1;" parent="yTDWApdTZO0DoRyl30tC-43" vertex="1">
          <mxGeometry y="60" width="250" height="30" as="geometry" />
        </mxCell>
        <mxCell id="8i7Lr49_zQPxc0uf3AC--89" value="&lt;span style=&quot;color: rgb(0, 0, 0); font-family: Helvetica; font-size: 12px; font-style: normal; font-variant-ligatures: normal; font-variant-caps: normal; font-weight: 400; letter-spacing: normal; orphans: 2; text-align: left; text-indent: 0px; text-transform: none; widows: 2; word-spacing: 0px; -webkit-text-stroke-width: 0px; background-color: rgb(251, 251, 251); text-decoration-thickness: initial; text-decoration-style: initial; text-decoration-color: initial; float: none; display: inline !important;&quot;&gt;&amp;nbsp;- _description: string&lt;/span&gt;" style="text;whiteSpace=wrap;html=1;" parent="yTDWApdTZO0DoRyl30tC-43" vertex="1">
          <mxGeometry y="90" width="250" height="30" as="geometry" />
        </mxCell>
        <mxCell id="8i7Lr49_zQPxc0uf3AC--90" value="+ &lt;&lt;get&gt;&gt; Description: string" style="text;strokeColor=none;fillColor=none;align=left;verticalAlign=top;spacingLeft=4;spacingRight=4;overflow=hidden;rotatable=0;points=[[0,0.5],[1,0.5]];portConstraint=eastwest;labelBackgroundColor=none;" parent="yTDWApdTZO0DoRyl30tC-43" vertex="1">
          <mxGeometry y="120" width="250" height="26" as="geometry" />
        </mxCell>
        <mxCell id="8i7Lr49_zQPxc0uf3AC--92" value="- recipe: Recipe" style="text;align=left;verticalAlign=top;spacingLeft=4;spacingRight=4;overflow=hidden;rotatable=0;points=[[0,0.5],[1,0.5]];portConstraint=eastwest;rounded=0;shadow=0;html=0;labelBackgroundColor=none;" parent="yTDWApdTZO0DoRyl30tC-43" vertex="1">
          <mxGeometry y="146" width="250" height="26" as="geometry" />
        </mxCell>
        <mxCell id="8i7Lr49_zQPxc0uf3AC--93" value="+ &lt;&lt;get&gt;&gt; Recipe: Recipe" style="text;strokeColor=none;fillColor=none;align=left;verticalAlign=top;spacingLeft=4;spacingRight=4;overflow=hidden;rotatable=0;points=[[0,0.5],[1,0.5]];portConstraint=eastwest;labelBackgroundColor=none;" parent="yTDWApdTZO0DoRyl30tC-43" vertex="1">
          <mxGeometry y="172" width="250" height="30" as="geometry" />
        </mxCell>
        <mxCell id="8i7Lr49_zQPxc0uf3AC--94" value="+ &lt;&lt;get&gt;&gt; TotalTime: TimeOnly" style="text;strokeColor=none;fillColor=none;align=left;verticalAlign=top;spacingLeft=4;spacingRight=4;overflow=hidden;rotatable=0;points=[[0,0.5],[1,0.5]];portConstraint=eastwest;labelBackgroundColor=none;" parent="yTDWApdTZO0DoRyl30tC-43" vertex="1">
          <mxGeometry y="202" width="250" height="26" as="geometry" />
        </mxCell>
        <mxCell id="8i7Lr49_zQPxc0uf3AC--91" value="+ &lt;&lt;get&gt;&gt; Category: PizzeriaData.Category=&#xa;PizzeriaData.Category.Drinks" style="text;strokeColor=none;fillColor=none;align=left;verticalAlign=top;spacingLeft=4;spacingRight=4;overflow=hidden;rotatable=0;points=[[0,0.5],[1,0.5]];portConstraint=eastwest;labelBackgroundColor=none;" parent="yTDWApdTZO0DoRyl30tC-43" vertex="1">
          <mxGeometry y="228" width="250" height="44" as="geometry" />
        </mxCell>
        <mxCell id="8i7Lr49_zQPxc0uf3AC--104" value="- taste: Juice.Taste" style="text;align=left;verticalAlign=top;spacingLeft=4;spacingRight=4;overflow=hidden;rotatable=0;points=[[0,0.5],[1,0.5]];portConstraint=eastwest;rounded=0;shadow=0;html=0;labelBackgroundColor=none;" parent="yTDWApdTZO0DoRyl30tC-43" vertex="1">
          <mxGeometry y="272" width="250" height="26" as="geometry" />
        </mxCell>
        <mxCell id="8i7Lr49_zQPxc0uf3AC--105" value="&lt;span style=&quot;color: rgb(0, 0, 0); font-family: Helvetica; font-size: 12px; font-style: normal; font-variant-ligatures: normal; font-variant-caps: normal; font-weight: 400; letter-spacing: normal; orphans: 2; text-align: left; text-indent: 0px; text-transform: none; widows: 2; word-spacing: 0px; -webkit-text-stroke-width: 0px; background-color: rgb(251, 251, 251); text-decoration-thickness: initial; text-decoration-style: initial; text-decoration-color: initial; float: none; display: inline !important;&quot;&gt;&amp;nbsp;+ &amp;lt;&amp;lt;get&amp;gt;&amp;gt; Taste:&amp;nbsp;&lt;/span&gt;Juice.Taste" style="text;whiteSpace=wrap;html=1;" parent="yTDWApdTZO0DoRyl30tC-43" vertex="1">
          <mxGeometry y="298" width="250" height="30" as="geometry" />
        </mxCell>
        <mxCell id="yTDWApdTZO0DoRyl30tC-47" value="" style="line;html=1;strokeWidth=1;align=left;verticalAlign=middle;spacingTop=-1;spacingLeft=3;spacingRight=3;rotatable=0;labelPosition=right;points=[];portConstraint=eastwest;labelBackgroundColor=none;" parent="yTDWApdTZO0DoRyl30tC-43" vertex="1">
          <mxGeometry y="328" width="250" height="8" as="geometry" />
        </mxCell>
        <mxCell id="yTDWApdTZO0DoRyl30tC-48" value="+ ToString(): string" style="text;align=left;verticalAlign=top;spacingLeft=4;spacingRight=4;overflow=hidden;rotatable=0;points=[[0,0.5],[1,0.5]];portConstraint=eastwest;fontStyle=0;whiteSpace=wrap;labelBackgroundColor=none;" parent="yTDWApdTZO0DoRyl30tC-43" vertex="1">
          <mxGeometry y="336" width="250" height="28" as="geometry" />
        </mxCell>
        <mxCell id="8i7Lr49_zQPxc0uf3AC--95" value="" style="group" parent="8i7Lr49_zQPxc0uf3AC--102" vertex="1" connectable="0">
          <mxGeometry x="264" width="175" height="194.44000000000005" as="geometry" />
        </mxCell>
        <mxCell id="8i7Lr49_zQPxc0uf3AC--96" value="Juice" style="shape=umlFrame;whiteSpace=wrap;html=1;labelBackgroundColor=none;" parent="8i7Lr49_zQPxc0uf3AC--95" vertex="1">
          <mxGeometry width="175" height="150" as="geometry" />
        </mxCell>
        <mxCell id="8i7Lr49_zQPxc0uf3AC--97" value="&lt;&lt;enumeration&gt;&gt;&#xa;Taste " style="swimlane;fontStyle=0;align=center;verticalAlign=top;childLayout=stackLayout;horizontal=1;startSize=40;horizontalStack=0;resizeParent=1;resizeLast=0;collapsible=1;marginBottom=0;rounded=0;shadow=0;strokeWidth=1;labelBackgroundColor=none;" parent="8i7Lr49_zQPxc0uf3AC--95" vertex="1">
          <mxGeometry x="23" y="42" width="130" height="92" as="geometry">
            <mxRectangle x="130" y="380" width="160" height="26" as="alternateBounds" />
          </mxGeometry>
        </mxCell>
        <mxCell id="8i7Lr49_zQPxc0uf3AC--98" value="Apple" style="text;align=left;verticalAlign=top;spacingLeft=4;spacingRight=4;overflow=hidden;rotatable=0;points=[[0,0.5],[1,0.5]];portConstraint=eastwest;rounded=0;shadow=0;html=0;labelBackgroundColor=none;" parent="8i7Lr49_zQPxc0uf3AC--97" vertex="1">
          <mxGeometry y="40" width="130" height="26" as="geometry" />
        </mxCell>
        <mxCell id="8i7Lr49_zQPxc0uf3AC--99" value="Orange" style="text;align=left;verticalAlign=top;spacingLeft=4;spacingRight=4;overflow=hidden;rotatable=0;points=[[0,0.5],[1,0.5]];portConstraint=eastwest;rounded=0;shadow=0;html=0;labelBackgroundColor=none;" parent="8i7Lr49_zQPxc0uf3AC--97" vertex="1">
          <mxGeometry y="66" width="130" height="26" as="geometry" />
        </mxCell>
        <mxCell id="8i7Lr49_zQPxc0uf3AC--110" value="&lt;&lt;interface&gt;&gt; &#xa;IHaveAdditionalIngredients" style="swimlane;fontStyle=1;align=center;verticalAlign=top;childLayout=stackLayout;horizontal=1;startSize=40;horizontalStack=0;resizeParent=1;resizeParentMax=0;resizeLast=0;collapsible=1;marginBottom=0;labelBackgroundColor=none;" parent="1" vertex="1">
          <mxGeometry x="1375" y="-940" width="350" height="100" as="geometry" />
        </mxCell>
        <mxCell id="8i7Lr49_zQPxc0uf3AC--118" value="&lt;&lt;get&gt;&gt; AdditionalIngredients: IEnumerable&lt;Ingredient&gt;" style="text;strokeColor=none;fillColor=none;align=left;verticalAlign=top;spacingLeft=4;spacingRight=4;overflow=hidden;rotatable=0;points=[[0,0.5],[1,0.5]];portConstraint=eastwest;labelBackgroundColor=none;" parent="8i7Lr49_zQPxc0uf3AC--110" vertex="1">
          <mxGeometry y="40" width="350" height="26" as="geometry" />
        </mxCell>
        <mxCell id="8i7Lr49_zQPxc0uf3AC--117" value="+ AddAdditionalIngredients(ingredients: List&lt;Ingredient&gt;): void" style="text;align=left;verticalAlign=top;spacingLeft=4;spacingRight=4;overflow=hidden;rotatable=0;points=[[0,0.5],[1,0.5]];portConstraint=eastwest;fontStyle=0;whiteSpace=wrap;labelBackgroundColor=none;" parent="8i7Lr49_zQPxc0uf3AC--110" vertex="1">
          <mxGeometry y="66" width="350" height="34" as="geometry" />
        </mxCell>
        <mxCell id="8i7Lr49_zQPxc0uf3AC--116" value="" style="endArrow=block;dashed=1;endFill=0;endSize=12;html=1;rounded=0;exitX=0.5;exitY=0;exitDx=0;exitDy=0;labelBackgroundColor=none;fontColor=default;" parent="1" source="G9EN5JWeJz_nwPtttZKu-89" target="8i7Lr49_zQPxc0uf3AC--117" edge="1">
          <mxGeometry width="160" relative="1" as="geometry">
            <mxPoint x="1558" y="-683" as="sourcePoint" />
            <mxPoint x="1532.1999999999998" y="-782.7440000000001" as="targetPoint" />
            <Array as="points" />
          </mxGeometry>
        </mxCell>
        <mxCell id="8i7Lr49_zQPxc0uf3AC--120" value="" style="endArrow=diamondThin;endFill=0;endSize=24;html=1;rounded=0;labelBackgroundColor=none;fontColor=default;entryX=0.5;entryY=0;entryDx=0;entryDy=0;exitX=0.5;exitY=0;exitDx=0;exitDy=0;edgeStyle=orthogonalEdgeStyle;" parent="1" source="G9EN5JWeJz_nwPtttZKu-103" target="8i7Lr49_zQPxc0uf3AC--110" edge="1">
          <mxGeometry width="160" relative="1" as="geometry">
            <mxPoint x="1839.8823529411766" y="-782" as="sourcePoint" />
            <mxPoint x="1831.700680272109" y="-198" as="targetPoint" />
            <Array as="points">
              <mxPoint x="1870" y="-1100" />
              <mxPoint x="1550" y="-1100" />
            </Array>
          </mxGeometry>
        </mxCell>
        <mxCell id="8i7Lr49_zQPxc0uf3AC--127" value="" style="endArrow=diamondThin;endFill=0;endSize=24;html=1;rounded=0;labelBackgroundColor=none;fontColor=default;exitX=0.5;exitY=0;exitDx=0;exitDy=0;edgeStyle=orthogonalEdgeStyle;" parent="1" source="G9EN5JWeJz_nwPtttZKu-103" target="yTDWApdTZO0DoRyl30tC-16" edge="1">
          <mxGeometry width="160" relative="1" as="geometry">
            <mxPoint x="1880.5" y="-1040" as="sourcePoint" />
            <mxPoint x="1560" y="-930" as="targetPoint" />
            <Array as="points">
              <mxPoint x="1870" y="-1090" />
              <mxPoint x="2470" y="-1090" />
            </Array>
          </mxGeometry>
        </mxCell>
        <mxCell id="8i7Lr49_zQPxc0uf3AC--128" value="" style="endArrow=diamondThin;endFill=0;endSize=24;html=1;rounded=0;labelBackgroundColor=none;fontColor=default;entryX=0.75;entryY=0;entryDx=0;entryDy=0;exitX=0.5;exitY=0;exitDx=0;exitDy=0;edgeStyle=orthogonalEdgeStyle;" parent="1" source="yTDWApdTZO0DoRyl30tC-16" target="G9EN5JWeJz_nwPtttZKu-1" edge="1">
          <mxGeometry width="160" relative="1" as="geometry">
            <mxPoint x="1880.5" y="-1040" as="sourcePoint" />
            <mxPoint x="1560" y="-930" as="targetPoint" />
            <Array as="points">
              <mxPoint x="2395" y="-980" />
              <mxPoint x="1937" y="-980" />
            </Array>
          </mxGeometry>
        </mxCell>
        <mxCell id="8i7Lr49_zQPxc0uf3AC--130" value="" style="endArrow=diamondThin;endFill=0;endSize=24;html=1;rounded=0;labelBackgroundColor=none;fontColor=default;edgeStyle=orthogonalEdgeStyle;exitX=0.25;exitY=0;exitDx=0;exitDy=0;entryX=0.75;entryY=0;entryDx=0;entryDy=0;" parent="1" source="G9EN5JWeJz_nwPtttZKu-1" target="Vp7KOwkqIpcdfMKKaiIl-52" edge="1">
          <mxGeometry width="160" relative="1" as="geometry">
            <mxPoint x="1880.5" y="-1053" as="sourcePoint" />
            <mxPoint x="1055" y="-929" as="targetPoint" />
            <Array as="points">
              <mxPoint x="1812" y="-970" />
              <mxPoint x="1143" y="-970" />
            </Array>
          </mxGeometry>
        </mxCell>
        <mxCell id="8i7Lr49_zQPxc0uf3AC--131" value="" style="group" parent="1" vertex="1" connectable="0">
          <mxGeometry x="-1040" y="-368.00000000000006" width="680" height="398" as="geometry" />
        </mxCell>
        <mxCell id="Vp7KOwkqIpcdfMKKaiIl-110" value="PizzeriaData" style="swimlane;fontStyle=0;align=center;verticalAlign=top;childLayout=stackLayout;horizontal=1;startSize=30;horizontalStack=0;resizeParent=1;resizeLast=0;collapsible=1;marginBottom=0;rounded=0;shadow=0;strokeWidth=1;labelBackgroundColor=none;" parent="8i7Lr49_zQPxc0uf3AC--131" vertex="1">
          <mxGeometry width="340" height="476" as="geometry">
            <mxRectangle x="130" y="380" width="160" height="26" as="alternateBounds" />
          </mxGeometry>
        </mxCell>
        <mxCell id="Vp7KOwkqIpcdfMKKaiIl-111" value="- _manager: Manager" style="text;align=left;verticalAlign=top;spacingLeft=4;spacingRight=4;overflow=hidden;rotatable=0;points=[[0,0.5],[1,0.5]];portConstraint=eastwest;rounded=0;shadow=0;html=0;labelBackgroundColor=none;" parent="Vp7KOwkqIpcdfMKKaiIl-110" vertex="1">
          <mxGeometry y="30" width="340" height="26" as="geometry" />
        </mxCell>
        <mxCell id="Vp7KOwkqIpcdfMKKaiIl-112" value="- _staff: HashSet&lt;IStaff&gt;" style="text;align=left;verticalAlign=top;spacingLeft=4;spacingRight=4;overflow=hidden;rotatable=0;points=[[0,0.5],[1,0.5]];portConstraint=eastwest;rounded=0;shadow=0;html=0;labelBackgroundColor=none;" parent="Vp7KOwkqIpcdfMKKaiIl-110" vertex="1">
          <mxGeometry y="56" width="340" height="26" as="geometry" />
        </mxCell>
        <mxCell id="XK9j-7oEgiNXDrXOnYMV-3" value="- _chefManager: ChefManager" style="text;align=left;verticalAlign=top;spacingLeft=4;spacingRight=4;overflow=hidden;rotatable=0;points=[[0,0.5],[1,0.5]];portConstraint=eastwest;rounded=0;shadow=0;html=0;labelBackgroundColor=none;" parent="Vp7KOwkqIpcdfMKKaiIl-110" vertex="1">
          <mxGeometry y="82" width="340" height="26" as="geometry" />
        </mxCell>
        <mxCell id="Vp7KOwkqIpcdfMKKaiIl-113" value="- _loyaltyProgram: LoyaltyProgram" style="text;align=left;verticalAlign=top;spacingLeft=4;spacingRight=4;overflow=hidden;rotatable=0;points=[[0,0.5],[1,0.5]];portConstraint=eastwest;rounded=0;shadow=0;html=0;labelBackgroundColor=none;" parent="Vp7KOwkqIpcdfMKKaiIl-110" vertex="1">
          <mxGeometry y="108" width="340" height="26" as="geometry" />
        </mxCell>
        <mxCell id="Vp7KOwkqIpcdfMKKaiIl-120" value="- _menu: Menu" style="text;align=left;verticalAlign=top;spacingLeft=4;spacingRight=4;overflow=hidden;rotatable=0;points=[[0,0.5],[1,0.5]];portConstraint=eastwest;rounded=0;shadow=0;html=0;labelBackgroundColor=none;" parent="Vp7KOwkqIpcdfMKKaiIl-110" vertex="1">
          <mxGeometry y="134" width="340" height="26" as="geometry" />
        </mxCell>
        <mxCell id="Vp7KOwkqIpcdfMKKaiIl-122" value="- _cashRegs: HashSet&lt;ICashRegister&gt;" style="text;align=left;verticalAlign=top;spacingLeft=4;spacingRight=4;overflow=hidden;rotatable=0;points=[[0,0.5],[1,0.5]];portConstraint=eastwest;rounded=0;shadow=0;html=0;labelBackgroundColor=none;" parent="Vp7KOwkqIpcdfMKKaiIl-110" vertex="1">
          <mxGeometry y="160" width="340" height="26" as="geometry" />
        </mxCell>
        <mxCell id="Vp7KOwkqIpcdfMKKaiIl-139" value="+ &lt;&lt;get&gt;&gt; CashRegs: IEnumerable&lt;ICashRegister&gt;" style="text;align=left;verticalAlign=top;spacingLeft=4;spacingRight=4;overflow=hidden;rotatable=0;points=[[0,0.5],[1,0.5]];portConstraint=eastwest;rounded=0;shadow=0;html=0;labelBackgroundColor=none;" parent="Vp7KOwkqIpcdfMKKaiIl-110" vertex="1">
          <mxGeometry y="186" width="340" height="26" as="geometry" />
        </mxCell>
        <mxCell id="Vp7KOwkqIpcdfMKKaiIl-123" value="- _productStorage: Storage" style="text;align=left;verticalAlign=top;spacingLeft=4;spacingRight=4;overflow=hidden;rotatable=0;points=[[0,0.5],[1,0.5]];portConstraint=eastwest;rounded=0;shadow=0;html=0;labelBackgroundColor=none;" parent="Vp7KOwkqIpcdfMKKaiIl-110" vertex="1">
          <mxGeometry y="212" width="340" height="26" as="geometry" />
        </mxCell>
        <mxCell id="Vp7KOwkqIpcdfMKKaiIl-114" value="" style="line;html=1;strokeWidth=1;align=left;verticalAlign=middle;spacingTop=-1;spacingLeft=3;spacingRight=3;rotatable=0;labelPosition=right;points=[];portConstraint=eastwest;labelBackgroundColor=none;" parent="Vp7KOwkqIpcdfMKKaiIl-110" vertex="1">
          <mxGeometry y="238" width="340" height="8" as="geometry" />
        </mxCell>
        <mxCell id="Vp7KOwkqIpcdfMKKaiIl-125" value="+ &lt;&lt;create&gt;&gt;PizzeriaData(args: object[]): PizzeriaData" style="text;align=left;verticalAlign=top;spacingLeft=4;spacingRight=4;overflow=hidden;rotatable=0;points=[[0,0.5],[1,0.5]];portConstraint=eastwest;rounded=0;shadow=0;html=0;fontStyle=0;labelBackgroundColor=none;" parent="Vp7KOwkqIpcdfMKKaiIl-110" vertex="1">
          <mxGeometry y="246" width="340" height="26" as="geometry" />
        </mxCell>
        <mxCell id="Vp7KOwkqIpcdfMKKaiIl-115" value="+ GetStaffInfo(staff: IStaff): void" style="text;align=left;verticalAlign=top;spacingLeft=4;spacingRight=4;overflow=hidden;rotatable=0;points=[[0,0.5],[1,0.5]];portConstraint=eastwest;rounded=0;shadow=0;html=0;fontStyle=0;labelBackgroundColor=none;" parent="Vp7KOwkqIpcdfMKKaiIl-110" vertex="1">
          <mxGeometry y="272" width="340" height="26" as="geometry" />
        </mxCell>
        <mxCell id="Vp7KOwkqIpcdfMKKaiIl-116" value="+ SetVipStatus(customer: Customer, &#xa;status: HashSet&lt;VipLvl&gt;): void" style="text;align=left;verticalAlign=top;spacingLeft=4;spacingRight=4;overflow=hidden;rotatable=0;points=[[0,0.5],[1,0.5]];portConstraint=eastwest;rounded=0;shadow=0;html=0;fontStyle=0;labelBackgroundColor=none;" parent="Vp7KOwkqIpcdfMKKaiIl-110" vertex="1">
          <mxGeometry y="298" width="340" height="48" as="geometry" />
        </mxCell>
        <mxCell id="Vp7KOwkqIpcdfMKKaiIl-117" value="+ AddStaff(staff: IStaff): void" style="text;align=left;verticalAlign=top;spacingLeft=4;spacingRight=4;overflow=hidden;rotatable=0;points=[[0,0.5],[1,0.5]];portConstraint=eastwest;rounded=0;shadow=0;html=0;fontStyle=0;labelBackgroundColor=none;" parent="Vp7KOwkqIpcdfMKKaiIl-110" vertex="1">
          <mxGeometry y="346" width="340" height="26" as="geometry" />
        </mxCell>
        <mxCell id="Vp7KOwkqIpcdfMKKaiIl-118" value="+ RemoveStaff(staff: IStaff): void" style="text;align=left;verticalAlign=top;spacingLeft=4;spacingRight=4;overflow=hidden;rotatable=0;points=[[0,0.5],[1,0.5]];portConstraint=eastwest;rounded=0;shadow=0;html=0;fontStyle=0;labelBackgroundColor=none;" parent="Vp7KOwkqIpcdfMKKaiIl-110" vertex="1">
          <mxGeometry y="372" width="340" height="26" as="geometry" />
        </mxCell>
        <mxCell id="XK9j-7oEgiNXDrXOnYMV-6" value="+ RemoveICashRegister(cashRegister: ICashRegister): void" style="text;align=left;verticalAlign=top;spacingLeft=4;spacingRight=4;overflow=hidden;rotatable=0;points=[[0,0.5],[1,0.5]];portConstraint=eastwest;rounded=0;shadow=0;html=0;fontStyle=0;labelBackgroundColor=none;" parent="Vp7KOwkqIpcdfMKKaiIl-110" vertex="1">
          <mxGeometry y="398" width="340" height="26" as="geometry" />
        </mxCell>
        <mxCell id="XK9j-7oEgiNXDrXOnYMV-5" value="+ AddICashRegister(cashRegister: ICashRegister): void" style="text;align=left;verticalAlign=top;spacingLeft=4;spacingRight=4;overflow=hidden;rotatable=0;points=[[0,0.5],[1,0.5]];portConstraint=eastwest;rounded=0;shadow=0;html=0;fontStyle=0;labelBackgroundColor=none;" parent="Vp7KOwkqIpcdfMKKaiIl-110" vertex="1">
          <mxGeometry y="424" width="340" height="26" as="geometry" />
        </mxCell>
        <mxCell id="Vp7KOwkqIpcdfMKKaiIl-119" value="+ SetManager(name: string, id: Guid): void" style="text;align=left;verticalAlign=top;spacingLeft=4;spacingRight=4;overflow=hidden;rotatable=0;points=[[0,0.5],[1,0.5]];portConstraint=eastwest;rounded=0;shadow=0;html=0;fontStyle=0;labelBackgroundColor=none;" parent="Vp7KOwkqIpcdfMKKaiIl-110" vertex="1">
          <mxGeometry y="450" width="340" height="26" as="geometry" />
        </mxCell>
        <mxCell id="8i7Lr49_zQPxc0uf3AC--85" value="" style="group" parent="8i7Lr49_zQPxc0uf3AC--131" vertex="1" connectable="0">
          <mxGeometry x="360" y="1" width="320" height="200" as="geometry" />
        </mxCell>
        <mxCell id="bsfdR2ASljnAakVN_pzH-16" value="" style="rounded=0;whiteSpace=wrap;html=1;fillColor=#f8cecc;strokeColor=#b85450;" vertex="1" parent="8i7Lr49_zQPxc0uf3AC--85">
          <mxGeometry x="160" y="27" width="150" height="153" as="geometry" />
        </mxCell>
        <mxCell id="bsfdR2ASljnAakVN_pzH-13" value="" style="rounded=0;whiteSpace=wrap;html=1;fillColor=#d5e8d4;strokeColor=#82b366;" vertex="1" parent="8i7Lr49_zQPxc0uf3AC--85">
          <mxGeometry x="10" y="37" width="150" height="163" as="geometry" />
        </mxCell>
        <mxCell id="ViWVULLcjfLXoIwgi1Q9-63" value="PizzeriaData" style="shape=umlFrame;whiteSpace=wrap;html=1;pointerEvents=0;width=100;height=31;labelBackgroundColor=none;" parent="8i7Lr49_zQPxc0uf3AC--85" vertex="1">
          <mxGeometry width="320" height="200" as="geometry" />
        </mxCell>
        <mxCell id="ViWVULLcjfLXoIwgi1Q9-54" value="&lt;&lt;enumeration&gt;&gt;&#xa;Category" style="swimlane;fontStyle=0;align=center;verticalAlign=top;childLayout=stackLayout;horizontal=1;startSize=40;horizontalStack=0;resizeParent=1;resizeLast=0;collapsible=1;marginBottom=0;rounded=0;shadow=0;strokeWidth=1;labelBackgroundColor=none;" parent="8i7Lr49_zQPxc0uf3AC--85" vertex="1">
          <mxGeometry x="170" y="41" width="130" height="120" as="geometry">
            <mxRectangle x="130" y="380" width="160" height="26" as="alternateBounds" />
          </mxGeometry>
        </mxCell>
        <mxCell id="ViWVULLcjfLXoIwgi1Q9-55" value="Drinks" style="text;align=left;verticalAlign=top;spacingLeft=4;spacingRight=4;overflow=hidden;rotatable=0;points=[[0,0.5],[1,0.5]];portConstraint=eastwest;rounded=0;shadow=0;html=0;labelBackgroundColor=none;" parent="ViWVULLcjfLXoIwgi1Q9-54" vertex="1">
          <mxGeometry y="40" width="130" height="26" as="geometry" />
        </mxCell>
        <mxCell id="ViWVULLcjfLXoIwgi1Q9-56" value="Pizzas" style="text;align=left;verticalAlign=top;spacingLeft=4;spacingRight=4;overflow=hidden;rotatable=0;points=[[0,0.5],[1,0.5]];portConstraint=eastwest;rounded=0;shadow=0;html=0;labelBackgroundColor=none;" parent="ViWVULLcjfLXoIwgi1Q9-54" vertex="1">
          <mxGeometry y="66" width="130" height="26" as="geometry" />
        </mxCell>
        <mxCell id="ViWVULLcjfLXoIwgi1Q9-57" value="Sweets" style="text;align=left;verticalAlign=top;spacingLeft=4;spacingRight=4;overflow=hidden;rotatable=0;points=[[0,0.5],[1,0.5]];portConstraint=eastwest;rounded=0;shadow=0;html=0;labelBackgroundColor=none;" parent="ViWVULLcjfLXoIwgi1Q9-54" vertex="1">
          <mxGeometry y="92" width="130" height="26" as="geometry" />
        </mxCell>
        <mxCell id="ViWVULLcjfLXoIwgi1Q9-58" value="&lt;&lt;enumeration&gt;&gt;&#xa;VipLvl" style="swimlane;fontStyle=0;align=center;verticalAlign=top;childLayout=stackLayout;horizontal=1;startSize=40;horizontalStack=0;resizeParent=1;resizeLast=0;collapsible=1;marginBottom=0;rounded=0;shadow=0;strokeWidth=1;labelBackgroundColor=none;" parent="8i7Lr49_zQPxc0uf3AC--85" vertex="1">
          <mxGeometry x="20" y="41" width="130" height="144" as="geometry">
            <mxRectangle x="130" y="380" width="160" height="26" as="alternateBounds" />
          </mxGeometry>
        </mxCell>
        <mxCell id="ViWVULLcjfLXoIwgi1Q9-59" value="None" style="text;align=left;verticalAlign=top;spacingLeft=4;spacingRight=4;overflow=hidden;rotatable=0;points=[[0,0.5],[1,0.5]];portConstraint=eastwest;rounded=0;shadow=0;html=0;labelBackgroundColor=none;" parent="ViWVULLcjfLXoIwgi1Q9-58" vertex="1">
          <mxGeometry y="40" width="130" height="26" as="geometry" />
        </mxCell>
        <mxCell id="ViWVULLcjfLXoIwgi1Q9-60" value="Bronze" style="text;align=left;verticalAlign=top;spacingLeft=4;spacingRight=4;overflow=hidden;rotatable=0;points=[[0,0.5],[1,0.5]];portConstraint=eastwest;rounded=0;shadow=0;html=0;labelBackgroundColor=none;" parent="ViWVULLcjfLXoIwgi1Q9-58" vertex="1">
          <mxGeometry y="66" width="130" height="26" as="geometry" />
        </mxCell>
        <mxCell id="ViWVULLcjfLXoIwgi1Q9-61" value="Silver" style="text;align=left;verticalAlign=top;spacingLeft=4;spacingRight=4;overflow=hidden;rotatable=0;points=[[0,0.5],[1,0.5]];portConstraint=eastwest;rounded=0;shadow=0;html=0;labelBackgroundColor=none;" parent="ViWVULLcjfLXoIwgi1Q9-58" vertex="1">
          <mxGeometry y="92" width="130" height="26" as="geometry" />
        </mxCell>
        <mxCell id="ViWVULLcjfLXoIwgi1Q9-62" value="Gold" style="text;align=left;verticalAlign=top;spacingLeft=4;spacingRight=4;overflow=hidden;rotatable=0;points=[[0,0.5],[1,0.5]];portConstraint=eastwest;rounded=0;shadow=0;html=0;labelBackgroundColor=none;" parent="ViWVULLcjfLXoIwgi1Q9-58" vertex="1">
          <mxGeometry y="118" width="130" height="26" as="geometry" />
        </mxCell>
        <mxCell id="8i7Lr49_zQPxc0uf3AC--133" value="" style="group" parent="1" vertex="1" connectable="0">
          <mxGeometry x="-520" y="-925" width="560" height="246" as="geometry" />
        </mxCell>
        <mxCell id="Vp7KOwkqIpcdfMKKaiIl-10" value="Wallet" style="swimlane;fontStyle=0;align=center;verticalAlign=top;childLayout=stackLayout;horizontal=1;startSize=30;horizontalStack=0;resizeParent=1;resizeLast=0;collapsible=1;marginBottom=0;rounded=0;shadow=0;strokeWidth=1;labelBackgroundColor=none;" parent="8i7Lr49_zQPxc0uf3AC--133" vertex="1">
          <mxGeometry width="380" height="246" as="geometry">
            <mxRectangle x="700" y="-606" width="160" height="26" as="alternateBounds" />
          </mxGeometry>
        </mxCell>
        <mxCell id="Vp7KOwkqIpcdfMKKaiIl-11" value="- _moneyCount: decimal" style="text;align=left;verticalAlign=top;spacingLeft=4;spacingRight=4;overflow=hidden;rotatable=0;points=[[0,0.5],[1,0.5]];portConstraint=eastwest;rounded=0;shadow=0;html=0;labelBackgroundColor=none;" parent="Vp7KOwkqIpcdfMKKaiIl-10" vertex="1">
          <mxGeometry y="30" width="380" height="26" as="geometry" />
        </mxCell>
        <mxCell id="Vp7KOwkqIpcdfMKKaiIl-12" value="+ &lt;&lt;get&gt;&gt; MoneyCount: decimal" style="text;align=left;verticalAlign=top;spacingLeft=4;spacingRight=4;overflow=hidden;rotatable=0;points=[[0,0.5],[1,0.5]];portConstraint=eastwest;rounded=0;shadow=0;html=0;labelBackgroundColor=none;" parent="Vp7KOwkqIpcdfMKKaiIl-10" vertex="1">
          <mxGeometry y="56" width="380" height="26" as="geometry" />
        </mxCell>
        <mxCell id="Vp7KOwkqIpcdfMKKaiIl-13" value="- _id: Guid" style="text;align=left;verticalAlign=top;spacingLeft=4;spacingRight=4;overflow=hidden;rotatable=0;points=[[0,0.5],[1,0.5]];portConstraint=eastwest;rounded=0;shadow=0;html=0;labelBackgroundColor=none;" parent="Vp7KOwkqIpcdfMKKaiIl-10" vertex="1">
          <mxGeometry y="82" width="380" height="26" as="geometry" />
        </mxCell>
        <mxCell id="ViWVULLcjfLXoIwgi1Q9-81" value="+ &lt;&lt;get&gt;&gt; Id: Guid" style="text;align=left;verticalAlign=top;spacingLeft=4;spacingRight=4;overflow=hidden;rotatable=0;points=[[0,0.5],[1,0.5]];portConstraint=eastwest;rounded=0;shadow=0;html=0;labelBackgroundColor=none;" parent="Vp7KOwkqIpcdfMKKaiIl-10" vertex="1">
          <mxGeometry y="108" width="380" height="26" as="geometry" />
        </mxCell>
        <mxCell id="ViWVULLcjfLXoIwgi1Q9-80" value="- _category: MoneyCategory" style="text;align=left;verticalAlign=top;spacingLeft=4;spacingRight=4;overflow=hidden;rotatable=0;points=[[0,0.5],[1,0.5]];portConstraint=eastwest;rounded=0;shadow=0;html=0;labelBackgroundColor=none;" parent="Vp7KOwkqIpcdfMKKaiIl-10" vertex="1">
          <mxGeometry y="134" width="380" height="26" as="geometry" />
        </mxCell>
        <mxCell id="Vp7KOwkqIpcdfMKKaiIl-14" value="+ Category: MoneyCategory" style="text;align=left;verticalAlign=top;spacingLeft=4;spacingRight=4;overflow=hidden;rotatable=0;points=[[0,0.5],[1,0.5]];portConstraint=eastwest;rounded=0;shadow=0;html=0;labelBackgroundColor=none;" parent="Vp7KOwkqIpcdfMKKaiIl-10" vertex="1">
          <mxGeometry y="160" width="380" height="26" as="geometry" />
        </mxCell>
        <mxCell id="Vp7KOwkqIpcdfMKKaiIl-15" value="" style="line;html=1;strokeWidth=1;align=left;verticalAlign=middle;spacingTop=-1;spacingLeft=3;spacingRight=3;rotatable=0;labelPosition=right;points=[];portConstraint=eastwest;labelBackgroundColor=none;" parent="Vp7KOwkqIpcdfMKKaiIl-10" vertex="1">
          <mxGeometry y="186" width="380" height="8" as="geometry" />
        </mxCell>
        <mxCell id="Vp7KOwkqIpcdfMKKaiIl-16" value="+ Pay(count: decimal, receiver: Wallet): void" style="text;align=left;verticalAlign=top;spacingLeft=4;spacingRight=4;overflow=hidden;rotatable=0;points=[[0,0.5],[1,0.5]];portConstraint=eastwest;rounded=0;shadow=0;html=0;fontStyle=0;labelBackgroundColor=none;" parent="Vp7KOwkqIpcdfMKKaiIl-10" vertex="1">
          <mxGeometry y="194" width="380" height="26" as="geometry" />
        </mxCell>
        <mxCell id="Vp7KOwkqIpcdfMKKaiIl-18" value="+ SetMoney(count: decimal): void" style="text;align=left;verticalAlign=top;spacingLeft=4;spacingRight=4;overflow=hidden;rotatable=0;points=[[0,0.5],[1,0.5]];portConstraint=eastwest;rounded=0;shadow=0;html=0;fontStyle=0;labelBackgroundColor=none;" parent="Vp7KOwkqIpcdfMKKaiIl-10" vertex="1">
          <mxGeometry y="220" width="380" height="26" as="geometry" />
        </mxCell>
        <mxCell id="8i7Lr49_zQPxc0uf3AC--132" value="" style="group" parent="8i7Lr49_zQPxc0uf3AC--133" vertex="1" connectable="0">
          <mxGeometry x="390" y="1" width="170" height="170" as="geometry" />
        </mxCell>
        <mxCell id="ViWVULLcjfLXoIwgi1Q9-74" value="Wallet" style="shape=umlFrame;whiteSpace=wrap;html=1;pointerEvents=0;width=100;height=20;labelBackgroundColor=none;" parent="8i7Lr49_zQPxc0uf3AC--132" vertex="1">
          <mxGeometry width="170" height="170" as="geometry" />
        </mxCell>
        <mxCell id="ViWVULLcjfLXoIwgi1Q9-75" value="&lt;&lt;enumeration&gt;&gt;&#xa;MoneyCategory" style="swimlane;fontStyle=0;align=center;verticalAlign=top;childLayout=stackLayout;horizontal=1;startSize=40;horizontalStack=0;resizeParent=1;resizeLast=0;collapsible=1;marginBottom=0;rounded=0;shadow=0;strokeWidth=1;labelBackgroundColor=none;" parent="8i7Lr49_zQPxc0uf3AC--132" vertex="1">
          <mxGeometry x="21" y="30" width="130" height="127" as="geometry">
            <mxRectangle x="130" y="380" width="160" height="26" as="alternateBounds" />
          </mxGeometry>
        </mxCell>
        <mxCell id="ViWVULLcjfLXoIwgi1Q9-76" value="Cashe" style="text;align=left;verticalAlign=top;spacingLeft=4;spacingRight=4;overflow=hidden;rotatable=0;points=[[0,0.5],[1,0.5]];portConstraint=eastwest;rounded=0;shadow=0;html=0;labelBackgroundColor=none;" parent="ViWVULLcjfLXoIwgi1Q9-75" vertex="1">
          <mxGeometry y="40" width="130" height="26" as="geometry" />
        </mxCell>
        <mxCell id="ViWVULLcjfLXoIwgi1Q9-77" value="PaymentService" style="text;align=left;verticalAlign=top;spacingLeft=4;spacingRight=4;overflow=hidden;rotatable=0;points=[[0,0.5],[1,0.5]];portConstraint=eastwest;rounded=0;shadow=0;html=0;labelBackgroundColor=none;" parent="ViWVULLcjfLXoIwgi1Q9-75" vertex="1">
          <mxGeometry y="66" width="130" height="26" as="geometry" />
        </mxCell>
        <mxCell id="ViWVULLcjfLXoIwgi1Q9-78" value="Card" style="text;align=left;verticalAlign=top;spacingLeft=4;spacingRight=4;overflow=hidden;rotatable=0;points=[[0,0.5],[1,0.5]];portConstraint=eastwest;rounded=0;shadow=0;html=0;labelBackgroundColor=none;" parent="ViWVULLcjfLXoIwgi1Q9-75" vertex="1">
          <mxGeometry y="92" width="130" height="26" as="geometry" />
        </mxCell>
        <mxCell id="G9EN5JWeJz_nwPtttZKu-99" value="Chef" style="swimlane;fontStyle=1;align=center;verticalAlign=top;childLayout=stackLayout;horizontal=1;startSize=26;horizontalStack=0;resizeParent=1;resizeParentMax=0;resizeLast=0;collapsible=1;marginBottom=0;labelBackgroundColor=none;" parent="1" vertex="1">
          <mxGeometry x="-2280" y="-830" width="240" height="192" as="geometry" />
        </mxCell>
        <mxCell id="Vp7KOwkqIpcdfMKKaiIl-82" value="+ &lt;delegate&gt; ChefIsFree(Chef)" style="text;strokeColor=none;fillColor=none;align=left;verticalAlign=top;spacingLeft=4;spacingRight=4;overflow=hidden;rotatable=0;points=[[0,0.5],[1,0.5]];portConstraint=eastwest;labelBackgroundColor=none;" parent="G9EN5JWeJz_nwPtttZKu-99" vertex="1">
          <mxGeometry y="26" width="240" height="32" as="geometry" />
        </mxCell>
        <mxCell id="G9EN5JWeJz_nwPtttZKu-100" value="- _ingredientsStorage : Storage&#xa;- _readyIngredients : Storage&#xa;- _ingredientsToOperate : List&lt;Ingredient&gt;" style="text;strokeColor=none;fillColor=none;align=left;verticalAlign=top;spacingLeft=4;spacingRight=4;overflow=hidden;rotatable=0;points=[[0,0.5],[1,0.5]];portConstraint=eastwest;labelBackgroundColor=none;" parent="G9EN5JWeJz_nwPtttZKu-99" vertex="1">
          <mxGeometry y="58" width="240" height="54" as="geometry" />
        </mxCell>
        <mxCell id="G9EN5JWeJz_nwPtttZKu-101" value="" style="line;strokeWidth=1;fillColor=none;align=left;verticalAlign=middle;spacingTop=-1;spacingLeft=3;spacingRight=3;rotatable=0;labelPosition=right;points=[];portConstraint=eastwest;labelBackgroundColor=none;" parent="G9EN5JWeJz_nwPtttZKu-99" vertex="1">
          <mxGeometry y="112" width="240" height="8" as="geometry" />
        </mxCell>
        <mxCell id="G9EN5JWeJz_nwPtttZKu-102" value="+ ChefCategory : HashSet&lt;Category&gt;&#xa;+ AddDish(dish: IOffer) : void&#xa;+ Cook() : void&#xa;+ PutIngredientToStorage() : void" style="text;align=left;verticalAlign=top;spacingLeft=4;spacingRight=4;overflow=hidden;rotatable=0;points=[[0,0.5],[1,0.5]];portConstraint=eastwest;labelBackgroundColor=none;" parent="G9EN5JWeJz_nwPtttZKu-99" vertex="1">
          <mxGeometry y="120" width="240" height="72" as="geometry" />
        </mxCell>
        <mxCell id="Vp7KOwkqIpcdfMKKaiIl-21" value="Manager" style="swimlane;fontStyle=0;align=center;verticalAlign=top;childLayout=stackLayout;horizontal=1;startSize=30;horizontalStack=0;resizeParent=1;resizeLast=0;collapsible=1;marginBottom=0;rounded=0;shadow=0;strokeWidth=1;labelBackgroundColor=none;" parent="1" vertex="1">
          <mxGeometry x="-950" y="-815" width="275" height="130" as="geometry">
            <mxRectangle x="130" y="380" width="160" height="26" as="alternateBounds" />
          </mxGeometry>
        </mxCell>
        <mxCell id="Vp7KOwkqIpcdfMKKaiIl-22" value="- _menu: Menu" style="text;align=left;verticalAlign=top;spacingLeft=4;spacingRight=4;overflow=hidden;rotatable=0;points=[[0,0.5],[1,0.5]];portConstraint=eastwest;rounded=0;shadow=0;html=0;labelBackgroundColor=none;" parent="Vp7KOwkqIpcdfMKKaiIl-21" vertex="1">
          <mxGeometry y="30" width="275" height="26" as="geometry" />
        </mxCell>
        <mxCell id="Vp7KOwkqIpcdfMKKaiIl-26" value="" style="line;html=1;strokeWidth=1;align=left;verticalAlign=middle;spacingTop=-1;spacingLeft=3;spacingRight=3;rotatable=0;labelPosition=right;points=[];portConstraint=eastwest;labelBackgroundColor=none;" parent="Vp7KOwkqIpcdfMKKaiIl-21" vertex="1">
          <mxGeometry y="56" width="275" height="8" as="geometry" />
        </mxCell>
        <mxCell id="Vp7KOwkqIpcdfMKKaiIl-75" value="+ &lt;&lt;create&gt;&gt;Manager(menu: Menu): Manager" style="text;align=left;verticalAlign=top;spacingLeft=4;spacingRight=4;overflow=hidden;rotatable=0;points=[[0,0.5],[1,0.5]];portConstraint=eastwest;rounded=0;shadow=0;html=0;fontStyle=0;labelBackgroundColor=none;" parent="Vp7KOwkqIpcdfMKKaiIl-21" vertex="1">
          <mxGeometry y="64" width="275" height="26" as="geometry" />
        </mxCell>
        <mxCell id="ViWVULLcjfLXoIwgi1Q9-8" value="+ AddOffer(baseRecipe: Recipe, &#xa;additionalIngredients: List&lt;Ingredients&gt;?): void" style="text;align=left;verticalAlign=top;spacingLeft=4;spacingRight=4;overflow=hidden;rotatable=0;points=[[0,0.5],[1,0.5]];portConstraint=eastwest;rounded=0;shadow=0;html=0;fontStyle=0;labelBackgroundColor=none;" parent="Vp7KOwkqIpcdfMKKaiIl-21" vertex="1">
          <mxGeometry y="90" width="275" height="40" as="geometry" />
        </mxCell>
        <mxCell id="Vp7KOwkqIpcdfMKKaiIl-80" value="&lt;&lt;interface&gt;&gt; &#xa;IStaff&#xa;" style="swimlane;fontStyle=1;align=center;verticalAlign=top;childLayout=stackLayout;horizontal=1;startSize=40;horizontalStack=0;resizeParent=1;resizeParentMax=0;resizeLast=0;collapsible=1;marginBottom=0;labelBackgroundColor=none;" parent="1" vertex="1">
          <mxGeometry x="-1300" y="-1081" width="240" height="72" as="geometry" />
        </mxCell>
        <mxCell id="Vp7KOwkqIpcdfMKKaiIl-90" value="+ &lt;&lt;get&gt;&gt; Info: string" style="text;strokeColor=none;fillColor=none;align=left;verticalAlign=top;spacingLeft=4;spacingRight=4;overflow=hidden;rotatable=0;points=[[0,0.5],[1,0.5]];portConstraint=eastwest;labelBackgroundColor=none;" parent="Vp7KOwkqIpcdfMKKaiIl-80" vertex="1">
          <mxGeometry y="40" width="240" height="32" as="geometry" />
        </mxCell>
        <mxCell id="G9EN5JWeJz_nwPtttZKu-110" value="ChefManager" style="swimlane;fontStyle=1;align=center;verticalAlign=top;childLayout=stackLayout;horizontal=1;startSize=26;horizontalStack=0;resizeParent=1;resizeParentMax=0;resizeLast=0;collapsible=1;marginBottom=0;labelBackgroundColor=none;" parent="1" vertex="1">
          <mxGeometry x="-2000" y="-810" width="340" height="200" as="geometry" />
        </mxCell>
        <mxCell id="G9EN5JWeJz_nwPtttZKu-111" value="+ ChefCatalogue: HashSet&lt;Chef&gt;&#xa;+ UndividedDishes : Dictionary&lt;Order, Dictionary&lt;IOffer, uint&gt;&gt;" style="text;strokeColor=none;fillColor=none;align=left;verticalAlign=top;spacingLeft=4;spacingRight=4;overflow=hidden;rotatable=0;points=[[0,0.5],[1,0.5]];portConstraint=eastwest;labelBackgroundColor=none;" parent="G9EN5JWeJz_nwPtttZKu-110" vertex="1">
          <mxGeometry y="26" width="340" height="54" as="geometry" />
        </mxCell>
        <mxCell id="G9EN5JWeJz_nwPtttZKu-112" value="" style="line;strokeWidth=1;fillColor=none;align=left;verticalAlign=middle;spacingTop=-1;spacingLeft=3;spacingRight=3;rotatable=0;labelPosition=right;points=[];portConstraint=eastwest;labelBackgroundColor=none;" parent="G9EN5JWeJz_nwPtttZKu-110" vertex="1">
          <mxGeometry y="80" width="340" height="8" as="geometry" />
        </mxCell>
        <mxCell id="G9EN5JWeJz_nwPtttZKu-113" value="+ SetChefCategory(Chef, Category) : void&#xa;+ SetChefsRelation(Chef, Chef): void&#xa;+ AddOrder(order: Order) : void&#xa;+ DivideOrder() : void" style="text;strokeColor=none;fillColor=none;align=left;verticalAlign=top;spacingLeft=4;spacingRight=4;overflow=hidden;rotatable=0;points=[[0,0.5],[1,0.5]];portConstraint=eastwest;labelBackgroundColor=none;" parent="G9EN5JWeJz_nwPtttZKu-110" vertex="1">
          <mxGeometry y="88" width="340" height="82" as="geometry" />
        </mxCell>
        <mxCell id="ViWVULLcjfLXoIwgi1Q9-88" value="+ SetChefStorage(Chef, Storage) : void&#xa;" style="text;strokeColor=none;fillColor=none;align=left;verticalAlign=top;spacingLeft=4;spacingRight=4;overflow=hidden;rotatable=0;points=[[0,0.5],[1,0.5]];portConstraint=eastwest;labelBackgroundColor=none;" parent="G9EN5JWeJz_nwPtttZKu-110" vertex="1">
          <mxGeometry y="170" width="340" height="30" as="geometry" />
        </mxCell>
        <mxCell id="G9EN5JWeJz_nwPtttZKu-118" value="Waiter" style="swimlane;fontStyle=1;align=center;verticalAlign=top;childLayout=stackLayout;horizontal=1;startSize=26;horizontalStack=0;resizeParent=1;resizeParentMax=0;resizeLast=0;collapsible=1;marginBottom=0;labelBackgroundColor=none;movable=1;resizable=1;rotatable=1;deletable=1;editable=1;connectable=1;" parent="1" vertex="1">
          <mxGeometry x="-1280" y="-811" width="292.5" height="182" as="geometry" />
        </mxCell>
        <mxCell id="Vp7KOwkqIpcdfMKKaiIl-83" value="+ &lt;delegate&gt; OrderIsCompleted(Order)" style="text;strokeColor=none;fillColor=none;align=left;verticalAlign=top;spacingLeft=4;spacingRight=4;overflow=hidden;rotatable=0;points=[[0,0.5],[1,0.5]];portConstraint=eastwest;labelBackgroundColor=none;" parent="G9EN5JWeJz_nwPtttZKu-118" vertex="1">
          <mxGeometry y="26" width="292.5" height="30" as="geometry" />
        </mxCell>
        <mxCell id="G9EN5JWeJz_nwPtttZKu-119" value="- _dishStorage : Storage&#xa;- _uncompletedOrders : List&lt;Order&gt;&#xa;" style="text;strokeColor=none;fillColor=none;align=left;verticalAlign=top;spacingLeft=4;spacingRight=4;overflow=hidden;rotatable=0;points=[[0,0.5],[1,0.5]];portConstraint=eastwest;labelBackgroundColor=none;" parent="G9EN5JWeJz_nwPtttZKu-118" vertex="1">
          <mxGeometry y="56" width="292.5" height="54" as="geometry" />
        </mxCell>
        <mxCell id="G9EN5JWeJz_nwPtttZKu-120" value="" style="line;strokeWidth=1;fillColor=none;align=left;verticalAlign=middle;spacingTop=-1;spacingLeft=3;spacingRight=3;rotatable=0;labelPosition=right;points=[];portConstraint=eastwest;labelBackgroundColor=none;" parent="G9EN5JWeJz_nwPtttZKu-118" vertex="1">
          <mxGeometry y="110" width="292.5" height="8" as="geometry" />
        </mxCell>
        <mxCell id="G9EN5JWeJz_nwPtttZKu-121" value="- FormOrder() : void" style="text;strokeColor=none;fillColor=none;align=left;verticalAlign=top;spacingLeft=4;spacingRight=4;overflow=hidden;rotatable=0;points=[[0,0.5],[1,0.5]];portConstraint=eastwest;labelBackgroundColor=none;" parent="G9EN5JWeJz_nwPtttZKu-118" vertex="1">
          <mxGeometry y="118" width="292.5" height="32" as="geometry" />
        </mxCell>
        <mxCell id="ViWVULLcjfLXoIwgi1Q9-3" value="- InformReadyOrder(order: Order) : void" style="text;strokeColor=none;fillColor=none;align=left;verticalAlign=top;spacingLeft=4;spacingRight=4;overflow=hidden;rotatable=0;points=[[0,0.5],[1,0.5]];portConstraint=eastwest;labelBackgroundColor=none;" parent="G9EN5JWeJz_nwPtttZKu-118" vertex="1">
          <mxGeometry y="150" width="292.5" height="32" as="geometry" />
        </mxCell>
        <mxCell id="XK9j-7oEgiNXDrXOnYMV-7" value="Use" style="endArrow=open;endSize=12;dashed=1;html=1;rounded=0;edgeStyle=orthogonalEdgeStyle;" parent="1" source="Vp7KOwkqIpcdfMKKaiIl-76" target="G9EN5JWeJz_nwPtttZKu-5" edge="1">
          <mxGeometry width="160" relative="1" as="geometry">
            <mxPoint x="-1330" y="110" as="sourcePoint" />
            <mxPoint x="-1170" y="110" as="targetPoint" />
            <Array as="points">
              <mxPoint x="-1280" y="-460" />
              <mxPoint x="150" y="-460" />
            </Array>
          </mxGeometry>
        </mxCell>
        <mxCell id="XK9j-7oEgiNXDrXOnYMV-12" value="" style="group" parent="1" vertex="1" connectable="0">
          <mxGeometry x="-2480" y="-250" width="420" height="250" as="geometry" />
        </mxCell>
        <mxCell id="XK9j-7oEgiNXDrXOnYMV-8" value="&lt;&lt;interface&gt;&gt; &#xa;IChangable&#xa;" style="swimlane;fontStyle=1;align=center;verticalAlign=top;childLayout=stackLayout;horizontal=1;startSize=40;horizontalStack=0;resizeParent=1;resizeParentMax=0;resizeLast=0;collapsible=1;marginBottom=0;labelBackgroundColor=none;fillColor=#a20025;strokeColor=#6F0000;fontColor=#ffffff;" parent="XK9j-7oEgiNXDrXOnYMV-12" vertex="1">
          <mxGeometry x="170" y="30" width="240" height="72" as="geometry" />
        </mxCell>
        <mxCell id="XK9j-7oEgiNXDrXOnYMV-9" value="+ &lt;&lt;event&gt;&gt; Change: void" style="text;strokeColor=none;fillColor=none;align=left;verticalAlign=top;spacingLeft=4;spacingRight=4;overflow=hidden;rotatable=0;points=[[0,0.5],[1,0.5]];portConstraint=eastwest;labelBackgroundColor=none;" parent="XK9j-7oEgiNXDrXOnYMV-8" vertex="1">
          <mxGeometry y="40" width="240" height="32" as="geometry" />
        </mxCell>
        <mxCell id="XK9j-7oEgiNXDrXOnYMV-10" value="&lt;h1&gt;Моніторинг змін&lt;/h1&gt;&lt;p&gt;Усі класи що будуть моніторитись, повинні реалізувати цей інтерфейс і передавати зміни у подію. Усі зміни записуватимуться у JSON файлі. Є ще варіант зберігати дані у базі даних, і коли відбувається зміна у базі через EntityFramework відображати змінені елементи одразу у візуалізаторі&lt;/p&gt;" style="text;html=1;strokeColor=none;fillColor=none;spacing=5;spacingTop=-20;whiteSpace=wrap;overflow=hidden;rounded=0;" parent="XK9j-7oEgiNXDrXOnYMV-12" vertex="1">
          <mxGeometry x="10" y="10" width="190" height="240" as="geometry" />
        </mxCell>
        <mxCell id="XK9j-7oEgiNXDrXOnYMV-11" value="" style="rounded=0;whiteSpace=wrap;html=1;fillColor=none;" parent="XK9j-7oEgiNXDrXOnYMV-12" vertex="1">
          <mxGeometry width="420" height="250" as="geometry" />
        </mxCell>
        <mxCell id="XK9j-7oEgiNXDrXOnYMV-19" value="" style="endArrow=diamondThin;endFill=0;endSize=24;html=1;rounded=0;edgeStyle=orthogonalEdgeStyle;" parent="1" source="G9EN5JWeJz_nwPtttZKu-13" target="Vp7KOwkqIpcdfMKKaiIl-132" edge="1">
          <mxGeometry width="160" relative="1" as="geometry">
            <mxPoint x="-2250" y="170" as="sourcePoint" />
            <mxPoint x="-2090" y="170" as="targetPoint" />
            <Array as="points">
              <mxPoint x="-1910" y="-13" />
            </Array>
          </mxGeometry>
        </mxCell>
        <mxCell id="XK9j-7oEgiNXDrXOnYMV-20" value="Use" style="endArrow=open;endSize=12;dashed=1;html=1;rounded=0;edgeStyle=orthogonalEdgeStyle;" parent="1" source="G9EN5JWeJz_nwPtttZKu-1" target="Vp7KOwkqIpcdfMKKaiIl-110" edge="1">
          <mxGeometry width="160" relative="1" as="geometry">
            <mxPoint x="580" y="-400" as="sourcePoint" />
            <mxPoint x="740" y="-400" as="targetPoint" />
            <Array as="points">
              <mxPoint x="1875" y="-20" />
            </Array>
          </mxGeometry>
        </mxCell>
        <mxCell id="XK9j-7oEgiNXDrXOnYMV-21" value="" style="endArrow=diamondThin;endFill=1;endSize=24;html=1;rounded=0;edgeStyle=orthogonalEdgeStyle;" parent="1" source="G9EN5JWeJz_nwPtttZKu-13" target="ViWVULLcjfLXoIwgi1Q9-47" edge="1">
          <mxGeometry width="160" relative="1" as="geometry">
            <mxPoint x="-2390" y="310" as="sourcePoint" />
            <mxPoint x="-2230" y="310" as="targetPoint" />
            <Array as="points">
              <mxPoint x="-1960" y="-48" />
              <mxPoint x="-2035" y="-48" />
            </Array>
          </mxGeometry>
        </mxCell>
        <mxCell id="XK9j-7oEgiNXDrXOnYMV-22" value="" style="endArrow=diamondThin;endFill=0;endSize=24;html=1;rounded=0;edgeStyle=orthogonalEdgeStyle;" parent="1" source="yTDWApdTZO0DoRyl30tC-50" target="Vp7KOwkqIpcdfMKKaiIl-132" edge="1">
          <mxGeometry width="160" relative="1" as="geometry">
            <mxPoint x="-2480" y="-370" as="sourcePoint" />
            <mxPoint x="-2320" y="-370" as="targetPoint" />
            <Array as="points">
              <mxPoint x="-1570" y="-1340" />
              <mxPoint x="-2390" y="-1340" />
              <mxPoint x="-2390" y="-440" />
              <mxPoint x="-1810" y="-440" />
              <mxPoint x="-1810" y="-110" />
            </Array>
          </mxGeometry>
        </mxCell>
        <mxCell id="XK9j-7oEgiNXDrXOnYMV-23" value="Use" style="endArrow=open;endSize=12;dashed=1;html=1;rounded=0;edgeStyle=orthogonalEdgeStyle;" parent="1" source="yTDWApdTZO0DoRyl30tC-50" target="Vp7KOwkqIpcdfMKKaiIl-110" edge="1">
          <mxGeometry width="160" relative="1" as="geometry">
            <mxPoint x="-1780" y="-460" as="sourcePoint" />
            <mxPoint x="-1620" y="-460" as="targetPoint" />
            <Array as="points">
              <mxPoint x="-1560" y="-1360" />
              <mxPoint x="-2420" y="-1360" />
              <mxPoint x="-2420" y="-560" />
              <mxPoint x="-840" y="-560" />
            </Array>
          </mxGeometry>
        </mxCell>
        <mxCell id="XK9j-7oEgiNXDrXOnYMV-24" value="" style="endArrow=diamondThin;endFill=1;endSize=24;html=1;rounded=0;edgeStyle=orthogonalEdgeStyle;" parent="1" source="Vp7KOwkqIpcdfMKKaiIl-10" target="yTDWApdTZO0DoRyl30tC-50" edge="1">
          <mxGeometry width="160" relative="1" as="geometry">
            <mxPoint x="-1160" y="-1360" as="sourcePoint" />
            <mxPoint x="-1000" y="-1360" as="targetPoint" />
            <Array as="points">
              <mxPoint x="-340" y="-1370" />
              <mxPoint x="-1550" y="-1370" />
            </Array>
          </mxGeometry>
        </mxCell>
        <mxCell id="XK9j-7oEgiNXDrXOnYMV-25" value="" style="endArrow=diamondThin;endFill=1;endSize=24;html=1;rounded=0;edgeStyle=orthogonalEdgeStyle;" parent="1" source="G9EN5JWeJz_nwPtttZKu-126" target="yTDWApdTZO0DoRyl30tC-50" edge="1">
          <mxGeometry width="160" relative="1" as="geometry">
            <mxPoint x="-1080" y="-1400" as="sourcePoint" />
            <mxPoint x="-920" y="-1400" as="targetPoint" />
            <Array as="points">
              <mxPoint x="600" y="-1370" />
              <mxPoint x="-1550" y="-1370" />
            </Array>
          </mxGeometry>
        </mxCell>
        <mxCell id="XK9j-7oEgiNXDrXOnYMV-27" value="Use" style="endArrow=open;endSize=12;dashed=1;html=1;rounded=0;edgeStyle=orthogonalEdgeStyle;" parent="1" source="yTDWApdTZO0DoRyl30tC-50" target="Vp7KOwkqIpcdfMKKaiIl-52" edge="1">
          <mxGeometry width="160" relative="1" as="geometry">
            <mxPoint x="-1310" y="-1460" as="sourcePoint" />
            <mxPoint x="-1150" y="-1460" as="targetPoint" />
            <Array as="points">
              <mxPoint x="-1490" y="-1510" />
              <mxPoint x="1020" y="-1510" />
            </Array>
          </mxGeometry>
        </mxCell>
        <mxCell id="XK9j-7oEgiNXDrXOnYMV-28" value="Use" style="endArrow=open;endSize=12;dashed=1;html=1;rounded=0;edgeStyle=orthogonalEdgeStyle;" parent="1" source="yTDWApdTZO0DoRyl30tC-50" target="G9EN5JWeJz_nwPtttZKu-5" edge="1">
          <mxGeometry width="160" relative="1" as="geometry">
            <mxPoint x="-1640" y="-1450" as="sourcePoint" />
            <mxPoint x="-1480" y="-1450" as="targetPoint" />
            <Array as="points">
              <mxPoint x="-1490" y="-1510" />
              <mxPoint x="220" y="-1510" />
            </Array>
          </mxGeometry>
        </mxCell>
        <mxCell id="XK9j-7oEgiNXDrXOnYMV-29" value="Use" style="endArrow=open;endSize=12;dashed=1;html=1;rounded=0;edgeStyle=orthogonalEdgeStyle;" parent="1" source="Vp7KOwkqIpcdfMKKaiIl-140" target="G9EN5JWeJz_nwPtttZKu-5" edge="1">
          <mxGeometry width="160" relative="1" as="geometry">
            <mxPoint x="-1650" y="-470" as="sourcePoint" />
            <mxPoint x="-1490" y="-470" as="targetPoint" />
            <Array as="points">
              <mxPoint x="-1470" y="-305" />
              <mxPoint x="-1470" y="180" />
              <mxPoint x="330" y="180" />
            </Array>
          </mxGeometry>
        </mxCell>
        <mxCell id="XK9j-7oEgiNXDrXOnYMV-31" value="" style="endArrow=diamondThin;endFill=0;endSize=24;html=1;rounded=0;edgeStyle=orthogonalEdgeStyle;" parent="1" source="G9EN5JWeJz_nwPtttZKu-110" target="Vp7KOwkqIpcdfMKKaiIl-110" edge="1">
          <mxGeometry width="160" relative="1" as="geometry">
            <mxPoint x="-1640" y="-470" as="sourcePoint" />
            <mxPoint x="-1480" y="-470" as="targetPoint" />
            <Array as="points">
              <mxPoint x="-1830" y="-580" />
              <mxPoint x="-870" y="-580" />
            </Array>
          </mxGeometry>
        </mxCell>
        <mxCell id="XK9j-7oEgiNXDrXOnYMV-33" value="" style="endArrow=diamondThin;endFill=0;endSize=24;html=1;rounded=0;edgeStyle=orthogonalEdgeStyle;" parent="1" source="G9EN5JWeJz_nwPtttZKu-5" target="Vp7KOwkqIpcdfMKKaiIl-110" edge="1">
          <mxGeometry width="160" relative="1" as="geometry">
            <mxPoint x="-500" y="70" as="sourcePoint" />
            <mxPoint x="-340" y="70" as="targetPoint" />
            <Array as="points">
              <mxPoint x="110" y="-50" />
            </Array>
          </mxGeometry>
        </mxCell>
        <mxCell id="XK9j-7oEgiNXDrXOnYMV-34" value="" style="endArrow=diamondThin;endFill=1;endSize=24;html=1;rounded=0;edgeStyle=orthogonalEdgeStyle;" parent="1" source="G9EN5JWeJz_nwPtttZKu-106" target="Vp7KOwkqIpcdfMKKaiIl-110" edge="1">
          <mxGeometry width="160" relative="1" as="geometry">
            <mxPoint x="-1340" y="-10" as="sourcePoint" />
            <mxPoint x="-1180" y="-10" as="targetPoint" />
            <Array as="points">
              <mxPoint x="-1460" y="-60" />
            </Array>
          </mxGeometry>
        </mxCell>
        <mxCell id="XK9j-7oEgiNXDrXOnYMV-35" value="Use" style="endArrow=open;endSize=12;dashed=1;html=1;rounded=0;edgeStyle=orthogonalEdgeStyle;" parent="1" source="Vp7KOwkqIpcdfMKKaiIl-76" target="Vp7KOwkqIpcdfMKKaiIl-80" edge="1">
          <mxGeometry width="160" relative="1" as="geometry">
            <mxPoint x="-1700" y="-490" as="sourcePoint" />
            <mxPoint x="-1540" y="-490" as="targetPoint" />
            <Array as="points">
              <mxPoint x="-1310" y="-920" />
              <mxPoint x="-1210" y="-920" />
            </Array>
          </mxGeometry>
        </mxCell>
        <mxCell id="XK9j-7oEgiNXDrXOnYMV-36" value="Use" style="endArrow=open;endSize=12;dashed=1;html=1;rounded=0;edgeStyle=orthogonalEdgeStyle;" parent="1" source="Vp7KOwkqIpcdfMKKaiIl-21" target="G9EN5JWeJz_nwPtttZKu-103" edge="1">
          <mxGeometry width="160" relative="1" as="geometry">
            <mxPoint x="-650" y="-620" as="sourcePoint" />
            <mxPoint x="-490" y="-620" as="targetPoint" />
            <Array as="points">
              <mxPoint x="-720" y="-1160" />
              <mxPoint x="1850" y="-1160" />
            </Array>
          </mxGeometry>
        </mxCell>
        <mxCell id="XK9j-7oEgiNXDrXOnYMV-37" value="" style="endArrow=diamondThin;endFill=0;endSize=24;html=1;rounded=0;edgeStyle=orthogonalEdgeStyle;" parent="1" source="G9EN5JWeJz_nwPtttZKu-1" target="G9EN5JWeJz_nwPtttZKu-110" edge="1">
          <mxGeometry width="160" relative="1" as="geometry">
            <mxPoint x="-2080" y="-490" as="sourcePoint" />
            <mxPoint x="-1920" y="-490" as="targetPoint" />
            <Array as="points">
              <mxPoint x="1770" y="-1060" />
              <mxPoint x="45" y="-1060" />
              <mxPoint x="45" y="-950" />
              <mxPoint x="-1780" y="-950" />
            </Array>
          </mxGeometry>
        </mxCell>
        <mxCell id="XK9j-7oEgiNXDrXOnYMV-38" value="" style="endArrow=diamondThin;endFill=0;endSize=24;html=1;rounded=0;edgeStyle=orthogonalEdgeStyle;" parent="1" source="G9EN5JWeJz_nwPtttZKu-126" target="G9EN5JWeJz_nwPtttZKu-110" edge="1">
          <mxGeometry width="160" relative="1" as="geometry">
            <mxPoint x="-1000" y="-1140" as="sourcePoint" />
            <mxPoint x="-840" y="-1140" as="targetPoint" />
            <Array as="points">
              <mxPoint x="490" y="-550" />
              <mxPoint x="-1890" y="-550" />
            </Array>
          </mxGeometry>
        </mxCell>
        <mxCell id="XK9j-7oEgiNXDrXOnYMV-39" value="Use" style="endArrow=open;endSize=12;dashed=1;html=1;rounded=0;edgeStyle=orthogonalEdgeStyle;" parent="1" source="G9EN5JWeJz_nwPtttZKu-110" target="Vp7KOwkqIpcdfMKKaiIl-110" edge="1">
          <mxGeometry width="160" relative="1" as="geometry">
            <mxPoint x="-2200" y="-360" as="sourcePoint" />
            <mxPoint x="-2040" y="-360" as="targetPoint" />
            <Array as="points">
              <mxPoint x="-1920" y="-480" />
              <mxPoint x="-1070" y="-480" />
              <mxPoint x="-1070" y="-130" />
            </Array>
          </mxGeometry>
        </mxCell>
        <mxCell id="XK9j-7oEgiNXDrXOnYMV-40" value="" style="endArrow=diamondThin;endFill=0;endSize=24;html=1;rounded=0;edgeStyle=orthogonalEdgeStyle;" parent="1" source="G9EN5JWeJz_nwPtttZKu-103" target="G9EN5JWeJz_nwPtttZKu-99" edge="1">
          <mxGeometry width="160" relative="1" as="geometry">
            <mxPoint x="-2400" y="-360" as="sourcePoint" />
            <mxPoint x="-2240" y="-360" as="targetPoint" />
            <Array as="points">
              <mxPoint x="1871" y="-980" />
              <mxPoint x="-2160" y="-980" />
            </Array>
          </mxGeometry>
        </mxCell>
        <mxCell id="XK9j-7oEgiNXDrXOnYMV-43" value="Use" style="endArrow=open;endSize=12;dashed=1;html=1;rounded=0;edgeStyle=orthogonalEdgeStyle;" parent="1" source="G9EN5JWeJz_nwPtttZKu-99" target="G9EN5JWeJz_nwPtttZKu-1" edge="1">
          <mxGeometry width="160" relative="1" as="geometry">
            <mxPoint x="-2220" y="-930" as="sourcePoint" />
            <mxPoint x="-2060" y="-930" as="targetPoint" />
            <Array as="points">
              <mxPoint x="-2160" y="-510" />
              <mxPoint x="670" y="-510" />
              <mxPoint x="670" y="-80" />
              <mxPoint x="1860" y="-80" />
            </Array>
          </mxGeometry>
        </mxCell>
        <mxCell id="XK9j-7oEgiNXDrXOnYMV-44" value="Use" style="endArrow=open;endSize=12;dashed=1;html=1;rounded=0;edgeStyle=orthogonalEdgeStyle;" parent="1" source="G9EN5JWeJz_nwPtttZKu-99" target="Vp7KOwkqIpcdfMKKaiIl-110" edge="1">
          <mxGeometry width="160" relative="1" as="geometry">
            <mxPoint x="-2220" y="-320" as="sourcePoint" />
            <mxPoint x="-2060" y="-320" as="targetPoint" />
            <Array as="points">
              <mxPoint x="-2160" y="-510" />
              <mxPoint x="-1010" y="-510" />
            </Array>
          </mxGeometry>
        </mxCell>
        <mxCell id="XK9j-7oEgiNXDrXOnYMV-45" value="" style="endArrow=diamondThin;endFill=0;endSize=24;html=1;rounded=0;edgeStyle=orthogonalEdgeStyle;" parent="1" source="Vp7KOwkqIpcdfMKKaiIl-110" target="Vp7KOwkqIpcdfMKKaiIl-93" edge="1">
          <mxGeometry width="160" relative="1" as="geometry">
            <mxPoint x="-2280" y="-1070" as="sourcePoint" />
            <mxPoint x="-2120" y="-1070" as="targetPoint" />
            <Array as="points">
              <mxPoint x="-870" y="330" />
              <mxPoint x="-2500" y="330" />
              <mxPoint x="-2500" y="-1131" />
            </Array>
          </mxGeometry>
        </mxCell>
        <mxCell id="XK9j-7oEgiNXDrXOnYMV-46" value="" style="endArrow=diamondThin;endFill=0;endSize=24;html=1;rounded=0;edgeStyle=orthogonalEdgeStyle;" parent="1" source="Vp7KOwkqIpcdfMKKaiIl-110" target="Vp7KOwkqIpcdfMKKaiIl-52" edge="1">
          <mxGeometry width="160" relative="1" as="geometry">
            <mxPoint x="410" y="80" as="sourcePoint" />
            <mxPoint x="570" y="80" as="targetPoint" />
            <Array as="points">
              <mxPoint x="590" y="-90" />
              <mxPoint x="590" y="-730" />
              <mxPoint x="890" y="-730" />
            </Array>
          </mxGeometry>
        </mxCell>
        <mxCell id="XK9j-7oEgiNXDrXOnYMV-47" value="" style="endArrow=diamondThin;endFill=0;endSize=24;html=1;rounded=0;edgeStyle=orthogonalEdgeStyle;" parent="1" source="yTDWApdTZO0DoRyl30tC-50" target="G9EN5JWeJz_nwPtttZKu-5" edge="1">
          <mxGeometry width="160" relative="1" as="geometry">
            <mxPoint x="-220" y="-1260" as="sourcePoint" />
            <mxPoint x="-60" y="-1260" as="targetPoint" />
            <Array as="points">
              <mxPoint x="160" y="-1100" />
            </Array>
          </mxGeometry>
        </mxCell>
        <mxCell id="XK9j-7oEgiNXDrXOnYMV-48" value="Use" style="endArrow=open;endSize=12;dashed=1;html=1;rounded=0;" parent="1" source="G9EN5JWeJz_nwPtttZKu-5" target="G9EN5JWeJz_nwPtttZKu-126" edge="1">
          <mxGeometry width="160" relative="1" as="geometry">
            <mxPoint x="360" y="-1020" as="sourcePoint" />
            <mxPoint x="520" y="-1020" as="targetPoint" />
          </mxGeometry>
        </mxCell>
        <mxCell id="bsfdR2ASljnAakVN_pzH-2" value="&lt;font style=&quot;font-size: 24px;&quot;&gt;Страви, інгредієнти, рецепти&lt;/font&gt;" style="text;html=1;align=center;verticalAlign=middle;resizable=0;points=[];autosize=1;strokeColor=none;fillColor=none;" vertex="1" parent="1">
          <mxGeometry x="2500" y="-1215" width="350" height="40" as="geometry" />
        </mxCell>
        <mxCell id="bsfdR2ASljnAakVN_pzH-6" value="&lt;font style=&quot;font-size: 22px;&quot;&gt;&lt;b&gt;Процеси готування стравв від отримання замовлення на кухні до передачі офіціанту/видачі клієнту&lt;/b&gt;&lt;/font&gt;" style="text;html=1;strokeColor=none;fillColor=none;align=center;verticalAlign=middle;whiteSpace=wrap;rounded=0;" vertex="1" parent="1">
          <mxGeometry x="-1660" y="-650" width="380" height="30" as="geometry" />
        </mxCell>
        <mxCell id="bsfdR2ASljnAakVN_pzH-34" style="edgeStyle=orthogonalEdgeStyle;rounded=0;orthogonalLoop=1;jettySize=auto;html=1;" edge="1" parent="1" source="bsfdR2ASljnAakVN_pzH-19" target="bsfdR2ASljnAakVN_pzH-27">
          <mxGeometry relative="1" as="geometry" />
        </mxCell>
        <mxCell id="bsfdR2ASljnAakVN_pzH-19" value="Страви, інгредієнти, рецепти" style="rounded=0;whiteSpace=wrap;html=1;fillColor=#f8cecc;strokeColor=#b85450;" vertex="1" parent="1">
          <mxGeometry x="-3050" y="-1470" width="120" height="60" as="geometry" />
        </mxCell>
        <mxCell id="bsfdR2ASljnAakVN_pzH-35" style="edgeStyle=orthogonalEdgeStyle;rounded=0;orthogonalLoop=1;jettySize=auto;html=1;" edge="1" parent="1" source="bsfdR2ASljnAakVN_pzH-20" target="bsfdR2ASljnAakVN_pzH-28">
          <mxGeometry relative="1" as="geometry" />
        </mxCell>
        <mxCell id="bsfdR2ASljnAakVN_pzH-20" value="Адміністратор/структура піцерії" style="rounded=0;whiteSpace=wrap;html=1;fillColor=#e1d5e7;strokeColor=#9673a6;" vertex="1" parent="1">
          <mxGeometry x="-3050" y="-1360" width="120" height="60" as="geometry" />
        </mxCell>
        <mxCell id="bsfdR2ASljnAakVN_pzH-36" style="edgeStyle=orthogonalEdgeStyle;rounded=0;orthogonalLoop=1;jettySize=auto;html=1;" edge="1" parent="1" source="bsfdR2ASljnAakVN_pzH-21" target="bsfdR2ASljnAakVN_pzH-29">
          <mxGeometry relative="1" as="geometry" />
        </mxCell>
        <mxCell id="bsfdR2ASljnAakVN_pzH-21" value="Менеджер, конфігурація меню" style="rounded=0;whiteSpace=wrap;html=1;fillColor=#d5e8d4;strokeColor=#82b366;" vertex="1" parent="1">
          <mxGeometry x="-3050" y="-1240" width="120" height="60" as="geometry" />
        </mxCell>
        <mxCell id="bsfdR2ASljnAakVN_pzH-39" style="edgeStyle=orthogonalEdgeStyle;rounded=0;orthogonalLoop=1;jettySize=auto;html=1;" edge="1" parent="1" source="bsfdR2ASljnAakVN_pzH-22" target="bsfdR2ASljnAakVN_pzH-30">
          <mxGeometry relative="1" as="geometry" />
        </mxCell>
        <mxCell id="bsfdR2ASljnAakVN_pzH-22" value="Від створення замовлення клієнтом, до його оплати та передачі на кухню" style="rounded=0;whiteSpace=wrap;html=1;fillColor=#dae8fc;strokeColor=#6c8ebf;" vertex="1" parent="1">
          <mxGeometry x="-3050" y="-1140" width="120" height="80" as="geometry" />
        </mxCell>
        <mxCell id="bsfdR2ASljnAakVN_pzH-37" style="edgeStyle=orthogonalEdgeStyle;rounded=0;orthogonalLoop=1;jettySize=auto;html=1;" edge="1" parent="1" source="bsfdR2ASljnAakVN_pzH-23" target="bsfdR2ASljnAakVN_pzH-31">
          <mxGeometry relative="1" as="geometry" />
        </mxCell>
        <mxCell id="bsfdR2ASljnAakVN_pzH-23" value="Візуалізатор&lt;br&gt;&lt;b&gt;Визначити поля&lt;/b&gt;" style="rounded=0;whiteSpace=wrap;html=1;fillColor=#f5f5f5;fontColor=#333333;strokeColor=#666666;" vertex="1" parent="1">
          <mxGeometry x="-3050" y="-1010" width="120" height="60" as="geometry" />
        </mxCell>
        <mxCell id="bsfdR2ASljnAakVN_pzH-38" style="edgeStyle=orthogonalEdgeStyle;rounded=0;orthogonalLoop=1;jettySize=auto;html=1;" edge="1" parent="1" source="bsfdR2ASljnAakVN_pzH-24" target="bsfdR2ASljnAakVN_pzH-32">
          <mxGeometry relative="1" as="geometry" />
        </mxCell>
        <mxCell id="bsfdR2ASljnAakVN_pzH-24" value="Процеси готовки, від отримання замовлення на кухні до передачі його офіціанту" style="rounded=0;whiteSpace=wrap;html=1;fillColor=#fff2cc;strokeColor=#d6b656;" vertex="1" parent="1">
          <mxGeometry x="-3050" y="-920" width="120" height="80" as="geometry" />
        </mxCell>
        <mxCell id="bsfdR2ASljnAakVN_pzH-40" style="edgeStyle=orthogonalEdgeStyle;rounded=0;orthogonalLoop=1;jettySize=auto;html=1;" edge="1" parent="1" source="bsfdR2ASljnAakVN_pzH-25" target="bsfdR2ASljnAakVN_pzH-33">
          <mxGeometry relative="1" as="geometry" />
        </mxCell>
        <mxCell id="bsfdR2ASljnAakVN_pzH-25" value="Симулятор, генератор клієнтів" style="rounded=0;whiteSpace=wrap;html=1;fillColor=#ffe6cc;strokeColor=#d79b00;" vertex="1" parent="1">
          <mxGeometry x="-3050" y="-800" width="120" height="60" as="geometry" />
        </mxCell>
        <mxCell id="bsfdR2ASljnAakVN_pzH-26" value="&lt;h1&gt;Номери команд&lt;/h1&gt;&lt;p&gt;Команда 1: Остап, Альона&lt;/p&gt;&lt;p&gt;Команда 2: Денис, Микита&lt;br&gt;&lt;/p&gt;&lt;p&gt;Команда 3: Михайло, Олександр&lt;br&gt;&lt;/p&gt;&lt;p&gt;Команда 4: Богдан, Давид&lt;br&gt;&lt;/p&gt;&lt;p&gt;Команда 5: Роман, Віталік&lt;br&gt;&lt;/p&gt;" style="text;html=1;strokeColor=#b85450;fillColor=#f8cecc;spacing=5;spacingTop=-20;whiteSpace=wrap;overflow=hidden;rounded=0;gradientColor=#ea6b66;" vertex="1" parent="1">
          <mxGeometry x="-3300" y="-1210" width="230" height="180" as="geometry" />
        </mxCell>
        <mxCell id="bsfdR2ASljnAakVN_pzH-27" value="Команда №2" style="rounded=0;whiteSpace=wrap;html=1;" vertex="1" parent="1">
          <mxGeometry x="-2840" y="-1470" width="120" height="60" as="geometry" />
        </mxCell>
        <mxCell id="bsfdR2ASljnAakVN_pzH-28" value="Команда №5" style="rounded=0;whiteSpace=wrap;html=1;" vertex="1" parent="1">
          <mxGeometry x="-2840" y="-1360" width="120" height="60" as="geometry" />
        </mxCell>
        <mxCell id="bsfdR2ASljnAakVN_pzH-29" value="Команда №3" style="rounded=0;whiteSpace=wrap;html=1;" vertex="1" parent="1">
          <mxGeometry x="-2840" y="-1240" width="120" height="60" as="geometry" />
        </mxCell>
        <mxCell id="bsfdR2ASljnAakVN_pzH-30" value="Команда №1" style="rounded=0;whiteSpace=wrap;html=1;" vertex="1" parent="1">
          <mxGeometry x="-2840" y="-1130" width="120" height="60" as="geometry" />
        </mxCell>
        <mxCell id="bsfdR2ASljnAakVN_pzH-31" value="Команда №3" style="rounded=0;whiteSpace=wrap;html=1;" vertex="1" parent="1">
          <mxGeometry x="-2840" y="-1010" width="120" height="60" as="geometry" />
        </mxCell>
        <mxCell id="bsfdR2ASljnAakVN_pzH-32" value="Команда №4" style="rounded=0;whiteSpace=wrap;html=1;" vertex="1" parent="1">
          <mxGeometry x="-2840" y="-910" width="120" height="60" as="geometry" />
        </mxCell>
        <mxCell id="bsfdR2ASljnAakVN_pzH-33" value="" style="rounded=0;whiteSpace=wrap;html=1;" vertex="1" parent="1">
          <mxGeometry x="-2840" y="-800" width="120" height="60" as="geometry" />
        </mxCell>
      </root>
    </mxGraphModel>
  </diagram>
</mxfile>
